G04 #@! TF.GenerationSoftware,KiCad,Pcbnew,(5.1.5)-3*
G04 #@! TF.CreationDate,2020-03-11T07:33:21-05:00*
G04 #@! TF.ProjectId,BreadboardBreakout,42726561-6462-46f6-9172-64427265616b,rev?*
G04 #@! TF.SameCoordinates,Original*
G04 #@! TF.FileFunction,Paste,Top*
G04 #@! TF.FilePolarity,Positive*
%FSLAX46Y46*%
G04 Gerber Fmt 4.6, Leading zero omitted, Abs format (unit mm)*
G04 Created by KiCad (PCBNEW (5.1.5)-3) date 2020-03-11 07:33:21*
%MOMM*%
%LPD*%
G04 APERTURE LIST*
%ADD10C,0.100000*%
%ADD11R,3.000000X0.800000*%
G04 APERTURE END LIST*
D10*
G36*
X-9890496Y33106396D02*
G01*
X-9866227Y33102796D01*
X-9842429Y33096835D01*
X-9819329Y33088570D01*
X-9797151Y33078080D01*
X-9776107Y33065467D01*
X-9756402Y33050853D01*
X-9738223Y33034377D01*
X-9721747Y33016198D01*
X-9707133Y32996493D01*
X-9694520Y32975449D01*
X-9684030Y32953271D01*
X-9675765Y32930171D01*
X-9669804Y32906373D01*
X-9666204Y32882104D01*
X-9665000Y32857600D01*
X-9665000Y31607600D01*
X-9666204Y31583096D01*
X-9669804Y31558827D01*
X-9675765Y31535029D01*
X-9684030Y31511929D01*
X-9694520Y31489751D01*
X-9707133Y31468707D01*
X-9721747Y31449002D01*
X-9738223Y31430823D01*
X-9756402Y31414347D01*
X-9776107Y31399733D01*
X-9797151Y31387120D01*
X-9819329Y31376630D01*
X-9842429Y31368365D01*
X-9866227Y31362404D01*
X-9890496Y31358804D01*
X-9915000Y31357600D01*
X-10840000Y31357600D01*
X-10864504Y31358804D01*
X-10888773Y31362404D01*
X-10912571Y31368365D01*
X-10935671Y31376630D01*
X-10957849Y31387120D01*
X-10978893Y31399733D01*
X-10998598Y31414347D01*
X-11016777Y31430823D01*
X-11033253Y31449002D01*
X-11047867Y31468707D01*
X-11060480Y31489751D01*
X-11070970Y31511929D01*
X-11079235Y31535029D01*
X-11085196Y31558827D01*
X-11088796Y31583096D01*
X-11090000Y31607600D01*
X-11090000Y32857600D01*
X-11088796Y32882104D01*
X-11085196Y32906373D01*
X-11079235Y32930171D01*
X-11070970Y32953271D01*
X-11060480Y32975449D01*
X-11047867Y32996493D01*
X-11033253Y33016198D01*
X-11016777Y33034377D01*
X-10998598Y33050853D01*
X-10978893Y33065467D01*
X-10957849Y33078080D01*
X-10935671Y33088570D01*
X-10912571Y33096835D01*
X-10888773Y33102796D01*
X-10864504Y33106396D01*
X-10840000Y33107600D01*
X-9915000Y33107600D01*
X-9890496Y33106396D01*
G37*
G36*
X-6915496Y33106396D02*
G01*
X-6891227Y33102796D01*
X-6867429Y33096835D01*
X-6844329Y33088570D01*
X-6822151Y33078080D01*
X-6801107Y33065467D01*
X-6781402Y33050853D01*
X-6763223Y33034377D01*
X-6746747Y33016198D01*
X-6732133Y32996493D01*
X-6719520Y32975449D01*
X-6709030Y32953271D01*
X-6700765Y32930171D01*
X-6694804Y32906373D01*
X-6691204Y32882104D01*
X-6690000Y32857600D01*
X-6690000Y31607600D01*
X-6691204Y31583096D01*
X-6694804Y31558827D01*
X-6700765Y31535029D01*
X-6709030Y31511929D01*
X-6719520Y31489751D01*
X-6732133Y31468707D01*
X-6746747Y31449002D01*
X-6763223Y31430823D01*
X-6781402Y31414347D01*
X-6801107Y31399733D01*
X-6822151Y31387120D01*
X-6844329Y31376630D01*
X-6867429Y31368365D01*
X-6891227Y31362404D01*
X-6915496Y31358804D01*
X-6940000Y31357600D01*
X-7865000Y31357600D01*
X-7889504Y31358804D01*
X-7913773Y31362404D01*
X-7937571Y31368365D01*
X-7960671Y31376630D01*
X-7982849Y31387120D01*
X-8003893Y31399733D01*
X-8023598Y31414347D01*
X-8041777Y31430823D01*
X-8058253Y31449002D01*
X-8072867Y31468707D01*
X-8085480Y31489751D01*
X-8095970Y31511929D01*
X-8104235Y31535029D01*
X-8110196Y31558827D01*
X-8113796Y31583096D01*
X-8115000Y31607600D01*
X-8115000Y32857600D01*
X-8113796Y32882104D01*
X-8110196Y32906373D01*
X-8104235Y32930171D01*
X-8095970Y32953271D01*
X-8085480Y32975449D01*
X-8072867Y32996493D01*
X-8058253Y33016198D01*
X-8041777Y33034377D01*
X-8023598Y33050853D01*
X-8003893Y33065467D01*
X-7982849Y33078080D01*
X-7960671Y33088570D01*
X-7937571Y33096835D01*
X-7913773Y33102796D01*
X-7889504Y33106396D01*
X-7865000Y33107600D01*
X-6940000Y33107600D01*
X-6915496Y33106396D01*
G37*
G36*
X-6915496Y38186396D02*
G01*
X-6891227Y38182796D01*
X-6867429Y38176835D01*
X-6844329Y38168570D01*
X-6822151Y38158080D01*
X-6801107Y38145467D01*
X-6781402Y38130853D01*
X-6763223Y38114377D01*
X-6746747Y38096198D01*
X-6732133Y38076493D01*
X-6719520Y38055449D01*
X-6709030Y38033271D01*
X-6700765Y38010171D01*
X-6694804Y37986373D01*
X-6691204Y37962104D01*
X-6690000Y37937600D01*
X-6690000Y36687600D01*
X-6691204Y36663096D01*
X-6694804Y36638827D01*
X-6700765Y36615029D01*
X-6709030Y36591929D01*
X-6719520Y36569751D01*
X-6732133Y36548707D01*
X-6746747Y36529002D01*
X-6763223Y36510823D01*
X-6781402Y36494347D01*
X-6801107Y36479733D01*
X-6822151Y36467120D01*
X-6844329Y36456630D01*
X-6867429Y36448365D01*
X-6891227Y36442404D01*
X-6915496Y36438804D01*
X-6940000Y36437600D01*
X-7865000Y36437600D01*
X-7889504Y36438804D01*
X-7913773Y36442404D01*
X-7937571Y36448365D01*
X-7960671Y36456630D01*
X-7982849Y36467120D01*
X-8003893Y36479733D01*
X-8023598Y36494347D01*
X-8041777Y36510823D01*
X-8058253Y36529002D01*
X-8072867Y36548707D01*
X-8085480Y36569751D01*
X-8095970Y36591929D01*
X-8104235Y36615029D01*
X-8110196Y36638827D01*
X-8113796Y36663096D01*
X-8115000Y36687600D01*
X-8115000Y37937600D01*
X-8113796Y37962104D01*
X-8110196Y37986373D01*
X-8104235Y38010171D01*
X-8095970Y38033271D01*
X-8085480Y38055449D01*
X-8072867Y38076493D01*
X-8058253Y38096198D01*
X-8041777Y38114377D01*
X-8023598Y38130853D01*
X-8003893Y38145467D01*
X-7982849Y38158080D01*
X-7960671Y38168570D01*
X-7937571Y38176835D01*
X-7913773Y38182796D01*
X-7889504Y38186396D01*
X-7865000Y38187600D01*
X-6940000Y38187600D01*
X-6915496Y38186396D01*
G37*
G36*
X-9890496Y38186396D02*
G01*
X-9866227Y38182796D01*
X-9842429Y38176835D01*
X-9819329Y38168570D01*
X-9797151Y38158080D01*
X-9776107Y38145467D01*
X-9756402Y38130853D01*
X-9738223Y38114377D01*
X-9721747Y38096198D01*
X-9707133Y38076493D01*
X-9694520Y38055449D01*
X-9684030Y38033271D01*
X-9675765Y38010171D01*
X-9669804Y37986373D01*
X-9666204Y37962104D01*
X-9665000Y37937600D01*
X-9665000Y36687600D01*
X-9666204Y36663096D01*
X-9669804Y36638827D01*
X-9675765Y36615029D01*
X-9684030Y36591929D01*
X-9694520Y36569751D01*
X-9707133Y36548707D01*
X-9721747Y36529002D01*
X-9738223Y36510823D01*
X-9756402Y36494347D01*
X-9776107Y36479733D01*
X-9797151Y36467120D01*
X-9819329Y36456630D01*
X-9842429Y36448365D01*
X-9866227Y36442404D01*
X-9890496Y36438804D01*
X-9915000Y36437600D01*
X-10840000Y36437600D01*
X-10864504Y36438804D01*
X-10888773Y36442404D01*
X-10912571Y36448365D01*
X-10935671Y36456630D01*
X-10957849Y36467120D01*
X-10978893Y36479733D01*
X-10998598Y36494347D01*
X-11016777Y36510823D01*
X-11033253Y36529002D01*
X-11047867Y36548707D01*
X-11060480Y36569751D01*
X-11070970Y36591929D01*
X-11079235Y36615029D01*
X-11085196Y36638827D01*
X-11088796Y36663096D01*
X-11090000Y36687600D01*
X-11090000Y37937600D01*
X-11088796Y37962104D01*
X-11085196Y37986373D01*
X-11079235Y38010171D01*
X-11070970Y38033271D01*
X-11060480Y38055449D01*
X-11047867Y38076493D01*
X-11033253Y38096198D01*
X-11016777Y38114377D01*
X-10998598Y38130853D01*
X-10978893Y38145467D01*
X-10957849Y38158080D01*
X-10935671Y38168570D01*
X-10912571Y38176835D01*
X-10888773Y38182796D01*
X-10864504Y38186396D01*
X-10840000Y38187600D01*
X-9915000Y38187600D01*
X-9890496Y38186396D01*
G37*
D11*
X-9152400Y-27406600D03*
X8847600Y-27406600D03*
X-9152400Y-26136600D03*
X8847600Y-26136600D03*
X-9152400Y-24866600D03*
X8847600Y-24866600D03*
X-9152400Y-23596600D03*
X8847600Y-23596600D03*
X-9152400Y-22326600D03*
X8847600Y-22326600D03*
X-9152400Y-21056600D03*
X8847600Y-21056600D03*
X-9152400Y-19786600D03*
X8847600Y-19786600D03*
X-9152400Y-18516600D03*
X8847600Y-18516600D03*
X-9152400Y-17246600D03*
X8847600Y-17246600D03*
X-9152400Y-15976600D03*
X8847600Y-15976600D03*
X-9152400Y-14706600D03*
X8847600Y-14706600D03*
X-9152400Y-13436600D03*
X8847600Y-13436600D03*
M02*
