G04 #@! TF.GenerationSoftware,KiCad,Pcbnew,(5.1.5)-3*
G04 #@! TF.CreationDate,2020-03-11T07:33:21-05:00*
G04 #@! TF.ProjectId,BreadboardBreakout,42726561-6462-46f6-9172-64427265616b,rev?*
G04 #@! TF.SameCoordinates,Original*
G04 #@! TF.FileFunction,Copper,L2,Bot*
G04 #@! TF.FilePolarity,Positive*
%FSLAX46Y46*%
G04 Gerber Fmt 4.6, Leading zero omitted, Abs format (unit mm)*
G04 Created by KiCad (PCBNEW (5.1.5)-3) date 2020-03-11 07:33:21*
%MOMM*%
%LPD*%
G04 APERTURE LIST*
%ADD10O,1.700000X1.700000*%
%ADD11R,1.700000X1.700000*%
%ADD12R,1.727200X1.727200*%
%ADD13O,1.727200X1.727200*%
%ADD14R,2.000000X0.700000*%
%ADD15R,0.700000X2.000000*%
%ADD16C,0.100000*%
%ADD17C,0.800000*%
%ADD18C,0.250000*%
%ADD19C,0.254000*%
G04 APERTURE END LIST*
D10*
X-6260000Y22940000D03*
X-6260000Y20400000D03*
X-6260000Y17860000D03*
X-6260000Y15320000D03*
X-6260000Y12780000D03*
X-6260000Y10240000D03*
X-6260000Y7700000D03*
X-6260000Y5160000D03*
X-6260000Y2620000D03*
X-6260000Y80000D03*
X-6260000Y-2460000D03*
D11*
X-6260000Y-5000000D03*
D10*
X6260000Y22940000D03*
X6260000Y20400000D03*
X6260000Y17860000D03*
X6260000Y15320000D03*
X6260000Y12780000D03*
X6260000Y10240000D03*
X6260000Y7700000D03*
X6260000Y5160000D03*
X6260000Y2620000D03*
X6260000Y80000D03*
X6260000Y-2460000D03*
D11*
X6260000Y-5000000D03*
D12*
X2540000Y34290000D03*
D13*
X2540000Y36830000D03*
X5080000Y34290000D03*
X5080000Y36830000D03*
X7620000Y34290000D03*
X7620000Y36830000D03*
X10160000Y34290000D03*
X10160000Y36830000D03*
X12700000Y34290000D03*
X12700000Y36830000D03*
D11*
X-15240000Y38100000D03*
D10*
X-15240000Y35560000D03*
X-15240000Y33020000D03*
D14*
X7735800Y-19385800D03*
X7735800Y-20655800D03*
X7735800Y-21925800D03*
X7735800Y-23195800D03*
X7735800Y-24465800D03*
X7735800Y-25735800D03*
X7735800Y-27005800D03*
X7735800Y-28275800D03*
D15*
X-3774200Y-17125800D03*
X-2504200Y-17125800D03*
X-1234200Y-17125800D03*
X35800Y-17125800D03*
X1305800Y-17125800D03*
X2575800Y-17125800D03*
X3845800Y-17125800D03*
X5115800Y-17125800D03*
D14*
X-6364200Y-28275800D03*
X-6364200Y-27005800D03*
X-6364200Y-25735800D03*
X-6364200Y-24465800D03*
X-6364200Y-23195800D03*
X-6364200Y-21925800D03*
X-6364200Y-20655800D03*
X-6364200Y-19385800D03*
G04 #@! TA.AperFunction,SMDPad,CuDef*
D16*
G36*
X-6793897Y38108995D02*
G01*
X-6769628Y38105395D01*
X-6745830Y38099434D01*
X-6722730Y38091169D01*
X-6700552Y38080679D01*
X-6679508Y38068066D01*
X-6659803Y38053452D01*
X-6641624Y38036976D01*
X-6625148Y38018797D01*
X-6610534Y37999092D01*
X-6597921Y37978048D01*
X-6587431Y37955870D01*
X-6579166Y37932770D01*
X-6573205Y37908972D01*
X-6569605Y37884703D01*
X-6568401Y37860199D01*
X-6568401Y36610199D01*
X-6569605Y36585695D01*
X-6573205Y36561426D01*
X-6579166Y36537628D01*
X-6587431Y36514528D01*
X-6597921Y36492350D01*
X-6610534Y36471306D01*
X-6625148Y36451601D01*
X-6641624Y36433422D01*
X-6659803Y36416946D01*
X-6679508Y36402332D01*
X-6700552Y36389719D01*
X-6722730Y36379229D01*
X-6745830Y36370964D01*
X-6769628Y36365003D01*
X-6793897Y36361403D01*
X-6818401Y36360199D01*
X-7743401Y36360199D01*
X-7767905Y36361403D01*
X-7792174Y36365003D01*
X-7815972Y36370964D01*
X-7839072Y36379229D01*
X-7861250Y36389719D01*
X-7882294Y36402332D01*
X-7901999Y36416946D01*
X-7920178Y36433422D01*
X-7936654Y36451601D01*
X-7951268Y36471306D01*
X-7963881Y36492350D01*
X-7974371Y36514528D01*
X-7982636Y36537628D01*
X-7988597Y36561426D01*
X-7992197Y36585695D01*
X-7993401Y36610199D01*
X-7993401Y37860199D01*
X-7992197Y37884703D01*
X-7988597Y37908972D01*
X-7982636Y37932770D01*
X-7974371Y37955870D01*
X-7963881Y37978048D01*
X-7951268Y37999092D01*
X-7936654Y38018797D01*
X-7920178Y38036976D01*
X-7901999Y38053452D01*
X-7882294Y38068066D01*
X-7861250Y38080679D01*
X-7839072Y38091169D01*
X-7815972Y38099434D01*
X-7792174Y38105395D01*
X-7767905Y38108995D01*
X-7743401Y38110199D01*
X-6818401Y38110199D01*
X-6793897Y38108995D01*
G37*
G04 #@! TD.AperFunction*
G04 #@! TA.AperFunction,SMDPad,CuDef*
G36*
X-9768897Y38108995D02*
G01*
X-9744628Y38105395D01*
X-9720830Y38099434D01*
X-9697730Y38091169D01*
X-9675552Y38080679D01*
X-9654508Y38068066D01*
X-9634803Y38053452D01*
X-9616624Y38036976D01*
X-9600148Y38018797D01*
X-9585534Y37999092D01*
X-9572921Y37978048D01*
X-9562431Y37955870D01*
X-9554166Y37932770D01*
X-9548205Y37908972D01*
X-9544605Y37884703D01*
X-9543401Y37860199D01*
X-9543401Y36610199D01*
X-9544605Y36585695D01*
X-9548205Y36561426D01*
X-9554166Y36537628D01*
X-9562431Y36514528D01*
X-9572921Y36492350D01*
X-9585534Y36471306D01*
X-9600148Y36451601D01*
X-9616624Y36433422D01*
X-9634803Y36416946D01*
X-9654508Y36402332D01*
X-9675552Y36389719D01*
X-9697730Y36379229D01*
X-9720830Y36370964D01*
X-9744628Y36365003D01*
X-9768897Y36361403D01*
X-9793401Y36360199D01*
X-10718401Y36360199D01*
X-10742905Y36361403D01*
X-10767174Y36365003D01*
X-10790972Y36370964D01*
X-10814072Y36379229D01*
X-10836250Y36389719D01*
X-10857294Y36402332D01*
X-10876999Y36416946D01*
X-10895178Y36433422D01*
X-10911654Y36451601D01*
X-10926268Y36471306D01*
X-10938881Y36492350D01*
X-10949371Y36514528D01*
X-10957636Y36537628D01*
X-10963597Y36561426D01*
X-10967197Y36585695D01*
X-10968401Y36610199D01*
X-10968401Y37860199D01*
X-10967197Y37884703D01*
X-10963597Y37908972D01*
X-10957636Y37932770D01*
X-10949371Y37955870D01*
X-10938881Y37978048D01*
X-10926268Y37999092D01*
X-10911654Y38018797D01*
X-10895178Y38036976D01*
X-10876999Y38053452D01*
X-10857294Y38068066D01*
X-10836250Y38080679D01*
X-10814072Y38091169D01*
X-10790972Y38099434D01*
X-10767174Y38105395D01*
X-10742905Y38108995D01*
X-10718401Y38110199D01*
X-9793401Y38110199D01*
X-9768897Y38108995D01*
G37*
G04 #@! TD.AperFunction*
G04 #@! TA.AperFunction,SMDPad,CuDef*
G36*
X-9825396Y33080996D02*
G01*
X-9801127Y33077396D01*
X-9777329Y33071435D01*
X-9754229Y33063170D01*
X-9732051Y33052680D01*
X-9711007Y33040067D01*
X-9691302Y33025453D01*
X-9673123Y33008977D01*
X-9656647Y32990798D01*
X-9642033Y32971093D01*
X-9629420Y32950049D01*
X-9618930Y32927871D01*
X-9610665Y32904771D01*
X-9604704Y32880973D01*
X-9601104Y32856704D01*
X-9599900Y32832200D01*
X-9599900Y31582200D01*
X-9601104Y31557696D01*
X-9604704Y31533427D01*
X-9610665Y31509629D01*
X-9618930Y31486529D01*
X-9629420Y31464351D01*
X-9642033Y31443307D01*
X-9656647Y31423602D01*
X-9673123Y31405423D01*
X-9691302Y31388947D01*
X-9711007Y31374333D01*
X-9732051Y31361720D01*
X-9754229Y31351230D01*
X-9777329Y31342965D01*
X-9801127Y31337004D01*
X-9825396Y31333404D01*
X-9849900Y31332200D01*
X-10774900Y31332200D01*
X-10799404Y31333404D01*
X-10823673Y31337004D01*
X-10847471Y31342965D01*
X-10870571Y31351230D01*
X-10892749Y31361720D01*
X-10913793Y31374333D01*
X-10933498Y31388947D01*
X-10951677Y31405423D01*
X-10968153Y31423602D01*
X-10982767Y31443307D01*
X-10995380Y31464351D01*
X-11005870Y31486529D01*
X-11014135Y31509629D01*
X-11020096Y31533427D01*
X-11023696Y31557696D01*
X-11024900Y31582200D01*
X-11024900Y32832200D01*
X-11023696Y32856704D01*
X-11020096Y32880973D01*
X-11014135Y32904771D01*
X-11005870Y32927871D01*
X-10995380Y32950049D01*
X-10982767Y32971093D01*
X-10968153Y32990798D01*
X-10951677Y33008977D01*
X-10933498Y33025453D01*
X-10913793Y33040067D01*
X-10892749Y33052680D01*
X-10870571Y33063170D01*
X-10847471Y33071435D01*
X-10823673Y33077396D01*
X-10799404Y33080996D01*
X-10774900Y33082200D01*
X-9849900Y33082200D01*
X-9825396Y33080996D01*
G37*
G04 #@! TD.AperFunction*
G04 #@! TA.AperFunction,SMDPad,CuDef*
G36*
X-6850396Y33080996D02*
G01*
X-6826127Y33077396D01*
X-6802329Y33071435D01*
X-6779229Y33063170D01*
X-6757051Y33052680D01*
X-6736007Y33040067D01*
X-6716302Y33025453D01*
X-6698123Y33008977D01*
X-6681647Y32990798D01*
X-6667033Y32971093D01*
X-6654420Y32950049D01*
X-6643930Y32927871D01*
X-6635665Y32904771D01*
X-6629704Y32880973D01*
X-6626104Y32856704D01*
X-6624900Y32832200D01*
X-6624900Y31582200D01*
X-6626104Y31557696D01*
X-6629704Y31533427D01*
X-6635665Y31509629D01*
X-6643930Y31486529D01*
X-6654420Y31464351D01*
X-6667033Y31443307D01*
X-6681647Y31423602D01*
X-6698123Y31405423D01*
X-6716302Y31388947D01*
X-6736007Y31374333D01*
X-6757051Y31361720D01*
X-6779229Y31351230D01*
X-6802329Y31342965D01*
X-6826127Y31337004D01*
X-6850396Y31333404D01*
X-6874900Y31332200D01*
X-7799900Y31332200D01*
X-7824404Y31333404D01*
X-7848673Y31337004D01*
X-7872471Y31342965D01*
X-7895571Y31351230D01*
X-7917749Y31361720D01*
X-7938793Y31374333D01*
X-7958498Y31388947D01*
X-7976677Y31405423D01*
X-7993153Y31423602D01*
X-8007767Y31443307D01*
X-8020380Y31464351D01*
X-8030870Y31486529D01*
X-8039135Y31509629D01*
X-8045096Y31533427D01*
X-8048696Y31557696D01*
X-8049900Y31582200D01*
X-8049900Y32832200D01*
X-8048696Y32856704D01*
X-8045096Y32880973D01*
X-8039135Y32904771D01*
X-8030870Y32927871D01*
X-8020380Y32950049D01*
X-8007767Y32971093D01*
X-7993153Y32990798D01*
X-7976677Y33008977D01*
X-7958498Y33025453D01*
X-7938793Y33040067D01*
X-7917749Y33052680D01*
X-7895571Y33063170D01*
X-7872471Y33071435D01*
X-7848673Y33077396D01*
X-7824404Y33080996D01*
X-7799900Y33082200D01*
X-6874900Y33082200D01*
X-6850396Y33080996D01*
G37*
G04 #@! TD.AperFunction*
D17*
X-4140200Y-27432000D03*
X-4104673Y-25689527D03*
X-4276997Y-24374203D03*
X-4216400Y-23063200D03*
X-4559300Y-21805900D03*
X-10337800Y-21107400D03*
X-10312400Y-19735800D03*
X-10185400Y-18592800D03*
X4327458Y-22444142D03*
X4742270Y-24188330D03*
X3246192Y-24160408D03*
X1955800Y-10718800D03*
X-10185400Y-16027400D03*
X-10388600Y35560000D03*
D18*
X35800Y-18375800D02*
X50800Y-18390800D01*
X35800Y-17125800D02*
X35800Y-18375800D01*
X50800Y-18390800D02*
X50800Y-26365200D01*
X50800Y-26365200D02*
X-1016000Y-27432000D01*
X-1016000Y-27432000D02*
X-4140200Y-27432000D01*
X-2032000Y-25679400D02*
X-4104673Y-25689527D01*
X-1234200Y-18375800D02*
X-1117600Y-18492400D01*
X-1234200Y-17125800D02*
X-1234200Y-18375800D01*
X-1117600Y-24688800D02*
X-1854200Y-25501600D01*
X-1117600Y-18492400D02*
X-1117600Y-24688800D01*
X-1854200Y-25501600D02*
X-2032000Y-25679400D01*
X-2962003Y-24374203D02*
X-4276997Y-24374203D01*
X-2540000Y-23952200D02*
X-2962003Y-24374203D01*
X-2540000Y-18411600D02*
X-2540000Y-23952200D01*
X-2504200Y-17125800D02*
X-2504200Y-18375800D01*
X-2504200Y-18375800D02*
X-2540000Y-18411600D01*
X-3409200Y-20655800D02*
X-6364200Y-20655800D01*
X-4216400Y-23063200D02*
X-3251200Y-21820000D01*
X-3251200Y-21820000D02*
X-3251200Y-20813800D01*
X-3251200Y-20813800D02*
X-3409200Y-20655800D01*
X-4679200Y-21925800D02*
X-4559300Y-21805900D01*
X-6364200Y-21925800D02*
X-4679200Y-21925800D01*
X-8249400Y-23195800D02*
X-10337800Y-21107400D01*
X-6364200Y-23195800D02*
X-8249400Y-23195800D01*
X-10712399Y-20135799D02*
X-10312400Y-19735800D01*
X-11062801Y-20486201D02*
X-10712399Y-20135799D01*
X-11062801Y-21455401D02*
X-11062801Y-20486201D01*
X-8052402Y-24465800D02*
X-11062801Y-21455401D01*
X-6364200Y-24465800D02*
X-8052402Y-24465800D01*
X3891399Y35641399D02*
X4216401Y35966401D01*
X1579197Y35641399D02*
X3891399Y35641399D01*
X-18210Y34043992D02*
X1579197Y35641399D01*
X-18210Y-10007295D02*
X-18210Y34043992D01*
X-9746715Y-19735800D02*
X-18210Y-10007295D01*
X4216401Y35966401D02*
X5080000Y36830000D01*
X-10312400Y-19735800D02*
X-9746715Y-19735800D01*
X-10751085Y-18592800D02*
X-10185400Y-18592800D01*
X-11512810Y-19354525D02*
X-10751085Y-18592800D01*
X-11512810Y-21641802D02*
X-11512810Y-19354525D01*
X-7418812Y-25735800D02*
X-11512810Y-21641802D01*
X-6364200Y-25735800D02*
X-7418812Y-25735800D01*
X6268601Y35478601D02*
X5943599Y35153599D01*
X5943599Y35153599D02*
X5080000Y34290000D01*
X6268601Y37400529D02*
X6268601Y35478601D01*
X5650529Y38018601D02*
X6268601Y37400529D01*
X1969471Y38018601D02*
X5650529Y38018601D01*
X-468220Y35580910D02*
X1969471Y38018601D01*
X-468220Y-8875620D02*
X-468220Y35580910D01*
X-10185400Y-18592800D02*
X-468220Y-8875620D01*
X8985800Y-28275800D02*
X12217664Y-25043936D01*
X7735800Y-28275800D02*
X8985800Y-28275800D01*
X12217664Y-25043936D02*
X12217663Y-15437823D01*
X6260000Y-9480160D02*
X6260000Y-5000000D01*
X12217663Y-15437823D02*
X6260000Y-9480160D01*
X8985800Y-27005800D02*
X11767654Y-24223944D01*
X7735800Y-27005800D02*
X8985800Y-27005800D01*
X11767654Y-24223944D02*
X11767654Y-15624224D01*
X11767654Y-15624224D02*
X3131860Y-6988430D01*
X3131860Y-5588140D02*
X6260000Y-2460000D01*
X3131860Y-6988430D02*
X3131860Y-5588140D01*
X8352200Y-25735800D02*
X11317646Y-22770362D01*
X7735800Y-25735800D02*
X8352200Y-25735800D01*
X11317646Y-22770362D02*
X11317645Y-15810625D01*
X11317645Y-15810625D02*
X2681850Y-7174830D01*
X2681850Y-3498150D02*
X6260000Y80000D01*
X2681850Y-7174830D02*
X2681850Y-3498150D01*
X8985800Y-24465800D02*
X10867636Y-22583962D01*
X7735800Y-24465800D02*
X8985800Y-24465800D01*
X10867636Y-22583962D02*
X10867636Y-15997026D01*
X10867636Y-15997026D02*
X2231840Y-7361230D01*
X2231840Y-1408160D02*
X6260000Y2620000D01*
X2231840Y-7361230D02*
X2231840Y-1408160D01*
X1781830Y681830D02*
X6260000Y5160000D01*
X8352210Y-23195800D02*
X10417628Y-21130380D01*
X7735800Y-23195800D02*
X8352210Y-23195800D01*
X10417627Y-16183427D02*
X1781830Y-7547630D01*
X10417628Y-21130380D02*
X10417627Y-16183427D01*
X1781830Y-7547630D02*
X1781830Y681830D01*
X7735800Y-21925800D02*
X8985800Y-21925800D01*
X9967619Y-20943981D02*
X9967618Y-16384796D01*
X8985800Y-21925800D02*
X9967619Y-20943981D01*
X9967618Y-16384796D02*
X1331820Y-7748998D01*
X1331820Y2771820D02*
X6260000Y7700000D01*
X1331820Y-7748998D02*
X1331820Y2771820D01*
X9517610Y-20123990D02*
X9517609Y-16571197D01*
X7735800Y-20655800D02*
X8985800Y-20655800D01*
X8985800Y-20655800D02*
X9517610Y-20123990D01*
X5410001Y9390001D02*
X6260000Y10240000D01*
X881810Y4861810D02*
X5410001Y9390001D01*
X881810Y-7935398D02*
X881810Y4861810D01*
X9517609Y-16571197D02*
X881810Y-7935398D01*
X8985800Y-19385800D02*
X9067600Y-19304000D01*
X7735800Y-19385800D02*
X8985800Y-19385800D01*
X9067600Y-16757598D02*
X431800Y-8121798D01*
X9067600Y-19304000D02*
X9067600Y-16757598D01*
X431800Y6951800D02*
X6260000Y12780000D01*
X431800Y-8121798D02*
X431800Y6951800D01*
X3708400Y-21825084D02*
X4327458Y-22444142D01*
X3708400Y-20036000D02*
X3708400Y-21825084D01*
X5115800Y-17125800D02*
X5115800Y-18628600D01*
X5115800Y-18628600D02*
X3708400Y-20036000D01*
X3845800Y-17125800D02*
X3845800Y-18633200D01*
X3845800Y-18633200D02*
X3025810Y-19453190D01*
X3025810Y-22471870D02*
X4742270Y-24188330D01*
X3025810Y-19453190D02*
X3025810Y-22471870D01*
X2575800Y-23490016D02*
X3246192Y-24160408D01*
X2575800Y-17125800D02*
X2575800Y-23490016D01*
X1346200Y-10718800D02*
X1955800Y-10718800D01*
X1305800Y-17125800D02*
X1305800Y-10678400D01*
X1305800Y-10678400D02*
X1346200Y-10718800D01*
X-6260000Y1417919D02*
X-6260000Y80000D01*
X-6260000Y2620000D02*
X-6260000Y1417919D01*
X-1466010Y7413990D02*
X-1676400Y26974800D01*
X-6260000Y2620000D02*
X-1466010Y7413990D01*
X-1676400Y26974800D02*
X-7264400Y26974800D01*
X-7264400Y26974800D02*
X-9448800Y29159200D01*
X-11379200Y29159200D02*
X-15240000Y33020000D01*
X-9448800Y29159200D02*
X-11379200Y29159200D01*
X-10585399Y-16427399D02*
X-10185400Y-16027400D01*
X-11962819Y-17804819D02*
X-10585399Y-16427399D01*
X-11962819Y-22657181D02*
X-11962819Y-17804819D01*
X-7614200Y-27005800D02*
X-11962819Y-22657181D01*
X-6364200Y-27005800D02*
X-7614200Y-27005800D01*
X-10185400Y-16027400D02*
X-8256410Y-16027400D01*
X-1016000Y-8786990D02*
X-1016000Y27787600D01*
X-8256410Y-16027400D02*
X-1016000Y-8786990D01*
X-7440790Y27787600D02*
X-9262400Y29609210D01*
X-1016000Y27787600D02*
X-7440790Y27787600D01*
X-9262400Y29609210D02*
X-11192800Y29609210D01*
X-11192800Y29609210D02*
X-13411200Y31827610D01*
X-13411200Y33731200D02*
X-15240000Y35560000D01*
X-13411200Y31827610D02*
X-13411200Y33731200D01*
X-10388600Y37102500D02*
X-10255901Y37235199D01*
X-10388600Y35560000D02*
X-10388600Y37102500D01*
X-15240000Y35560000D02*
X-10388600Y35560000D01*
X-7280901Y32263699D02*
X-7337400Y32207200D01*
X-7280901Y37235199D02*
X-7280901Y32263699D01*
D19*
G36*
X-17459423Y42647469D02*
G01*
X18016214Y42576184D01*
X18116869Y42585894D01*
X18133606Y42590934D01*
X18142717Y42590380D01*
X18272800Y42556306D01*
X18393785Y42497615D01*
X18501073Y42416538D01*
X18590561Y42316174D01*
X18658854Y42200334D01*
X18697206Y42090953D01*
X18695187Y42070369D01*
X18700264Y29530932D01*
X18710217Y29430300D01*
X18714913Y29414842D01*
X18714380Y29406083D01*
X18680306Y29276000D01*
X18621614Y29155013D01*
X18540540Y29047730D01*
X18440173Y28958239D01*
X18324335Y28889946D01*
X18189574Y28842697D01*
X18105834Y28828600D01*
X10559381Y28828600D01*
X10462417Y28819050D01*
X10440614Y28812436D01*
X10288498Y28786829D01*
X10238698Y28773340D01*
X10188404Y28761801D01*
X10179686Y28758813D01*
X9930651Y28671497D01*
X9876414Y28646296D01*
X9821807Y28621845D01*
X9813837Y28617220D01*
X9586504Y28483196D01*
X9538173Y28447925D01*
X9489376Y28413347D01*
X9482455Y28407263D01*
X9285485Y28231636D01*
X9244959Y28187686D01*
X9203772Y28144251D01*
X9198165Y28136937D01*
X9039059Y27926397D01*
X9007801Y27875345D01*
X8975879Y27824808D01*
X8971799Y27816545D01*
X8856616Y27579109D01*
X8835892Y27523019D01*
X8814369Y27467179D01*
X8811972Y27458281D01*
X8745102Y27202995D01*
X8735665Y27143935D01*
X8725401Y27084995D01*
X8724778Y27075801D01*
X8709590Y26825946D01*
X8707677Y26807242D01*
X8585483Y-5719539D01*
X8594669Y-5816538D01*
X8601557Y-5839554D01*
X8627371Y-5992902D01*
X8640862Y-6042709D01*
X8652399Y-6092997D01*
X8655387Y-6101714D01*
X8742704Y-6350749D01*
X8767902Y-6404981D01*
X8792355Y-6459592D01*
X8796980Y-6467563D01*
X8931004Y-6694896D01*
X8966246Y-6743186D01*
X9000852Y-6792024D01*
X9006937Y-6798944D01*
X9182564Y-6995915D01*
X9226514Y-7036441D01*
X9269949Y-7077628D01*
X9277262Y-7083235D01*
X9487803Y-7242341D01*
X9538846Y-7273593D01*
X9589392Y-7305521D01*
X9597655Y-7309601D01*
X9835091Y-7424784D01*
X9891181Y-7445508D01*
X9947021Y-7467031D01*
X9955919Y-7469428D01*
X10211205Y-7536298D01*
X10270253Y-7545733D01*
X10329204Y-7555999D01*
X10338399Y-7556622D01*
X10591091Y-7571982D01*
X10612651Y-7574000D01*
X17914703Y-7538447D01*
X18091917Y-7549220D01*
X18222000Y-7583294D01*
X18342985Y-7641985D01*
X18450273Y-7723062D01*
X18539761Y-7823426D01*
X18608054Y-7939266D01*
X18655303Y-8074022D01*
X18669532Y-8158551D01*
X18729613Y-33327032D01*
X-17598625Y-33372901D01*
X-17609965Y-28625800D01*
X-8002272Y-28625800D01*
X-7990012Y-28750282D01*
X-7953702Y-28869980D01*
X-7894737Y-28980294D01*
X-7815385Y-29076985D01*
X-7718694Y-29156337D01*
X-7608380Y-29215302D01*
X-7488682Y-29251612D01*
X-7364200Y-29263872D01*
X-6649950Y-29260800D01*
X-6491200Y-29102050D01*
X-6491200Y-28402800D01*
X-7840450Y-28402800D01*
X-7999200Y-28561550D01*
X-8002272Y-28625800D01*
X-17609965Y-28625800D01*
X-17658403Y-8349720D01*
X-17647580Y-8171683D01*
X-17613506Y-8041600D01*
X-17554815Y-7920615D01*
X-17473738Y-7813327D01*
X-17373374Y-7723839D01*
X-17257534Y-7655546D01*
X-17122778Y-7608297D01*
X-17039034Y-7594200D01*
X-9746581Y-7594200D01*
X-9649617Y-7584650D01*
X-9627814Y-7578036D01*
X-9475698Y-7552429D01*
X-9425891Y-7538938D01*
X-9375603Y-7527401D01*
X-9366886Y-7524413D01*
X-9117851Y-7437096D01*
X-9063619Y-7411898D01*
X-9009008Y-7387445D01*
X-9001037Y-7382820D01*
X-8773704Y-7248796D01*
X-8725414Y-7213554D01*
X-8676576Y-7178948D01*
X-8669656Y-7172863D01*
X-8472685Y-6997236D01*
X-8432159Y-6953286D01*
X-8390972Y-6909851D01*
X-8385365Y-6902538D01*
X-8226259Y-6691997D01*
X-8195007Y-6640954D01*
X-8163079Y-6590408D01*
X-8158999Y-6582145D01*
X-8043816Y-6344709D01*
X-8023092Y-6288619D01*
X-8001569Y-6232779D01*
X-7999172Y-6223881D01*
X-7932302Y-5968595D01*
X-7922867Y-5909547D01*
X-7912601Y-5850596D01*
X-7912561Y-5850000D01*
X-7748072Y-5850000D01*
X-7735812Y-5974482D01*
X-7699502Y-6094180D01*
X-7640537Y-6204494D01*
X-7561185Y-6301185D01*
X-7464494Y-6380537D01*
X-7354180Y-6439502D01*
X-7234482Y-6475812D01*
X-7110000Y-6488072D01*
X-6545750Y-6485000D01*
X-6387000Y-6326250D01*
X-6387000Y-5127000D01*
X-6133000Y-5127000D01*
X-6133000Y-6326250D01*
X-5974250Y-6485000D01*
X-5410000Y-6488072D01*
X-5285518Y-6475812D01*
X-5165820Y-6439502D01*
X-5055506Y-6380537D01*
X-4958815Y-6301185D01*
X-4879463Y-6204494D01*
X-4820498Y-6094180D01*
X-4784188Y-5974482D01*
X-4771928Y-5850000D01*
X-4775000Y-5285750D01*
X-4933750Y-5127000D01*
X-6133000Y-5127000D01*
X-6387000Y-5127000D01*
X-7586250Y-5127000D01*
X-7745000Y-5285750D01*
X-7748072Y-5850000D01*
X-7912561Y-5850000D01*
X-7911978Y-5841401D01*
X-7896680Y-5589733D01*
X-7894696Y-5569231D01*
X-7897130Y-4150000D01*
X-7748072Y-4150000D01*
X-7745000Y-4714250D01*
X-7586250Y-4873000D01*
X-6387000Y-4873000D01*
X-6387000Y-2587000D01*
X-6133000Y-2587000D01*
X-6133000Y-4873000D01*
X-4933750Y-4873000D01*
X-4775000Y-4714250D01*
X-4771928Y-4150000D01*
X-4784188Y-4025518D01*
X-4820498Y-3905820D01*
X-4879463Y-3795506D01*
X-4958815Y-3698815D01*
X-5055506Y-3619463D01*
X-5165820Y-3560498D01*
X-5246466Y-3536034D01*
X-5162412Y-3460269D01*
X-4988359Y-3226920D01*
X-4863175Y-2964099D01*
X-4818524Y-2816890D01*
X-4939845Y-2587000D01*
X-6133000Y-2587000D01*
X-6387000Y-2587000D01*
X-7580155Y-2587000D01*
X-7701476Y-2816890D01*
X-7656825Y-2964099D01*
X-7531641Y-3226920D01*
X-7357588Y-3460269D01*
X-7273534Y-3536034D01*
X-7354180Y-3560498D01*
X-7464494Y-3619463D01*
X-7561185Y-3698815D01*
X-7640537Y-3795506D01*
X-7699502Y-3905820D01*
X-7735812Y-4025518D01*
X-7748072Y-4150000D01*
X-7897130Y-4150000D01*
X-7949845Y26585443D01*
X-7828199Y26463797D01*
X-7804401Y26434799D01*
X-7775403Y26411001D01*
X-7688677Y26339826D01*
X-7564856Y26273642D01*
X-7556647Y26269254D01*
X-7413386Y26225797D01*
X-7301733Y26214800D01*
X-7301724Y26214800D01*
X-7264401Y26211124D01*
X-7227078Y26214800D01*
X-2428269Y26214800D01*
X-2229403Y7725399D01*
X-4775000Y5179801D01*
X-4775000Y5306260D01*
X-4832068Y5593158D01*
X-4944010Y5863411D01*
X-5106525Y6106632D01*
X-5313368Y6313475D01*
X-5487760Y6430000D01*
X-5313368Y6546525D01*
X-5106525Y6753368D01*
X-4944010Y6996589D01*
X-4832068Y7266842D01*
X-4775000Y7553740D01*
X-4775000Y7846260D01*
X-4832068Y8133158D01*
X-4944010Y8403411D01*
X-5106525Y8646632D01*
X-5313368Y8853475D01*
X-5487760Y8970000D01*
X-5313368Y9086525D01*
X-5106525Y9293368D01*
X-4944010Y9536589D01*
X-4832068Y9806842D01*
X-4775000Y10093740D01*
X-4775000Y10386260D01*
X-4832068Y10673158D01*
X-4944010Y10943411D01*
X-5106525Y11186632D01*
X-5313368Y11393475D01*
X-5487760Y11510000D01*
X-5313368Y11626525D01*
X-5106525Y11833368D01*
X-4944010Y12076589D01*
X-4832068Y12346842D01*
X-4775000Y12633740D01*
X-4775000Y12926260D01*
X-4832068Y13213158D01*
X-4944010Y13483411D01*
X-5106525Y13726632D01*
X-5313368Y13933475D01*
X-5487760Y14050000D01*
X-5313368Y14166525D01*
X-5106525Y14373368D01*
X-4944010Y14616589D01*
X-4832068Y14886842D01*
X-4775000Y15173740D01*
X-4775000Y15466260D01*
X-4832068Y15753158D01*
X-4944010Y16023411D01*
X-5106525Y16266632D01*
X-5313368Y16473475D01*
X-5487760Y16590000D01*
X-5313368Y16706525D01*
X-5106525Y16913368D01*
X-4944010Y17156589D01*
X-4832068Y17426842D01*
X-4775000Y17713740D01*
X-4775000Y18006260D01*
X-4832068Y18293158D01*
X-4944010Y18563411D01*
X-5106525Y18806632D01*
X-5313368Y19013475D01*
X-5487760Y19130000D01*
X-5313368Y19246525D01*
X-5106525Y19453368D01*
X-4944010Y19696589D01*
X-4832068Y19966842D01*
X-4775000Y20253740D01*
X-4775000Y20546260D01*
X-4832068Y20833158D01*
X-4944010Y21103411D01*
X-5106525Y21346632D01*
X-5313368Y21553475D01*
X-5487760Y21670000D01*
X-5313368Y21786525D01*
X-5106525Y21993368D01*
X-4944010Y22236589D01*
X-4832068Y22506842D01*
X-4775000Y22793740D01*
X-4775000Y23086260D01*
X-4832068Y23373158D01*
X-4944010Y23643411D01*
X-5106525Y23886632D01*
X-5313368Y24093475D01*
X-5556589Y24255990D01*
X-5826842Y24367932D01*
X-6113740Y24425000D01*
X-6406260Y24425000D01*
X-6693158Y24367932D01*
X-6963411Y24255990D01*
X-7206632Y24093475D01*
X-7413475Y23886632D01*
X-7575990Y23643411D01*
X-7687932Y23373158D01*
X-7745000Y23086260D01*
X-7745000Y22793740D01*
X-7687932Y22506842D01*
X-7575990Y22236589D01*
X-7413475Y21993368D01*
X-7206632Y21786525D01*
X-7032240Y21670000D01*
X-7206632Y21553475D01*
X-7413475Y21346632D01*
X-7575990Y21103411D01*
X-7687932Y20833158D01*
X-7745000Y20546260D01*
X-7745000Y20253740D01*
X-7687932Y19966842D01*
X-7575990Y19696589D01*
X-7413475Y19453368D01*
X-7206632Y19246525D01*
X-7032240Y19130000D01*
X-7206632Y19013475D01*
X-7413475Y18806632D01*
X-7575990Y18563411D01*
X-7687932Y18293158D01*
X-7745000Y18006260D01*
X-7745000Y17713740D01*
X-7687932Y17426842D01*
X-7575990Y17156589D01*
X-7413475Y16913368D01*
X-7206632Y16706525D01*
X-7032240Y16590000D01*
X-7206632Y16473475D01*
X-7413475Y16266632D01*
X-7575990Y16023411D01*
X-7687932Y15753158D01*
X-7745000Y15466260D01*
X-7745000Y15173740D01*
X-7687932Y14886842D01*
X-7575990Y14616589D01*
X-7413475Y14373368D01*
X-7206632Y14166525D01*
X-7032240Y14050000D01*
X-7206632Y13933475D01*
X-7413475Y13726632D01*
X-7575990Y13483411D01*
X-7687932Y13213158D01*
X-7745000Y12926260D01*
X-7745000Y12633740D01*
X-7687932Y12346842D01*
X-7575990Y12076589D01*
X-7413475Y11833368D01*
X-7206632Y11626525D01*
X-7032240Y11510000D01*
X-7206632Y11393475D01*
X-7413475Y11186632D01*
X-7575990Y10943411D01*
X-7687932Y10673158D01*
X-7745000Y10386260D01*
X-7745000Y10093740D01*
X-7687932Y9806842D01*
X-7575990Y9536589D01*
X-7413475Y9293368D01*
X-7206632Y9086525D01*
X-7032240Y8970000D01*
X-7206632Y8853475D01*
X-7413475Y8646632D01*
X-7575990Y8403411D01*
X-7687932Y8133158D01*
X-7745000Y7846260D01*
X-7745000Y7553740D01*
X-7687932Y7266842D01*
X-7575990Y6996589D01*
X-7413475Y6753368D01*
X-7206632Y6546525D01*
X-7032240Y6430000D01*
X-7206632Y6313475D01*
X-7413475Y6106632D01*
X-7575990Y5863411D01*
X-7687932Y5593158D01*
X-7745000Y5306260D01*
X-7745000Y5013740D01*
X-7687932Y4726842D01*
X-7575990Y4456589D01*
X-7413475Y4213368D01*
X-7206632Y4006525D01*
X-7032240Y3890000D01*
X-7206632Y3773475D01*
X-7413475Y3566632D01*
X-7575990Y3323411D01*
X-7687932Y3053158D01*
X-7745000Y2766260D01*
X-7745000Y2473740D01*
X-7687932Y2186842D01*
X-7575990Y1916589D01*
X-7413475Y1673368D01*
X-7206632Y1466525D01*
X-7032240Y1350000D01*
X-7206632Y1233475D01*
X-7413475Y1026632D01*
X-7575990Y783411D01*
X-7687932Y513158D01*
X-7745000Y226260D01*
X-7745000Y-66260D01*
X-7687932Y-353158D01*
X-7575990Y-623411D01*
X-7413475Y-866632D01*
X-7206632Y-1073475D01*
X-7024466Y-1195195D01*
X-7141355Y-1264822D01*
X-7357588Y-1459731D01*
X-7531641Y-1693080D01*
X-7656825Y-1955901D01*
X-7701476Y-2103110D01*
X-7580155Y-2333000D01*
X-6387000Y-2333000D01*
X-6387000Y-2313000D01*
X-6133000Y-2313000D01*
X-6133000Y-2333000D01*
X-4939845Y-2333000D01*
X-4818524Y-2103110D01*
X-4863175Y-1955901D01*
X-4988359Y-1693080D01*
X-5162412Y-1459731D01*
X-5378645Y-1264822D01*
X-5495534Y-1195195D01*
X-5313368Y-1073475D01*
X-5106525Y-866632D01*
X-4944010Y-623411D01*
X-4832068Y-353158D01*
X-4775000Y-66260D01*
X-4775000Y226260D01*
X-4832068Y513158D01*
X-4944010Y783411D01*
X-5106525Y1026632D01*
X-5313368Y1233475D01*
X-5487760Y1350000D01*
X-5313368Y1466525D01*
X-5106525Y1673368D01*
X-4944010Y1916589D01*
X-4832068Y2186842D01*
X-4775000Y2473740D01*
X-4775000Y2766260D01*
X-4818791Y2986408D01*
X-1776000Y6029199D01*
X-1776000Y-8472188D01*
X-8571211Y-15267400D01*
X-9481689Y-15267400D01*
X-9525626Y-15223463D01*
X-9695144Y-15110195D01*
X-9883502Y-15032174D01*
X-10083461Y-14992400D01*
X-10287339Y-14992400D01*
X-10487298Y-15032174D01*
X-10675656Y-15110195D01*
X-10845174Y-15223463D01*
X-10989337Y-15367626D01*
X-11102605Y-15537144D01*
X-11180626Y-15725502D01*
X-11220400Y-15925461D01*
X-11220400Y-15987598D01*
X-12473821Y-17241020D01*
X-12502819Y-17264818D01*
X-12526617Y-17293816D01*
X-12526618Y-17293817D01*
X-12597793Y-17380543D01*
X-12668365Y-17512573D01*
X-12679741Y-17550076D01*
X-12709421Y-17647923D01*
X-12711821Y-17655834D01*
X-12726495Y-17804819D01*
X-12722818Y-17842151D01*
X-12722819Y-22619858D01*
X-12726495Y-22657181D01*
X-12722819Y-22694503D01*
X-12722819Y-22694513D01*
X-12711822Y-22806166D01*
X-12672924Y-22934398D01*
X-12668365Y-22949427D01*
X-12597793Y-23081457D01*
X-12586707Y-23094965D01*
X-12502820Y-23197182D01*
X-12473816Y-23220985D01*
X-8177999Y-27516803D01*
X-8154201Y-27545801D01*
X-8125203Y-27569599D01*
X-8038477Y-27640774D01*
X-7962060Y-27681620D01*
X-7954868Y-27685464D01*
X-7990012Y-27801318D01*
X-8002272Y-27925800D01*
X-7999200Y-27990050D01*
X-7840450Y-28148800D01*
X-6491200Y-28148800D01*
X-6491200Y-28128800D01*
X-6237200Y-28128800D01*
X-6237200Y-28148800D01*
X-6217200Y-28148800D01*
X-6217200Y-28402800D01*
X-6237200Y-28402800D01*
X-6237200Y-29102050D01*
X-6078450Y-29260800D01*
X-5364200Y-29263872D01*
X-5239718Y-29251612D01*
X-5120020Y-29215302D01*
X-5009706Y-29156337D01*
X-4913015Y-29076985D01*
X-4833663Y-28980294D01*
X-4774698Y-28869980D01*
X-4738388Y-28750282D01*
X-4726128Y-28625800D01*
X-4729200Y-28561550D01*
X-4887948Y-28402802D01*
X-4729200Y-28402802D01*
X-4729200Y-28283227D01*
X-4630456Y-28349205D01*
X-4442098Y-28427226D01*
X-4242139Y-28467000D01*
X-4038261Y-28467000D01*
X-3838302Y-28427226D01*
X-3649944Y-28349205D01*
X-3480426Y-28235937D01*
X-3436489Y-28192000D01*
X-1053322Y-28192000D01*
X-1016000Y-28195676D01*
X-978678Y-28192000D01*
X-978667Y-28192000D01*
X-867014Y-28181003D01*
X-723753Y-28137546D01*
X-591724Y-28066974D01*
X-475999Y-27972001D01*
X-452196Y-27942998D01*
X561803Y-26928999D01*
X590801Y-26905201D01*
X617132Y-26873117D01*
X685774Y-26789477D01*
X756346Y-26657447D01*
X779376Y-26581525D01*
X799803Y-26514186D01*
X810800Y-26402533D01*
X810800Y-26402524D01*
X814476Y-26365201D01*
X810800Y-26327878D01*
X810800Y-18745388D01*
X831318Y-18751612D01*
X955800Y-18763872D01*
X1655800Y-18763872D01*
X1780282Y-18751612D01*
X1815800Y-18740838D01*
X1815801Y-23452684D01*
X1812124Y-23490016D01*
X1815801Y-23527349D01*
X1826798Y-23639002D01*
X1835114Y-23666417D01*
X1870254Y-23782262D01*
X1940826Y-23914292D01*
X2008691Y-23996985D01*
X2035800Y-24030017D01*
X2064797Y-24053815D01*
X2211192Y-24200210D01*
X2211192Y-24262347D01*
X2250966Y-24462306D01*
X2328987Y-24650664D01*
X2442255Y-24820182D01*
X2586418Y-24964345D01*
X2755936Y-25077613D01*
X2944294Y-25155634D01*
X3144253Y-25195408D01*
X3348131Y-25195408D01*
X3548090Y-25155634D01*
X3736448Y-25077613D01*
X3905966Y-24964345D01*
X3980270Y-24890041D01*
X4082496Y-24992267D01*
X4252014Y-25105535D01*
X4440372Y-25183556D01*
X4640331Y-25223330D01*
X4844209Y-25223330D01*
X5044168Y-25183556D01*
X5232526Y-25105535D01*
X5402044Y-24992267D01*
X5546207Y-24848104D01*
X5659475Y-24678586D01*
X5737496Y-24490228D01*
X5777270Y-24290269D01*
X5777270Y-24086391D01*
X5737496Y-23886432D01*
X5659475Y-23698074D01*
X5546207Y-23528556D01*
X5402044Y-23384393D01*
X5232526Y-23271125D01*
X5044168Y-23193104D01*
X5042532Y-23192779D01*
X5131395Y-23103916D01*
X5244663Y-22934398D01*
X5322684Y-22746040D01*
X5362458Y-22546081D01*
X5362458Y-22342203D01*
X5322684Y-22142244D01*
X5244663Y-21953886D01*
X5131395Y-21784368D01*
X4987232Y-21640205D01*
X4817714Y-21526937D01*
X4629356Y-21448916D01*
X4468400Y-21416900D01*
X4468400Y-20350801D01*
X5626803Y-19192399D01*
X5655801Y-19168601D01*
X5750774Y-19052876D01*
X5821346Y-18920847D01*
X5864803Y-18777586D01*
X5875800Y-18665933D01*
X5875800Y-18665924D01*
X5879476Y-18628601D01*
X5877578Y-18609326D01*
X5916985Y-18576985D01*
X5996337Y-18480294D01*
X6055302Y-18369980D01*
X6091612Y-18250282D01*
X6103872Y-18125800D01*
X6103872Y-16125800D01*
X6091612Y-16001318D01*
X6055302Y-15881620D01*
X5996337Y-15771306D01*
X5916985Y-15674615D01*
X5820294Y-15595263D01*
X5709980Y-15536298D01*
X5590282Y-15499988D01*
X5465800Y-15487728D01*
X4765800Y-15487728D01*
X4641318Y-15499988D01*
X4521620Y-15536298D01*
X4480800Y-15558117D01*
X4439980Y-15536298D01*
X4320282Y-15499988D01*
X4195800Y-15487728D01*
X3495800Y-15487728D01*
X3371318Y-15499988D01*
X3251620Y-15536298D01*
X3210800Y-15558117D01*
X3169980Y-15536298D01*
X3050282Y-15499988D01*
X2925800Y-15487728D01*
X2225800Y-15487728D01*
X2101318Y-15499988D01*
X2065800Y-15510762D01*
X2065800Y-11752197D01*
X2257698Y-11714026D01*
X2446056Y-11636005D01*
X2615574Y-11522737D01*
X2686756Y-11451555D01*
X8307601Y-17072402D01*
X8307600Y-18397728D01*
X6735800Y-18397728D01*
X6611318Y-18409988D01*
X6491620Y-18446298D01*
X6381306Y-18505263D01*
X6284615Y-18584615D01*
X6205263Y-18681306D01*
X6146298Y-18791620D01*
X6109988Y-18911318D01*
X6097728Y-19035800D01*
X6097728Y-19735800D01*
X6109988Y-19860282D01*
X6146298Y-19979980D01*
X6168117Y-20020800D01*
X6146298Y-20061620D01*
X6109988Y-20181318D01*
X6097728Y-20305800D01*
X6097728Y-21005800D01*
X6109988Y-21130282D01*
X6146298Y-21249980D01*
X6168117Y-21290800D01*
X6146298Y-21331620D01*
X6109988Y-21451318D01*
X6097728Y-21575800D01*
X6097728Y-22275800D01*
X6109988Y-22400282D01*
X6146298Y-22519980D01*
X6168117Y-22560800D01*
X6146298Y-22601620D01*
X6109988Y-22721318D01*
X6097728Y-22845800D01*
X6097728Y-23545800D01*
X6109988Y-23670282D01*
X6146298Y-23789980D01*
X6168117Y-23830800D01*
X6146298Y-23871620D01*
X6109988Y-23991318D01*
X6097728Y-24115800D01*
X6097728Y-24815800D01*
X6109988Y-24940282D01*
X6146298Y-25059980D01*
X6168117Y-25100800D01*
X6146298Y-25141620D01*
X6109988Y-25261318D01*
X6097728Y-25385800D01*
X6097728Y-26085800D01*
X6109988Y-26210282D01*
X6146298Y-26329980D01*
X6168117Y-26370800D01*
X6146298Y-26411620D01*
X6109988Y-26531318D01*
X6097728Y-26655800D01*
X6097728Y-27355800D01*
X6109988Y-27480282D01*
X6146298Y-27599980D01*
X6168117Y-27640800D01*
X6146298Y-27681620D01*
X6109988Y-27801318D01*
X6097728Y-27925800D01*
X6097728Y-28625800D01*
X6109988Y-28750282D01*
X6146298Y-28869980D01*
X6205263Y-28980294D01*
X6284615Y-29076985D01*
X6381306Y-29156337D01*
X6491620Y-29215302D01*
X6611318Y-29251612D01*
X6735800Y-29263872D01*
X8735800Y-29263872D01*
X8860282Y-29251612D01*
X8979980Y-29215302D01*
X9090294Y-29156337D01*
X9186985Y-29076985D01*
X9261306Y-28986424D01*
X9278047Y-28981346D01*
X9410076Y-28910774D01*
X9525801Y-28815801D01*
X9549604Y-28786797D01*
X12728672Y-25607730D01*
X12757665Y-25583936D01*
X12781459Y-25554943D01*
X12781463Y-25554939D01*
X12852638Y-25468213D01*
X12923210Y-25336183D01*
X12936792Y-25291408D01*
X12966667Y-25192921D01*
X12977664Y-25081268D01*
X12977664Y-25081259D01*
X12981340Y-25043936D01*
X12977664Y-25006613D01*
X12977662Y-15475156D01*
X12981339Y-15437823D01*
X12966665Y-15288837D01*
X12923209Y-15145576D01*
X12852637Y-15013547D01*
X12781462Y-14926820D01*
X12781457Y-14926815D01*
X12757663Y-14897822D01*
X12728670Y-14874028D01*
X7020000Y-9165359D01*
X7020000Y-6488072D01*
X7110000Y-6488072D01*
X7234482Y-6475812D01*
X7354180Y-6439502D01*
X7464494Y-6380537D01*
X7561185Y-6301185D01*
X7640537Y-6204494D01*
X7699502Y-6094180D01*
X7735812Y-5974482D01*
X7748072Y-5850000D01*
X7748072Y-4150000D01*
X7735812Y-4025518D01*
X7699502Y-3905820D01*
X7640537Y-3795506D01*
X7561185Y-3698815D01*
X7464494Y-3619463D01*
X7354180Y-3560498D01*
X7281620Y-3538487D01*
X7413475Y-3406632D01*
X7575990Y-3163411D01*
X7687932Y-2893158D01*
X7745000Y-2606260D01*
X7745000Y-2313740D01*
X7687932Y-2026842D01*
X7575990Y-1756589D01*
X7413475Y-1513368D01*
X7206632Y-1306525D01*
X7032240Y-1190000D01*
X7206632Y-1073475D01*
X7413475Y-866632D01*
X7575990Y-623411D01*
X7687932Y-353158D01*
X7745000Y-66260D01*
X7745000Y226260D01*
X7687932Y513158D01*
X7575990Y783411D01*
X7413475Y1026632D01*
X7206632Y1233475D01*
X7032240Y1350000D01*
X7206632Y1466525D01*
X7413475Y1673368D01*
X7575990Y1916589D01*
X7687932Y2186842D01*
X7745000Y2473740D01*
X7745000Y2766260D01*
X7687932Y3053158D01*
X7575990Y3323411D01*
X7413475Y3566632D01*
X7206632Y3773475D01*
X7032240Y3890000D01*
X7206632Y4006525D01*
X7413475Y4213368D01*
X7575990Y4456589D01*
X7687932Y4726842D01*
X7745000Y5013740D01*
X7745000Y5306260D01*
X7687932Y5593158D01*
X7575990Y5863411D01*
X7413475Y6106632D01*
X7206632Y6313475D01*
X7032240Y6430000D01*
X7206632Y6546525D01*
X7413475Y6753368D01*
X7575990Y6996589D01*
X7687932Y7266842D01*
X7745000Y7553740D01*
X7745000Y7846260D01*
X7687932Y8133158D01*
X7575990Y8403411D01*
X7413475Y8646632D01*
X7206632Y8853475D01*
X7032240Y8970000D01*
X7206632Y9086525D01*
X7413475Y9293368D01*
X7575990Y9536589D01*
X7687932Y9806842D01*
X7745000Y10093740D01*
X7745000Y10386260D01*
X7687932Y10673158D01*
X7575990Y10943411D01*
X7413475Y11186632D01*
X7206632Y11393475D01*
X7032240Y11510000D01*
X7206632Y11626525D01*
X7413475Y11833368D01*
X7575990Y12076589D01*
X7687932Y12346842D01*
X7745000Y12633740D01*
X7745000Y12926260D01*
X7687932Y13213158D01*
X7575990Y13483411D01*
X7413475Y13726632D01*
X7206632Y13933475D01*
X7032240Y14050000D01*
X7206632Y14166525D01*
X7413475Y14373368D01*
X7575990Y14616589D01*
X7687932Y14886842D01*
X7745000Y15173740D01*
X7745000Y15466260D01*
X7687932Y15753158D01*
X7575990Y16023411D01*
X7413475Y16266632D01*
X7206632Y16473475D01*
X7032240Y16590000D01*
X7206632Y16706525D01*
X7413475Y16913368D01*
X7575990Y17156589D01*
X7687932Y17426842D01*
X7745000Y17713740D01*
X7745000Y18006260D01*
X7687932Y18293158D01*
X7575990Y18563411D01*
X7413475Y18806632D01*
X7206632Y19013475D01*
X7032240Y19130000D01*
X7206632Y19246525D01*
X7413475Y19453368D01*
X7575990Y19696589D01*
X7687932Y19966842D01*
X7745000Y20253740D01*
X7745000Y20546260D01*
X7687932Y20833158D01*
X7575990Y21103411D01*
X7413475Y21346632D01*
X7206632Y21553475D01*
X7032240Y21670000D01*
X7206632Y21786525D01*
X7413475Y21993368D01*
X7575990Y22236589D01*
X7687932Y22506842D01*
X7745000Y22793740D01*
X7745000Y23086260D01*
X7687932Y23373158D01*
X7575990Y23643411D01*
X7413475Y23886632D01*
X7206632Y24093475D01*
X6963411Y24255990D01*
X6693158Y24367932D01*
X6406260Y24425000D01*
X6113740Y24425000D01*
X5826842Y24367932D01*
X5556589Y24255990D01*
X5313368Y24093475D01*
X5106525Y23886632D01*
X4944010Y23643411D01*
X4832068Y23373158D01*
X4775000Y23086260D01*
X4775000Y22793740D01*
X4832068Y22506842D01*
X4944010Y22236589D01*
X5106525Y21993368D01*
X5313368Y21786525D01*
X5487760Y21670000D01*
X5313368Y21553475D01*
X5106525Y21346632D01*
X4944010Y21103411D01*
X4832068Y20833158D01*
X4775000Y20546260D01*
X4775000Y20253740D01*
X4832068Y19966842D01*
X4944010Y19696589D01*
X5106525Y19453368D01*
X5313368Y19246525D01*
X5487760Y19130000D01*
X5313368Y19013475D01*
X5106525Y18806632D01*
X4944010Y18563411D01*
X4832068Y18293158D01*
X4775000Y18006260D01*
X4775000Y17713740D01*
X4832068Y17426842D01*
X4944010Y17156589D01*
X5106525Y16913368D01*
X5313368Y16706525D01*
X5487760Y16590000D01*
X5313368Y16473475D01*
X5106525Y16266632D01*
X4944010Y16023411D01*
X4832068Y15753158D01*
X4775000Y15466260D01*
X4775000Y15173740D01*
X4832068Y14886842D01*
X4944010Y14616589D01*
X5106525Y14373368D01*
X5313368Y14166525D01*
X5487760Y14050000D01*
X5313368Y13933475D01*
X5106525Y13726632D01*
X4944010Y13483411D01*
X4832068Y13213158D01*
X4775000Y12926260D01*
X4775000Y12633740D01*
X4818790Y12413593D01*
X741790Y8336591D01*
X741790Y33729191D01*
X1175598Y34162998D01*
X1200148Y34162998D01*
X1041400Y34004250D01*
X1038328Y33426400D01*
X1050588Y33301918D01*
X1086898Y33182220D01*
X1145863Y33071906D01*
X1225215Y32975215D01*
X1321906Y32895863D01*
X1432220Y32836898D01*
X1551918Y32800588D01*
X1676400Y32788328D01*
X2254250Y32791400D01*
X2413000Y32950150D01*
X2413000Y34163000D01*
X2393000Y34163000D01*
X2393000Y34417000D01*
X2413000Y34417000D01*
X2413000Y34437000D01*
X2667000Y34437000D01*
X2667000Y34417000D01*
X2687000Y34417000D01*
X2687000Y34163000D01*
X2667000Y34163000D01*
X2667000Y32950150D01*
X2825750Y32791400D01*
X3403600Y32788328D01*
X3528082Y32800588D01*
X3647780Y32836898D01*
X3758094Y32895863D01*
X3854785Y32975215D01*
X3934137Y33071906D01*
X3993102Y33182220D01*
X4010636Y33240023D01*
X4124698Y33125961D01*
X4370147Y32961958D01*
X4642875Y32848990D01*
X4932401Y32791400D01*
X5227599Y32791400D01*
X5517125Y32848990D01*
X5789853Y32961958D01*
X6035302Y33125961D01*
X6244039Y33334698D01*
X6350000Y33493281D01*
X6455961Y33334698D01*
X6664698Y33125961D01*
X6910147Y32961958D01*
X7182875Y32848990D01*
X7472401Y32791400D01*
X7767599Y32791400D01*
X8057125Y32848990D01*
X8329853Y32961958D01*
X8575302Y33125961D01*
X8784039Y33334698D01*
X8890000Y33493281D01*
X8995961Y33334698D01*
X9204698Y33125961D01*
X9450147Y32961958D01*
X9722875Y32848990D01*
X10012401Y32791400D01*
X10307599Y32791400D01*
X10597125Y32848990D01*
X10869853Y32961958D01*
X11115302Y33125961D01*
X11324039Y33334698D01*
X11430000Y33493281D01*
X11535961Y33334698D01*
X11744698Y33125961D01*
X11990147Y32961958D01*
X12262875Y32848990D01*
X12552401Y32791400D01*
X12847599Y32791400D01*
X13137125Y32848990D01*
X13409853Y32961958D01*
X13655302Y33125961D01*
X13864039Y33334698D01*
X14028042Y33580147D01*
X14141010Y33852875D01*
X14198600Y34142401D01*
X14198600Y34437599D01*
X14141010Y34727125D01*
X14028042Y34999853D01*
X13864039Y35245302D01*
X13655302Y35454039D01*
X13496719Y35560000D01*
X13655302Y35665961D01*
X13864039Y35874698D01*
X14028042Y36120147D01*
X14141010Y36392875D01*
X14198600Y36682401D01*
X14198600Y36977599D01*
X14141010Y37267125D01*
X14028042Y37539853D01*
X13864039Y37785302D01*
X13655302Y37994039D01*
X13409853Y38158042D01*
X13137125Y38271010D01*
X12847599Y38328600D01*
X12552401Y38328600D01*
X12262875Y38271010D01*
X11990147Y38158042D01*
X11744698Y37994039D01*
X11535961Y37785302D01*
X11430000Y37626719D01*
X11324039Y37785302D01*
X11115302Y37994039D01*
X10869853Y38158042D01*
X10597125Y38271010D01*
X10307599Y38328600D01*
X10012401Y38328600D01*
X9722875Y38271010D01*
X9450147Y38158042D01*
X9204698Y37994039D01*
X8995961Y37785302D01*
X8890000Y37626719D01*
X8784039Y37785302D01*
X8575302Y37994039D01*
X8329853Y38158042D01*
X8057125Y38271010D01*
X7767599Y38328600D01*
X7472401Y38328600D01*
X7182875Y38271010D01*
X6910147Y38158042D01*
X6715769Y38028163D01*
X6214332Y38529599D01*
X6190530Y38558602D01*
X6074805Y38653575D01*
X5942776Y38724147D01*
X5799515Y38767604D01*
X5687862Y38778601D01*
X5687851Y38778601D01*
X5650529Y38782277D01*
X5613207Y38778601D01*
X2006796Y38778601D01*
X1969471Y38782277D01*
X1932146Y38778601D01*
X1932138Y38778601D01*
X1820485Y38767604D01*
X1677224Y38724147D01*
X1545195Y38653575D01*
X1429470Y38558602D01*
X1405672Y38529604D01*
X-979222Y36144709D01*
X-1008220Y36120911D01*
X-1032018Y36091913D01*
X-1032019Y36091912D01*
X-1103194Y36005186D01*
X-1173766Y35873156D01*
X-1199073Y35789727D01*
X-1217222Y35729896D01*
X-1219550Y35706260D01*
X-1231896Y35580910D01*
X-1228219Y35543577D01*
X-1228219Y28547600D01*
X-7125988Y28547600D01*
X-8698596Y30120207D01*
X-8722399Y30149211D01*
X-8838124Y30244184D01*
X-8970153Y30314756D01*
X-9113414Y30358213D01*
X-9225067Y30369210D01*
X-9225078Y30369210D01*
X-9262400Y30372886D01*
X-9299722Y30369210D01*
X-10877998Y30369210D01*
X-11243825Y30735037D01*
X-11149382Y30706388D01*
X-11024900Y30694128D01*
X-10598150Y30697200D01*
X-10439400Y30855950D01*
X-10439400Y32080200D01*
X-10185400Y32080200D01*
X-10185400Y30855950D01*
X-10026650Y30697200D01*
X-9599900Y30694128D01*
X-9475418Y30706388D01*
X-9355720Y30742698D01*
X-9245406Y30801663D01*
X-9148715Y30881015D01*
X-9069363Y30977706D01*
X-9010398Y31088020D01*
X-8974088Y31207718D01*
X-8961828Y31332200D01*
X-8964900Y31921450D01*
X-9123650Y32080200D01*
X-10185400Y32080200D01*
X-10439400Y32080200D01*
X-11501150Y32080200D01*
X-11659900Y31921450D01*
X-11662972Y31332200D01*
X-11650712Y31207718D01*
X-11622063Y31113274D01*
X-12651200Y32142411D01*
X-12651200Y33082200D01*
X-11662972Y33082200D01*
X-11659900Y32492950D01*
X-11501150Y32334200D01*
X-10439400Y32334200D01*
X-10439400Y33558450D01*
X-10185400Y33558450D01*
X-10185400Y32334200D01*
X-9123650Y32334200D01*
X-8964900Y32492950D01*
X-8963132Y32832200D01*
X-8687972Y32832200D01*
X-8687972Y31582200D01*
X-8670908Y31408946D01*
X-8620372Y31242350D01*
X-8538305Y31088814D01*
X-8427862Y30954238D01*
X-8293286Y30843795D01*
X-8139750Y30761728D01*
X-7973154Y30711192D01*
X-7799900Y30694128D01*
X-6874900Y30694128D01*
X-6701646Y30711192D01*
X-6535050Y30761728D01*
X-6381514Y30843795D01*
X-6246938Y30954238D01*
X-6136495Y31088814D01*
X-6054428Y31242350D01*
X-6003892Y31408946D01*
X-5986828Y31582200D01*
X-5986828Y32832200D01*
X-6003892Y33005454D01*
X-6054428Y33172050D01*
X-6136495Y33325586D01*
X-6246938Y33460162D01*
X-6381514Y33570605D01*
X-6520901Y33645109D01*
X-6520901Y35776880D01*
X-6478551Y35789727D01*
X-6325015Y35871794D01*
X-6190439Y35982237D01*
X-6079996Y36116813D01*
X-5997929Y36270349D01*
X-5947393Y36436945D01*
X-5930329Y36610199D01*
X-5930329Y37860199D01*
X-5947393Y38033453D01*
X-5997929Y38200049D01*
X-6079996Y38353585D01*
X-6190439Y38488161D01*
X-6325015Y38598604D01*
X-6478551Y38680671D01*
X-6645147Y38731207D01*
X-6818401Y38748271D01*
X-7743401Y38748271D01*
X-7916655Y38731207D01*
X-8083251Y38680671D01*
X-8236787Y38598604D01*
X-8371363Y38488161D01*
X-8481806Y38353585D01*
X-8563873Y38200049D01*
X-8614409Y38033453D01*
X-8631473Y37860199D01*
X-8631473Y36610199D01*
X-8614409Y36436945D01*
X-8563873Y36270349D01*
X-8481806Y36116813D01*
X-8371363Y35982237D01*
X-8236787Y35871794D01*
X-8083251Y35789727D01*
X-8040901Y35776880D01*
X-8040900Y33682658D01*
X-8139750Y33652672D01*
X-8293286Y33570605D01*
X-8427862Y33460162D01*
X-8538305Y33325586D01*
X-8620372Y33172050D01*
X-8670908Y33005454D01*
X-8687972Y32832200D01*
X-8963132Y32832200D01*
X-8961828Y33082200D01*
X-8974088Y33206682D01*
X-9010398Y33326380D01*
X-9069363Y33436694D01*
X-9148715Y33533385D01*
X-9245406Y33612737D01*
X-9355720Y33671702D01*
X-9475418Y33708012D01*
X-9599900Y33720272D01*
X-10026650Y33717200D01*
X-10185400Y33558450D01*
X-10439400Y33558450D01*
X-10598150Y33717200D01*
X-11024900Y33720272D01*
X-11149382Y33708012D01*
X-11269080Y33671702D01*
X-11379394Y33612737D01*
X-11476085Y33533385D01*
X-11555437Y33436694D01*
X-11614402Y33326380D01*
X-11650712Y33206682D01*
X-11662972Y33082200D01*
X-12651200Y33082200D01*
X-12651200Y33693875D01*
X-12647524Y33731200D01*
X-12651200Y33768525D01*
X-12651200Y33768533D01*
X-12662197Y33880186D01*
X-12705654Y34023447D01*
X-12776226Y34155476D01*
X-12871199Y34271201D01*
X-12900197Y34294999D01*
X-13405198Y34800000D01*
X-11092311Y34800000D01*
X-11048374Y34756063D01*
X-10878856Y34642795D01*
X-10690498Y34564774D01*
X-10490539Y34525000D01*
X-10286661Y34525000D01*
X-10086702Y34564774D01*
X-9898344Y34642795D01*
X-9728826Y34756063D01*
X-9584663Y34900226D01*
X-9471395Y35069744D01*
X-9393374Y35258102D01*
X-9353600Y35458061D01*
X-9353600Y35661939D01*
X-9386181Y35825737D01*
X-9300015Y35871794D01*
X-9165439Y35982237D01*
X-9054996Y36116813D01*
X-8972929Y36270349D01*
X-8922393Y36436945D01*
X-8905329Y36610199D01*
X-8905329Y37860199D01*
X-8922393Y38033453D01*
X-8972929Y38200049D01*
X-9054996Y38353585D01*
X-9165439Y38488161D01*
X-9300015Y38598604D01*
X-9453551Y38680671D01*
X-9620147Y38731207D01*
X-9793401Y38748271D01*
X-10718401Y38748271D01*
X-10891655Y38731207D01*
X-11058251Y38680671D01*
X-11211787Y38598604D01*
X-11346363Y38488161D01*
X-11456806Y38353585D01*
X-11538873Y38200049D01*
X-11589409Y38033453D01*
X-11606473Y37860199D01*
X-11606473Y36610199D01*
X-11589409Y36436945D01*
X-11553934Y36320000D01*
X-13961822Y36320000D01*
X-14086525Y36506632D01*
X-14218380Y36638487D01*
X-14145820Y36660498D01*
X-14035506Y36719463D01*
X-13938815Y36798815D01*
X-13859463Y36895506D01*
X-13800498Y37005820D01*
X-13764188Y37125518D01*
X-13751928Y37250000D01*
X-13751928Y38950000D01*
X-13764188Y39074482D01*
X-13800498Y39194180D01*
X-13859463Y39304494D01*
X-13938815Y39401185D01*
X-14035506Y39480537D01*
X-14145820Y39539502D01*
X-14265518Y39575812D01*
X-14390000Y39588072D01*
X-16090000Y39588072D01*
X-16214482Y39575812D01*
X-16334180Y39539502D01*
X-16444494Y39480537D01*
X-16541185Y39401185D01*
X-16620537Y39304494D01*
X-16679502Y39194180D01*
X-16715812Y39074482D01*
X-16728072Y38950000D01*
X-16728072Y37250000D01*
X-16715812Y37125518D01*
X-16679502Y37005820D01*
X-16620537Y36895506D01*
X-16541185Y36798815D01*
X-16444494Y36719463D01*
X-16334180Y36660498D01*
X-16261620Y36638487D01*
X-16393475Y36506632D01*
X-16555990Y36263411D01*
X-16667932Y35993158D01*
X-16725000Y35706260D01*
X-16725000Y35413740D01*
X-16667932Y35126842D01*
X-16555990Y34856589D01*
X-16393475Y34613368D01*
X-16186632Y34406525D01*
X-16012240Y34290000D01*
X-16186632Y34173475D01*
X-16393475Y33966632D01*
X-16555990Y33723411D01*
X-16667932Y33453158D01*
X-16725000Y33166260D01*
X-16725000Y32873740D01*
X-16667932Y32586842D01*
X-16555990Y32316589D01*
X-16393475Y32073368D01*
X-16186632Y31866525D01*
X-15943411Y31704010D01*
X-15673158Y31592068D01*
X-15386260Y31535000D01*
X-15093740Y31535000D01*
X-14873592Y31578791D01*
X-12201591Y28906789D01*
X-17227761Y28899778D01*
X-17406117Y28910620D01*
X-17536200Y28944694D01*
X-17657187Y29003386D01*
X-17764470Y29084460D01*
X-17853961Y29184827D01*
X-17922254Y29300665D01*
X-17960606Y29410049D01*
X-17958587Y29430631D01*
X-17963664Y41970068D01*
X-17973617Y42070700D01*
X-17978313Y42086158D01*
X-17977780Y42094917D01*
X-17943706Y42225000D01*
X-17885015Y42345985D01*
X-17803938Y42453273D01*
X-17703574Y42542761D01*
X-17587734Y42611054D01*
X-17478428Y42649380D01*
X-17459423Y42647469D01*
G37*
X-17459423Y42647469D02*
X18016214Y42576184D01*
X18116869Y42585894D01*
X18133606Y42590934D01*
X18142717Y42590380D01*
X18272800Y42556306D01*
X18393785Y42497615D01*
X18501073Y42416538D01*
X18590561Y42316174D01*
X18658854Y42200334D01*
X18697206Y42090953D01*
X18695187Y42070369D01*
X18700264Y29530932D01*
X18710217Y29430300D01*
X18714913Y29414842D01*
X18714380Y29406083D01*
X18680306Y29276000D01*
X18621614Y29155013D01*
X18540540Y29047730D01*
X18440173Y28958239D01*
X18324335Y28889946D01*
X18189574Y28842697D01*
X18105834Y28828600D01*
X10559381Y28828600D01*
X10462417Y28819050D01*
X10440614Y28812436D01*
X10288498Y28786829D01*
X10238698Y28773340D01*
X10188404Y28761801D01*
X10179686Y28758813D01*
X9930651Y28671497D01*
X9876414Y28646296D01*
X9821807Y28621845D01*
X9813837Y28617220D01*
X9586504Y28483196D01*
X9538173Y28447925D01*
X9489376Y28413347D01*
X9482455Y28407263D01*
X9285485Y28231636D01*
X9244959Y28187686D01*
X9203772Y28144251D01*
X9198165Y28136937D01*
X9039059Y27926397D01*
X9007801Y27875345D01*
X8975879Y27824808D01*
X8971799Y27816545D01*
X8856616Y27579109D01*
X8835892Y27523019D01*
X8814369Y27467179D01*
X8811972Y27458281D01*
X8745102Y27202995D01*
X8735665Y27143935D01*
X8725401Y27084995D01*
X8724778Y27075801D01*
X8709590Y26825946D01*
X8707677Y26807242D01*
X8585483Y-5719539D01*
X8594669Y-5816538D01*
X8601557Y-5839554D01*
X8627371Y-5992902D01*
X8640862Y-6042709D01*
X8652399Y-6092997D01*
X8655387Y-6101714D01*
X8742704Y-6350749D01*
X8767902Y-6404981D01*
X8792355Y-6459592D01*
X8796980Y-6467563D01*
X8931004Y-6694896D01*
X8966246Y-6743186D01*
X9000852Y-6792024D01*
X9006937Y-6798944D01*
X9182564Y-6995915D01*
X9226514Y-7036441D01*
X9269949Y-7077628D01*
X9277262Y-7083235D01*
X9487803Y-7242341D01*
X9538846Y-7273593D01*
X9589392Y-7305521D01*
X9597655Y-7309601D01*
X9835091Y-7424784D01*
X9891181Y-7445508D01*
X9947021Y-7467031D01*
X9955919Y-7469428D01*
X10211205Y-7536298D01*
X10270253Y-7545733D01*
X10329204Y-7555999D01*
X10338399Y-7556622D01*
X10591091Y-7571982D01*
X10612651Y-7574000D01*
X17914703Y-7538447D01*
X18091917Y-7549220D01*
X18222000Y-7583294D01*
X18342985Y-7641985D01*
X18450273Y-7723062D01*
X18539761Y-7823426D01*
X18608054Y-7939266D01*
X18655303Y-8074022D01*
X18669532Y-8158551D01*
X18729613Y-33327032D01*
X-17598625Y-33372901D01*
X-17609965Y-28625800D01*
X-8002272Y-28625800D01*
X-7990012Y-28750282D01*
X-7953702Y-28869980D01*
X-7894737Y-28980294D01*
X-7815385Y-29076985D01*
X-7718694Y-29156337D01*
X-7608380Y-29215302D01*
X-7488682Y-29251612D01*
X-7364200Y-29263872D01*
X-6649950Y-29260800D01*
X-6491200Y-29102050D01*
X-6491200Y-28402800D01*
X-7840450Y-28402800D01*
X-7999200Y-28561550D01*
X-8002272Y-28625800D01*
X-17609965Y-28625800D01*
X-17658403Y-8349720D01*
X-17647580Y-8171683D01*
X-17613506Y-8041600D01*
X-17554815Y-7920615D01*
X-17473738Y-7813327D01*
X-17373374Y-7723839D01*
X-17257534Y-7655546D01*
X-17122778Y-7608297D01*
X-17039034Y-7594200D01*
X-9746581Y-7594200D01*
X-9649617Y-7584650D01*
X-9627814Y-7578036D01*
X-9475698Y-7552429D01*
X-9425891Y-7538938D01*
X-9375603Y-7527401D01*
X-9366886Y-7524413D01*
X-9117851Y-7437096D01*
X-9063619Y-7411898D01*
X-9009008Y-7387445D01*
X-9001037Y-7382820D01*
X-8773704Y-7248796D01*
X-8725414Y-7213554D01*
X-8676576Y-7178948D01*
X-8669656Y-7172863D01*
X-8472685Y-6997236D01*
X-8432159Y-6953286D01*
X-8390972Y-6909851D01*
X-8385365Y-6902538D01*
X-8226259Y-6691997D01*
X-8195007Y-6640954D01*
X-8163079Y-6590408D01*
X-8158999Y-6582145D01*
X-8043816Y-6344709D01*
X-8023092Y-6288619D01*
X-8001569Y-6232779D01*
X-7999172Y-6223881D01*
X-7932302Y-5968595D01*
X-7922867Y-5909547D01*
X-7912601Y-5850596D01*
X-7912561Y-5850000D01*
X-7748072Y-5850000D01*
X-7735812Y-5974482D01*
X-7699502Y-6094180D01*
X-7640537Y-6204494D01*
X-7561185Y-6301185D01*
X-7464494Y-6380537D01*
X-7354180Y-6439502D01*
X-7234482Y-6475812D01*
X-7110000Y-6488072D01*
X-6545750Y-6485000D01*
X-6387000Y-6326250D01*
X-6387000Y-5127000D01*
X-6133000Y-5127000D01*
X-6133000Y-6326250D01*
X-5974250Y-6485000D01*
X-5410000Y-6488072D01*
X-5285518Y-6475812D01*
X-5165820Y-6439502D01*
X-5055506Y-6380537D01*
X-4958815Y-6301185D01*
X-4879463Y-6204494D01*
X-4820498Y-6094180D01*
X-4784188Y-5974482D01*
X-4771928Y-5850000D01*
X-4775000Y-5285750D01*
X-4933750Y-5127000D01*
X-6133000Y-5127000D01*
X-6387000Y-5127000D01*
X-7586250Y-5127000D01*
X-7745000Y-5285750D01*
X-7748072Y-5850000D01*
X-7912561Y-5850000D01*
X-7911978Y-5841401D01*
X-7896680Y-5589733D01*
X-7894696Y-5569231D01*
X-7897130Y-4150000D01*
X-7748072Y-4150000D01*
X-7745000Y-4714250D01*
X-7586250Y-4873000D01*
X-6387000Y-4873000D01*
X-6387000Y-2587000D01*
X-6133000Y-2587000D01*
X-6133000Y-4873000D01*
X-4933750Y-4873000D01*
X-4775000Y-4714250D01*
X-4771928Y-4150000D01*
X-4784188Y-4025518D01*
X-4820498Y-3905820D01*
X-4879463Y-3795506D01*
X-4958815Y-3698815D01*
X-5055506Y-3619463D01*
X-5165820Y-3560498D01*
X-5246466Y-3536034D01*
X-5162412Y-3460269D01*
X-4988359Y-3226920D01*
X-4863175Y-2964099D01*
X-4818524Y-2816890D01*
X-4939845Y-2587000D01*
X-6133000Y-2587000D01*
X-6387000Y-2587000D01*
X-7580155Y-2587000D01*
X-7701476Y-2816890D01*
X-7656825Y-2964099D01*
X-7531641Y-3226920D01*
X-7357588Y-3460269D01*
X-7273534Y-3536034D01*
X-7354180Y-3560498D01*
X-7464494Y-3619463D01*
X-7561185Y-3698815D01*
X-7640537Y-3795506D01*
X-7699502Y-3905820D01*
X-7735812Y-4025518D01*
X-7748072Y-4150000D01*
X-7897130Y-4150000D01*
X-7949845Y26585443D01*
X-7828199Y26463797D01*
X-7804401Y26434799D01*
X-7775403Y26411001D01*
X-7688677Y26339826D01*
X-7564856Y26273642D01*
X-7556647Y26269254D01*
X-7413386Y26225797D01*
X-7301733Y26214800D01*
X-7301724Y26214800D01*
X-7264401Y26211124D01*
X-7227078Y26214800D01*
X-2428269Y26214800D01*
X-2229403Y7725399D01*
X-4775000Y5179801D01*
X-4775000Y5306260D01*
X-4832068Y5593158D01*
X-4944010Y5863411D01*
X-5106525Y6106632D01*
X-5313368Y6313475D01*
X-5487760Y6430000D01*
X-5313368Y6546525D01*
X-5106525Y6753368D01*
X-4944010Y6996589D01*
X-4832068Y7266842D01*
X-4775000Y7553740D01*
X-4775000Y7846260D01*
X-4832068Y8133158D01*
X-4944010Y8403411D01*
X-5106525Y8646632D01*
X-5313368Y8853475D01*
X-5487760Y8970000D01*
X-5313368Y9086525D01*
X-5106525Y9293368D01*
X-4944010Y9536589D01*
X-4832068Y9806842D01*
X-4775000Y10093740D01*
X-4775000Y10386260D01*
X-4832068Y10673158D01*
X-4944010Y10943411D01*
X-5106525Y11186632D01*
X-5313368Y11393475D01*
X-5487760Y11510000D01*
X-5313368Y11626525D01*
X-5106525Y11833368D01*
X-4944010Y12076589D01*
X-4832068Y12346842D01*
X-4775000Y12633740D01*
X-4775000Y12926260D01*
X-4832068Y13213158D01*
X-4944010Y13483411D01*
X-5106525Y13726632D01*
X-5313368Y13933475D01*
X-5487760Y14050000D01*
X-5313368Y14166525D01*
X-5106525Y14373368D01*
X-4944010Y14616589D01*
X-4832068Y14886842D01*
X-4775000Y15173740D01*
X-4775000Y15466260D01*
X-4832068Y15753158D01*
X-4944010Y16023411D01*
X-5106525Y16266632D01*
X-5313368Y16473475D01*
X-5487760Y16590000D01*
X-5313368Y16706525D01*
X-5106525Y16913368D01*
X-4944010Y17156589D01*
X-4832068Y17426842D01*
X-4775000Y17713740D01*
X-4775000Y18006260D01*
X-4832068Y18293158D01*
X-4944010Y18563411D01*
X-5106525Y18806632D01*
X-5313368Y19013475D01*
X-5487760Y19130000D01*
X-5313368Y19246525D01*
X-5106525Y19453368D01*
X-4944010Y19696589D01*
X-4832068Y19966842D01*
X-4775000Y20253740D01*
X-4775000Y20546260D01*
X-4832068Y20833158D01*
X-4944010Y21103411D01*
X-5106525Y21346632D01*
X-5313368Y21553475D01*
X-5487760Y21670000D01*
X-5313368Y21786525D01*
X-5106525Y21993368D01*
X-4944010Y22236589D01*
X-4832068Y22506842D01*
X-4775000Y22793740D01*
X-4775000Y23086260D01*
X-4832068Y23373158D01*
X-4944010Y23643411D01*
X-5106525Y23886632D01*
X-5313368Y24093475D01*
X-5556589Y24255990D01*
X-5826842Y24367932D01*
X-6113740Y24425000D01*
X-6406260Y24425000D01*
X-6693158Y24367932D01*
X-6963411Y24255990D01*
X-7206632Y24093475D01*
X-7413475Y23886632D01*
X-7575990Y23643411D01*
X-7687932Y23373158D01*
X-7745000Y23086260D01*
X-7745000Y22793740D01*
X-7687932Y22506842D01*
X-7575990Y22236589D01*
X-7413475Y21993368D01*
X-7206632Y21786525D01*
X-7032240Y21670000D01*
X-7206632Y21553475D01*
X-7413475Y21346632D01*
X-7575990Y21103411D01*
X-7687932Y20833158D01*
X-7745000Y20546260D01*
X-7745000Y20253740D01*
X-7687932Y19966842D01*
X-7575990Y19696589D01*
X-7413475Y19453368D01*
X-7206632Y19246525D01*
X-7032240Y19130000D01*
X-7206632Y19013475D01*
X-7413475Y18806632D01*
X-7575990Y18563411D01*
X-7687932Y18293158D01*
X-7745000Y18006260D01*
X-7745000Y17713740D01*
X-7687932Y17426842D01*
X-7575990Y17156589D01*
X-7413475Y16913368D01*
X-7206632Y16706525D01*
X-7032240Y16590000D01*
X-7206632Y16473475D01*
X-7413475Y16266632D01*
X-7575990Y16023411D01*
X-7687932Y15753158D01*
X-7745000Y15466260D01*
X-7745000Y15173740D01*
X-7687932Y14886842D01*
X-7575990Y14616589D01*
X-7413475Y14373368D01*
X-7206632Y14166525D01*
X-7032240Y14050000D01*
X-7206632Y13933475D01*
X-7413475Y13726632D01*
X-7575990Y13483411D01*
X-7687932Y13213158D01*
X-7745000Y12926260D01*
X-7745000Y12633740D01*
X-7687932Y12346842D01*
X-7575990Y12076589D01*
X-7413475Y11833368D01*
X-7206632Y11626525D01*
X-7032240Y11510000D01*
X-7206632Y11393475D01*
X-7413475Y11186632D01*
X-7575990Y10943411D01*
X-7687932Y10673158D01*
X-7745000Y10386260D01*
X-7745000Y10093740D01*
X-7687932Y9806842D01*
X-7575990Y9536589D01*
X-7413475Y9293368D01*
X-7206632Y9086525D01*
X-7032240Y8970000D01*
X-7206632Y8853475D01*
X-7413475Y8646632D01*
X-7575990Y8403411D01*
X-7687932Y8133158D01*
X-7745000Y7846260D01*
X-7745000Y7553740D01*
X-7687932Y7266842D01*
X-7575990Y6996589D01*
X-7413475Y6753368D01*
X-7206632Y6546525D01*
X-7032240Y6430000D01*
X-7206632Y6313475D01*
X-7413475Y6106632D01*
X-7575990Y5863411D01*
X-7687932Y5593158D01*
X-7745000Y5306260D01*
X-7745000Y5013740D01*
X-7687932Y4726842D01*
X-7575990Y4456589D01*
X-7413475Y4213368D01*
X-7206632Y4006525D01*
X-7032240Y3890000D01*
X-7206632Y3773475D01*
X-7413475Y3566632D01*
X-7575990Y3323411D01*
X-7687932Y3053158D01*
X-7745000Y2766260D01*
X-7745000Y2473740D01*
X-7687932Y2186842D01*
X-7575990Y1916589D01*
X-7413475Y1673368D01*
X-7206632Y1466525D01*
X-7032240Y1350000D01*
X-7206632Y1233475D01*
X-7413475Y1026632D01*
X-7575990Y783411D01*
X-7687932Y513158D01*
X-7745000Y226260D01*
X-7745000Y-66260D01*
X-7687932Y-353158D01*
X-7575990Y-623411D01*
X-7413475Y-866632D01*
X-7206632Y-1073475D01*
X-7024466Y-1195195D01*
X-7141355Y-1264822D01*
X-7357588Y-1459731D01*
X-7531641Y-1693080D01*
X-7656825Y-1955901D01*
X-7701476Y-2103110D01*
X-7580155Y-2333000D01*
X-6387000Y-2333000D01*
X-6387000Y-2313000D01*
X-6133000Y-2313000D01*
X-6133000Y-2333000D01*
X-4939845Y-2333000D01*
X-4818524Y-2103110D01*
X-4863175Y-1955901D01*
X-4988359Y-1693080D01*
X-5162412Y-1459731D01*
X-5378645Y-1264822D01*
X-5495534Y-1195195D01*
X-5313368Y-1073475D01*
X-5106525Y-866632D01*
X-4944010Y-623411D01*
X-4832068Y-353158D01*
X-4775000Y-66260D01*
X-4775000Y226260D01*
X-4832068Y513158D01*
X-4944010Y783411D01*
X-5106525Y1026632D01*
X-5313368Y1233475D01*
X-5487760Y1350000D01*
X-5313368Y1466525D01*
X-5106525Y1673368D01*
X-4944010Y1916589D01*
X-4832068Y2186842D01*
X-4775000Y2473740D01*
X-4775000Y2766260D01*
X-4818791Y2986408D01*
X-1776000Y6029199D01*
X-1776000Y-8472188D01*
X-8571211Y-15267400D01*
X-9481689Y-15267400D01*
X-9525626Y-15223463D01*
X-9695144Y-15110195D01*
X-9883502Y-15032174D01*
X-10083461Y-14992400D01*
X-10287339Y-14992400D01*
X-10487298Y-15032174D01*
X-10675656Y-15110195D01*
X-10845174Y-15223463D01*
X-10989337Y-15367626D01*
X-11102605Y-15537144D01*
X-11180626Y-15725502D01*
X-11220400Y-15925461D01*
X-11220400Y-15987598D01*
X-12473821Y-17241020D01*
X-12502819Y-17264818D01*
X-12526617Y-17293816D01*
X-12526618Y-17293817D01*
X-12597793Y-17380543D01*
X-12668365Y-17512573D01*
X-12679741Y-17550076D01*
X-12709421Y-17647923D01*
X-12711821Y-17655834D01*
X-12726495Y-17804819D01*
X-12722818Y-17842151D01*
X-12722819Y-22619858D01*
X-12726495Y-22657181D01*
X-12722819Y-22694503D01*
X-12722819Y-22694513D01*
X-12711822Y-22806166D01*
X-12672924Y-22934398D01*
X-12668365Y-22949427D01*
X-12597793Y-23081457D01*
X-12586707Y-23094965D01*
X-12502820Y-23197182D01*
X-12473816Y-23220985D01*
X-8177999Y-27516803D01*
X-8154201Y-27545801D01*
X-8125203Y-27569599D01*
X-8038477Y-27640774D01*
X-7962060Y-27681620D01*
X-7954868Y-27685464D01*
X-7990012Y-27801318D01*
X-8002272Y-27925800D01*
X-7999200Y-27990050D01*
X-7840450Y-28148800D01*
X-6491200Y-28148800D01*
X-6491200Y-28128800D01*
X-6237200Y-28128800D01*
X-6237200Y-28148800D01*
X-6217200Y-28148800D01*
X-6217200Y-28402800D01*
X-6237200Y-28402800D01*
X-6237200Y-29102050D01*
X-6078450Y-29260800D01*
X-5364200Y-29263872D01*
X-5239718Y-29251612D01*
X-5120020Y-29215302D01*
X-5009706Y-29156337D01*
X-4913015Y-29076985D01*
X-4833663Y-28980294D01*
X-4774698Y-28869980D01*
X-4738388Y-28750282D01*
X-4726128Y-28625800D01*
X-4729200Y-28561550D01*
X-4887948Y-28402802D01*
X-4729200Y-28402802D01*
X-4729200Y-28283227D01*
X-4630456Y-28349205D01*
X-4442098Y-28427226D01*
X-4242139Y-28467000D01*
X-4038261Y-28467000D01*
X-3838302Y-28427226D01*
X-3649944Y-28349205D01*
X-3480426Y-28235937D01*
X-3436489Y-28192000D01*
X-1053322Y-28192000D01*
X-1016000Y-28195676D01*
X-978678Y-28192000D01*
X-978667Y-28192000D01*
X-867014Y-28181003D01*
X-723753Y-28137546D01*
X-591724Y-28066974D01*
X-475999Y-27972001D01*
X-452196Y-27942998D01*
X561803Y-26928999D01*
X590801Y-26905201D01*
X617132Y-26873117D01*
X685774Y-26789477D01*
X756346Y-26657447D01*
X779376Y-26581525D01*
X799803Y-26514186D01*
X810800Y-26402533D01*
X810800Y-26402524D01*
X814476Y-26365201D01*
X810800Y-26327878D01*
X810800Y-18745388D01*
X831318Y-18751612D01*
X955800Y-18763872D01*
X1655800Y-18763872D01*
X1780282Y-18751612D01*
X1815800Y-18740838D01*
X1815801Y-23452684D01*
X1812124Y-23490016D01*
X1815801Y-23527349D01*
X1826798Y-23639002D01*
X1835114Y-23666417D01*
X1870254Y-23782262D01*
X1940826Y-23914292D01*
X2008691Y-23996985D01*
X2035800Y-24030017D01*
X2064797Y-24053815D01*
X2211192Y-24200210D01*
X2211192Y-24262347D01*
X2250966Y-24462306D01*
X2328987Y-24650664D01*
X2442255Y-24820182D01*
X2586418Y-24964345D01*
X2755936Y-25077613D01*
X2944294Y-25155634D01*
X3144253Y-25195408D01*
X3348131Y-25195408D01*
X3548090Y-25155634D01*
X3736448Y-25077613D01*
X3905966Y-24964345D01*
X3980270Y-24890041D01*
X4082496Y-24992267D01*
X4252014Y-25105535D01*
X4440372Y-25183556D01*
X4640331Y-25223330D01*
X4844209Y-25223330D01*
X5044168Y-25183556D01*
X5232526Y-25105535D01*
X5402044Y-24992267D01*
X5546207Y-24848104D01*
X5659475Y-24678586D01*
X5737496Y-24490228D01*
X5777270Y-24290269D01*
X5777270Y-24086391D01*
X5737496Y-23886432D01*
X5659475Y-23698074D01*
X5546207Y-23528556D01*
X5402044Y-23384393D01*
X5232526Y-23271125D01*
X5044168Y-23193104D01*
X5042532Y-23192779D01*
X5131395Y-23103916D01*
X5244663Y-22934398D01*
X5322684Y-22746040D01*
X5362458Y-22546081D01*
X5362458Y-22342203D01*
X5322684Y-22142244D01*
X5244663Y-21953886D01*
X5131395Y-21784368D01*
X4987232Y-21640205D01*
X4817714Y-21526937D01*
X4629356Y-21448916D01*
X4468400Y-21416900D01*
X4468400Y-20350801D01*
X5626803Y-19192399D01*
X5655801Y-19168601D01*
X5750774Y-19052876D01*
X5821346Y-18920847D01*
X5864803Y-18777586D01*
X5875800Y-18665933D01*
X5875800Y-18665924D01*
X5879476Y-18628601D01*
X5877578Y-18609326D01*
X5916985Y-18576985D01*
X5996337Y-18480294D01*
X6055302Y-18369980D01*
X6091612Y-18250282D01*
X6103872Y-18125800D01*
X6103872Y-16125800D01*
X6091612Y-16001318D01*
X6055302Y-15881620D01*
X5996337Y-15771306D01*
X5916985Y-15674615D01*
X5820294Y-15595263D01*
X5709980Y-15536298D01*
X5590282Y-15499988D01*
X5465800Y-15487728D01*
X4765800Y-15487728D01*
X4641318Y-15499988D01*
X4521620Y-15536298D01*
X4480800Y-15558117D01*
X4439980Y-15536298D01*
X4320282Y-15499988D01*
X4195800Y-15487728D01*
X3495800Y-15487728D01*
X3371318Y-15499988D01*
X3251620Y-15536298D01*
X3210800Y-15558117D01*
X3169980Y-15536298D01*
X3050282Y-15499988D01*
X2925800Y-15487728D01*
X2225800Y-15487728D01*
X2101318Y-15499988D01*
X2065800Y-15510762D01*
X2065800Y-11752197D01*
X2257698Y-11714026D01*
X2446056Y-11636005D01*
X2615574Y-11522737D01*
X2686756Y-11451555D01*
X8307601Y-17072402D01*
X8307600Y-18397728D01*
X6735800Y-18397728D01*
X6611318Y-18409988D01*
X6491620Y-18446298D01*
X6381306Y-18505263D01*
X6284615Y-18584615D01*
X6205263Y-18681306D01*
X6146298Y-18791620D01*
X6109988Y-18911318D01*
X6097728Y-19035800D01*
X6097728Y-19735800D01*
X6109988Y-19860282D01*
X6146298Y-19979980D01*
X6168117Y-20020800D01*
X6146298Y-20061620D01*
X6109988Y-20181318D01*
X6097728Y-20305800D01*
X6097728Y-21005800D01*
X6109988Y-21130282D01*
X6146298Y-21249980D01*
X6168117Y-21290800D01*
X6146298Y-21331620D01*
X6109988Y-21451318D01*
X6097728Y-21575800D01*
X6097728Y-22275800D01*
X6109988Y-22400282D01*
X6146298Y-22519980D01*
X6168117Y-22560800D01*
X6146298Y-22601620D01*
X6109988Y-22721318D01*
X6097728Y-22845800D01*
X6097728Y-23545800D01*
X6109988Y-23670282D01*
X6146298Y-23789980D01*
X6168117Y-23830800D01*
X6146298Y-23871620D01*
X6109988Y-23991318D01*
X6097728Y-24115800D01*
X6097728Y-24815800D01*
X6109988Y-24940282D01*
X6146298Y-25059980D01*
X6168117Y-25100800D01*
X6146298Y-25141620D01*
X6109988Y-25261318D01*
X6097728Y-25385800D01*
X6097728Y-26085800D01*
X6109988Y-26210282D01*
X6146298Y-26329980D01*
X6168117Y-26370800D01*
X6146298Y-26411620D01*
X6109988Y-26531318D01*
X6097728Y-26655800D01*
X6097728Y-27355800D01*
X6109988Y-27480282D01*
X6146298Y-27599980D01*
X6168117Y-27640800D01*
X6146298Y-27681620D01*
X6109988Y-27801318D01*
X6097728Y-27925800D01*
X6097728Y-28625800D01*
X6109988Y-28750282D01*
X6146298Y-28869980D01*
X6205263Y-28980294D01*
X6284615Y-29076985D01*
X6381306Y-29156337D01*
X6491620Y-29215302D01*
X6611318Y-29251612D01*
X6735800Y-29263872D01*
X8735800Y-29263872D01*
X8860282Y-29251612D01*
X8979980Y-29215302D01*
X9090294Y-29156337D01*
X9186985Y-29076985D01*
X9261306Y-28986424D01*
X9278047Y-28981346D01*
X9410076Y-28910774D01*
X9525801Y-28815801D01*
X9549604Y-28786797D01*
X12728672Y-25607730D01*
X12757665Y-25583936D01*
X12781459Y-25554943D01*
X12781463Y-25554939D01*
X12852638Y-25468213D01*
X12923210Y-25336183D01*
X12936792Y-25291408D01*
X12966667Y-25192921D01*
X12977664Y-25081268D01*
X12977664Y-25081259D01*
X12981340Y-25043936D01*
X12977664Y-25006613D01*
X12977662Y-15475156D01*
X12981339Y-15437823D01*
X12966665Y-15288837D01*
X12923209Y-15145576D01*
X12852637Y-15013547D01*
X12781462Y-14926820D01*
X12781457Y-14926815D01*
X12757663Y-14897822D01*
X12728670Y-14874028D01*
X7020000Y-9165359D01*
X7020000Y-6488072D01*
X7110000Y-6488072D01*
X7234482Y-6475812D01*
X7354180Y-6439502D01*
X7464494Y-6380537D01*
X7561185Y-6301185D01*
X7640537Y-6204494D01*
X7699502Y-6094180D01*
X7735812Y-5974482D01*
X7748072Y-5850000D01*
X7748072Y-4150000D01*
X7735812Y-4025518D01*
X7699502Y-3905820D01*
X7640537Y-3795506D01*
X7561185Y-3698815D01*
X7464494Y-3619463D01*
X7354180Y-3560498D01*
X7281620Y-3538487D01*
X7413475Y-3406632D01*
X7575990Y-3163411D01*
X7687932Y-2893158D01*
X7745000Y-2606260D01*
X7745000Y-2313740D01*
X7687932Y-2026842D01*
X7575990Y-1756589D01*
X7413475Y-1513368D01*
X7206632Y-1306525D01*
X7032240Y-1190000D01*
X7206632Y-1073475D01*
X7413475Y-866632D01*
X7575990Y-623411D01*
X7687932Y-353158D01*
X7745000Y-66260D01*
X7745000Y226260D01*
X7687932Y513158D01*
X7575990Y783411D01*
X7413475Y1026632D01*
X7206632Y1233475D01*
X7032240Y1350000D01*
X7206632Y1466525D01*
X7413475Y1673368D01*
X7575990Y1916589D01*
X7687932Y2186842D01*
X7745000Y2473740D01*
X7745000Y2766260D01*
X7687932Y3053158D01*
X7575990Y3323411D01*
X7413475Y3566632D01*
X7206632Y3773475D01*
X7032240Y3890000D01*
X7206632Y4006525D01*
X7413475Y4213368D01*
X7575990Y4456589D01*
X7687932Y4726842D01*
X7745000Y5013740D01*
X7745000Y5306260D01*
X7687932Y5593158D01*
X7575990Y5863411D01*
X7413475Y6106632D01*
X7206632Y6313475D01*
X7032240Y6430000D01*
X7206632Y6546525D01*
X7413475Y6753368D01*
X7575990Y6996589D01*
X7687932Y7266842D01*
X7745000Y7553740D01*
X7745000Y7846260D01*
X7687932Y8133158D01*
X7575990Y8403411D01*
X7413475Y8646632D01*
X7206632Y8853475D01*
X7032240Y8970000D01*
X7206632Y9086525D01*
X7413475Y9293368D01*
X7575990Y9536589D01*
X7687932Y9806842D01*
X7745000Y10093740D01*
X7745000Y10386260D01*
X7687932Y10673158D01*
X7575990Y10943411D01*
X7413475Y11186632D01*
X7206632Y11393475D01*
X7032240Y11510000D01*
X7206632Y11626525D01*
X7413475Y11833368D01*
X7575990Y12076589D01*
X7687932Y12346842D01*
X7745000Y12633740D01*
X7745000Y12926260D01*
X7687932Y13213158D01*
X7575990Y13483411D01*
X7413475Y13726632D01*
X7206632Y13933475D01*
X7032240Y14050000D01*
X7206632Y14166525D01*
X7413475Y14373368D01*
X7575990Y14616589D01*
X7687932Y14886842D01*
X7745000Y15173740D01*
X7745000Y15466260D01*
X7687932Y15753158D01*
X7575990Y16023411D01*
X7413475Y16266632D01*
X7206632Y16473475D01*
X7032240Y16590000D01*
X7206632Y16706525D01*
X7413475Y16913368D01*
X7575990Y17156589D01*
X7687932Y17426842D01*
X7745000Y17713740D01*
X7745000Y18006260D01*
X7687932Y18293158D01*
X7575990Y18563411D01*
X7413475Y18806632D01*
X7206632Y19013475D01*
X7032240Y19130000D01*
X7206632Y19246525D01*
X7413475Y19453368D01*
X7575990Y19696589D01*
X7687932Y19966842D01*
X7745000Y20253740D01*
X7745000Y20546260D01*
X7687932Y20833158D01*
X7575990Y21103411D01*
X7413475Y21346632D01*
X7206632Y21553475D01*
X7032240Y21670000D01*
X7206632Y21786525D01*
X7413475Y21993368D01*
X7575990Y22236589D01*
X7687932Y22506842D01*
X7745000Y22793740D01*
X7745000Y23086260D01*
X7687932Y23373158D01*
X7575990Y23643411D01*
X7413475Y23886632D01*
X7206632Y24093475D01*
X6963411Y24255990D01*
X6693158Y24367932D01*
X6406260Y24425000D01*
X6113740Y24425000D01*
X5826842Y24367932D01*
X5556589Y24255990D01*
X5313368Y24093475D01*
X5106525Y23886632D01*
X4944010Y23643411D01*
X4832068Y23373158D01*
X4775000Y23086260D01*
X4775000Y22793740D01*
X4832068Y22506842D01*
X4944010Y22236589D01*
X5106525Y21993368D01*
X5313368Y21786525D01*
X5487760Y21670000D01*
X5313368Y21553475D01*
X5106525Y21346632D01*
X4944010Y21103411D01*
X4832068Y20833158D01*
X4775000Y20546260D01*
X4775000Y20253740D01*
X4832068Y19966842D01*
X4944010Y19696589D01*
X5106525Y19453368D01*
X5313368Y19246525D01*
X5487760Y19130000D01*
X5313368Y19013475D01*
X5106525Y18806632D01*
X4944010Y18563411D01*
X4832068Y18293158D01*
X4775000Y18006260D01*
X4775000Y17713740D01*
X4832068Y17426842D01*
X4944010Y17156589D01*
X5106525Y16913368D01*
X5313368Y16706525D01*
X5487760Y16590000D01*
X5313368Y16473475D01*
X5106525Y16266632D01*
X4944010Y16023411D01*
X4832068Y15753158D01*
X4775000Y15466260D01*
X4775000Y15173740D01*
X4832068Y14886842D01*
X4944010Y14616589D01*
X5106525Y14373368D01*
X5313368Y14166525D01*
X5487760Y14050000D01*
X5313368Y13933475D01*
X5106525Y13726632D01*
X4944010Y13483411D01*
X4832068Y13213158D01*
X4775000Y12926260D01*
X4775000Y12633740D01*
X4818790Y12413593D01*
X741790Y8336591D01*
X741790Y33729191D01*
X1175598Y34162998D01*
X1200148Y34162998D01*
X1041400Y34004250D01*
X1038328Y33426400D01*
X1050588Y33301918D01*
X1086898Y33182220D01*
X1145863Y33071906D01*
X1225215Y32975215D01*
X1321906Y32895863D01*
X1432220Y32836898D01*
X1551918Y32800588D01*
X1676400Y32788328D01*
X2254250Y32791400D01*
X2413000Y32950150D01*
X2413000Y34163000D01*
X2393000Y34163000D01*
X2393000Y34417000D01*
X2413000Y34417000D01*
X2413000Y34437000D01*
X2667000Y34437000D01*
X2667000Y34417000D01*
X2687000Y34417000D01*
X2687000Y34163000D01*
X2667000Y34163000D01*
X2667000Y32950150D01*
X2825750Y32791400D01*
X3403600Y32788328D01*
X3528082Y32800588D01*
X3647780Y32836898D01*
X3758094Y32895863D01*
X3854785Y32975215D01*
X3934137Y33071906D01*
X3993102Y33182220D01*
X4010636Y33240023D01*
X4124698Y33125961D01*
X4370147Y32961958D01*
X4642875Y32848990D01*
X4932401Y32791400D01*
X5227599Y32791400D01*
X5517125Y32848990D01*
X5789853Y32961958D01*
X6035302Y33125961D01*
X6244039Y33334698D01*
X6350000Y33493281D01*
X6455961Y33334698D01*
X6664698Y33125961D01*
X6910147Y32961958D01*
X7182875Y32848990D01*
X7472401Y32791400D01*
X7767599Y32791400D01*
X8057125Y32848990D01*
X8329853Y32961958D01*
X8575302Y33125961D01*
X8784039Y33334698D01*
X8890000Y33493281D01*
X8995961Y33334698D01*
X9204698Y33125961D01*
X9450147Y32961958D01*
X9722875Y32848990D01*
X10012401Y32791400D01*
X10307599Y32791400D01*
X10597125Y32848990D01*
X10869853Y32961958D01*
X11115302Y33125961D01*
X11324039Y33334698D01*
X11430000Y33493281D01*
X11535961Y33334698D01*
X11744698Y33125961D01*
X11990147Y32961958D01*
X12262875Y32848990D01*
X12552401Y32791400D01*
X12847599Y32791400D01*
X13137125Y32848990D01*
X13409853Y32961958D01*
X13655302Y33125961D01*
X13864039Y33334698D01*
X14028042Y33580147D01*
X14141010Y33852875D01*
X14198600Y34142401D01*
X14198600Y34437599D01*
X14141010Y34727125D01*
X14028042Y34999853D01*
X13864039Y35245302D01*
X13655302Y35454039D01*
X13496719Y35560000D01*
X13655302Y35665961D01*
X13864039Y35874698D01*
X14028042Y36120147D01*
X14141010Y36392875D01*
X14198600Y36682401D01*
X14198600Y36977599D01*
X14141010Y37267125D01*
X14028042Y37539853D01*
X13864039Y37785302D01*
X13655302Y37994039D01*
X13409853Y38158042D01*
X13137125Y38271010D01*
X12847599Y38328600D01*
X12552401Y38328600D01*
X12262875Y38271010D01*
X11990147Y38158042D01*
X11744698Y37994039D01*
X11535961Y37785302D01*
X11430000Y37626719D01*
X11324039Y37785302D01*
X11115302Y37994039D01*
X10869853Y38158042D01*
X10597125Y38271010D01*
X10307599Y38328600D01*
X10012401Y38328600D01*
X9722875Y38271010D01*
X9450147Y38158042D01*
X9204698Y37994039D01*
X8995961Y37785302D01*
X8890000Y37626719D01*
X8784039Y37785302D01*
X8575302Y37994039D01*
X8329853Y38158042D01*
X8057125Y38271010D01*
X7767599Y38328600D01*
X7472401Y38328600D01*
X7182875Y38271010D01*
X6910147Y38158042D01*
X6715769Y38028163D01*
X6214332Y38529599D01*
X6190530Y38558602D01*
X6074805Y38653575D01*
X5942776Y38724147D01*
X5799515Y38767604D01*
X5687862Y38778601D01*
X5687851Y38778601D01*
X5650529Y38782277D01*
X5613207Y38778601D01*
X2006796Y38778601D01*
X1969471Y38782277D01*
X1932146Y38778601D01*
X1932138Y38778601D01*
X1820485Y38767604D01*
X1677224Y38724147D01*
X1545195Y38653575D01*
X1429470Y38558602D01*
X1405672Y38529604D01*
X-979222Y36144709D01*
X-1008220Y36120911D01*
X-1032018Y36091913D01*
X-1032019Y36091912D01*
X-1103194Y36005186D01*
X-1173766Y35873156D01*
X-1199073Y35789727D01*
X-1217222Y35729896D01*
X-1219550Y35706260D01*
X-1231896Y35580910D01*
X-1228219Y35543577D01*
X-1228219Y28547600D01*
X-7125988Y28547600D01*
X-8698596Y30120207D01*
X-8722399Y30149211D01*
X-8838124Y30244184D01*
X-8970153Y30314756D01*
X-9113414Y30358213D01*
X-9225067Y30369210D01*
X-9225078Y30369210D01*
X-9262400Y30372886D01*
X-9299722Y30369210D01*
X-10877998Y30369210D01*
X-11243825Y30735037D01*
X-11149382Y30706388D01*
X-11024900Y30694128D01*
X-10598150Y30697200D01*
X-10439400Y30855950D01*
X-10439400Y32080200D01*
X-10185400Y32080200D01*
X-10185400Y30855950D01*
X-10026650Y30697200D01*
X-9599900Y30694128D01*
X-9475418Y30706388D01*
X-9355720Y30742698D01*
X-9245406Y30801663D01*
X-9148715Y30881015D01*
X-9069363Y30977706D01*
X-9010398Y31088020D01*
X-8974088Y31207718D01*
X-8961828Y31332200D01*
X-8964900Y31921450D01*
X-9123650Y32080200D01*
X-10185400Y32080200D01*
X-10439400Y32080200D01*
X-11501150Y32080200D01*
X-11659900Y31921450D01*
X-11662972Y31332200D01*
X-11650712Y31207718D01*
X-11622063Y31113274D01*
X-12651200Y32142411D01*
X-12651200Y33082200D01*
X-11662972Y33082200D01*
X-11659900Y32492950D01*
X-11501150Y32334200D01*
X-10439400Y32334200D01*
X-10439400Y33558450D01*
X-10185400Y33558450D01*
X-10185400Y32334200D01*
X-9123650Y32334200D01*
X-8964900Y32492950D01*
X-8963132Y32832200D01*
X-8687972Y32832200D01*
X-8687972Y31582200D01*
X-8670908Y31408946D01*
X-8620372Y31242350D01*
X-8538305Y31088814D01*
X-8427862Y30954238D01*
X-8293286Y30843795D01*
X-8139750Y30761728D01*
X-7973154Y30711192D01*
X-7799900Y30694128D01*
X-6874900Y30694128D01*
X-6701646Y30711192D01*
X-6535050Y30761728D01*
X-6381514Y30843795D01*
X-6246938Y30954238D01*
X-6136495Y31088814D01*
X-6054428Y31242350D01*
X-6003892Y31408946D01*
X-5986828Y31582200D01*
X-5986828Y32832200D01*
X-6003892Y33005454D01*
X-6054428Y33172050D01*
X-6136495Y33325586D01*
X-6246938Y33460162D01*
X-6381514Y33570605D01*
X-6520901Y33645109D01*
X-6520901Y35776880D01*
X-6478551Y35789727D01*
X-6325015Y35871794D01*
X-6190439Y35982237D01*
X-6079996Y36116813D01*
X-5997929Y36270349D01*
X-5947393Y36436945D01*
X-5930329Y36610199D01*
X-5930329Y37860199D01*
X-5947393Y38033453D01*
X-5997929Y38200049D01*
X-6079996Y38353585D01*
X-6190439Y38488161D01*
X-6325015Y38598604D01*
X-6478551Y38680671D01*
X-6645147Y38731207D01*
X-6818401Y38748271D01*
X-7743401Y38748271D01*
X-7916655Y38731207D01*
X-8083251Y38680671D01*
X-8236787Y38598604D01*
X-8371363Y38488161D01*
X-8481806Y38353585D01*
X-8563873Y38200049D01*
X-8614409Y38033453D01*
X-8631473Y37860199D01*
X-8631473Y36610199D01*
X-8614409Y36436945D01*
X-8563873Y36270349D01*
X-8481806Y36116813D01*
X-8371363Y35982237D01*
X-8236787Y35871794D01*
X-8083251Y35789727D01*
X-8040901Y35776880D01*
X-8040900Y33682658D01*
X-8139750Y33652672D01*
X-8293286Y33570605D01*
X-8427862Y33460162D01*
X-8538305Y33325586D01*
X-8620372Y33172050D01*
X-8670908Y33005454D01*
X-8687972Y32832200D01*
X-8963132Y32832200D01*
X-8961828Y33082200D01*
X-8974088Y33206682D01*
X-9010398Y33326380D01*
X-9069363Y33436694D01*
X-9148715Y33533385D01*
X-9245406Y33612737D01*
X-9355720Y33671702D01*
X-9475418Y33708012D01*
X-9599900Y33720272D01*
X-10026650Y33717200D01*
X-10185400Y33558450D01*
X-10439400Y33558450D01*
X-10598150Y33717200D01*
X-11024900Y33720272D01*
X-11149382Y33708012D01*
X-11269080Y33671702D01*
X-11379394Y33612737D01*
X-11476085Y33533385D01*
X-11555437Y33436694D01*
X-11614402Y33326380D01*
X-11650712Y33206682D01*
X-11662972Y33082200D01*
X-12651200Y33082200D01*
X-12651200Y33693875D01*
X-12647524Y33731200D01*
X-12651200Y33768525D01*
X-12651200Y33768533D01*
X-12662197Y33880186D01*
X-12705654Y34023447D01*
X-12776226Y34155476D01*
X-12871199Y34271201D01*
X-12900197Y34294999D01*
X-13405198Y34800000D01*
X-11092311Y34800000D01*
X-11048374Y34756063D01*
X-10878856Y34642795D01*
X-10690498Y34564774D01*
X-10490539Y34525000D01*
X-10286661Y34525000D01*
X-10086702Y34564774D01*
X-9898344Y34642795D01*
X-9728826Y34756063D01*
X-9584663Y34900226D01*
X-9471395Y35069744D01*
X-9393374Y35258102D01*
X-9353600Y35458061D01*
X-9353600Y35661939D01*
X-9386181Y35825737D01*
X-9300015Y35871794D01*
X-9165439Y35982237D01*
X-9054996Y36116813D01*
X-8972929Y36270349D01*
X-8922393Y36436945D01*
X-8905329Y36610199D01*
X-8905329Y37860199D01*
X-8922393Y38033453D01*
X-8972929Y38200049D01*
X-9054996Y38353585D01*
X-9165439Y38488161D01*
X-9300015Y38598604D01*
X-9453551Y38680671D01*
X-9620147Y38731207D01*
X-9793401Y38748271D01*
X-10718401Y38748271D01*
X-10891655Y38731207D01*
X-11058251Y38680671D01*
X-11211787Y38598604D01*
X-11346363Y38488161D01*
X-11456806Y38353585D01*
X-11538873Y38200049D01*
X-11589409Y38033453D01*
X-11606473Y37860199D01*
X-11606473Y36610199D01*
X-11589409Y36436945D01*
X-11553934Y36320000D01*
X-13961822Y36320000D01*
X-14086525Y36506632D01*
X-14218380Y36638487D01*
X-14145820Y36660498D01*
X-14035506Y36719463D01*
X-13938815Y36798815D01*
X-13859463Y36895506D01*
X-13800498Y37005820D01*
X-13764188Y37125518D01*
X-13751928Y37250000D01*
X-13751928Y38950000D01*
X-13764188Y39074482D01*
X-13800498Y39194180D01*
X-13859463Y39304494D01*
X-13938815Y39401185D01*
X-14035506Y39480537D01*
X-14145820Y39539502D01*
X-14265518Y39575812D01*
X-14390000Y39588072D01*
X-16090000Y39588072D01*
X-16214482Y39575812D01*
X-16334180Y39539502D01*
X-16444494Y39480537D01*
X-16541185Y39401185D01*
X-16620537Y39304494D01*
X-16679502Y39194180D01*
X-16715812Y39074482D01*
X-16728072Y38950000D01*
X-16728072Y37250000D01*
X-16715812Y37125518D01*
X-16679502Y37005820D01*
X-16620537Y36895506D01*
X-16541185Y36798815D01*
X-16444494Y36719463D01*
X-16334180Y36660498D01*
X-16261620Y36638487D01*
X-16393475Y36506632D01*
X-16555990Y36263411D01*
X-16667932Y35993158D01*
X-16725000Y35706260D01*
X-16725000Y35413740D01*
X-16667932Y35126842D01*
X-16555990Y34856589D01*
X-16393475Y34613368D01*
X-16186632Y34406525D01*
X-16012240Y34290000D01*
X-16186632Y34173475D01*
X-16393475Y33966632D01*
X-16555990Y33723411D01*
X-16667932Y33453158D01*
X-16725000Y33166260D01*
X-16725000Y32873740D01*
X-16667932Y32586842D01*
X-16555990Y32316589D01*
X-16393475Y32073368D01*
X-16186632Y31866525D01*
X-15943411Y31704010D01*
X-15673158Y31592068D01*
X-15386260Y31535000D01*
X-15093740Y31535000D01*
X-14873592Y31578791D01*
X-12201591Y28906789D01*
X-17227761Y28899778D01*
X-17406117Y28910620D01*
X-17536200Y28944694D01*
X-17657187Y29003386D01*
X-17764470Y29084460D01*
X-17853961Y29184827D01*
X-17922254Y29300665D01*
X-17960606Y29410049D01*
X-17958587Y29430631D01*
X-17963664Y41970068D01*
X-17973617Y42070700D01*
X-17978313Y42086158D01*
X-17977780Y42094917D01*
X-17943706Y42225000D01*
X-17885015Y42345985D01*
X-17803938Y42453273D01*
X-17703574Y42542761D01*
X-17587734Y42611054D01*
X-17478428Y42649380D01*
X-17459423Y42647469D01*
M02*
