M48
; DRILL file {KiCad (5.1.5)-3} date 3/11/2020 7:33:24 AM
; FORMAT={-:-/ absolute / inch / decimal}
; #@! TF.CreationDate,2020-03-11T07:33:24-05:00
; #@! TF.GenerationSoftware,Kicad,Pcbnew,(5.1.5)-3
; #@! TF.FileFunction,Plated,1,2,PTH
FMAT,2
INCH
T1C0.0157
T2C0.0394
T3C0.0400
%
G90
G05
T1
X-0.409Y1.4
X-0.407Y-0.831
X-0.406Y-0.777
X-0.401Y-0.631
X-0.401Y-0.732
X-0.1795Y-0.8585
X-0.1684Y-0.9596
X-0.166Y-0.908
X-0.163Y-1.08
X-0.1616Y-1.0114
X0.077Y-0.422
X0.1278Y-0.9512
X0.1704Y-0.8836
X0.1867Y-0.9523
T2
X0.2465Y0.9031
X0.2465Y0.8031
X0.2465Y0.7031
X0.2465Y0.6031
X0.2465Y0.5031
X0.2465Y0.4031
X0.2465Y0.3031
X0.2465Y0.2031
X0.2465Y0.1031
X0.2465Y0.0031
X0.2465Y-0.0969
X0.2465Y-0.1969
X-0.2465Y0.9031
X-0.2465Y0.8031
X-0.2465Y0.7031
X-0.2465Y0.6031
X-0.2465Y0.5031
X-0.2465Y0.4031
X-0.2465Y0.3031
X-0.2465Y0.2031
X-0.2465Y0.1031
X-0.2465Y0.0031
X-0.2465Y-0.0969
X-0.2465Y-0.1969
X-0.6Y1.5
X-0.6Y1.4
X-0.6Y1.3
T3
X0.1Y1.45
X0.1Y1.35
X0.2Y1.45
X0.2Y1.35
X0.3Y1.45
X0.3Y1.35
X0.4Y1.45
X0.4Y1.35
X0.5Y1.45
X0.5Y1.35
T0
M30
