G04 #@! TF.GenerationSoftware,KiCad,Pcbnew,(5.1.5)-3*
G04 #@! TF.CreationDate,2020-03-11T07:33:20-05:00*
G04 #@! TF.ProjectId,BreadboardBreakout,42726561-6462-46f6-9172-64427265616b,rev?*
G04 #@! TF.SameCoordinates,Original*
G04 #@! TF.FileFunction,Copper,L1,Top*
G04 #@! TF.FilePolarity,Positive*
%FSLAX46Y46*%
G04 Gerber Fmt 4.6, Leading zero omitted, Abs format (unit mm)*
G04 Created by KiCad (PCBNEW (5.1.5)-3) date 2020-03-11 07:33:20*
%MOMM*%
%LPD*%
G04 APERTURE LIST*
%ADD10C,0.100000*%
%ADD11O,1.700000X1.700000*%
%ADD12R,1.700000X1.700000*%
%ADD13R,3.000000X0.800000*%
%ADD14R,1.727200X1.727200*%
%ADD15O,1.727200X1.727200*%
%ADD16C,0.800000*%
%ADD17C,0.250000*%
%ADD18C,0.254000*%
G04 APERTURE END LIST*
G04 #@! TA.AperFunction,SMDPad,CuDef*
D10*
G36*
X-9890496Y33106396D02*
G01*
X-9866227Y33102796D01*
X-9842429Y33096835D01*
X-9819329Y33088570D01*
X-9797151Y33078080D01*
X-9776107Y33065467D01*
X-9756402Y33050853D01*
X-9738223Y33034377D01*
X-9721747Y33016198D01*
X-9707133Y32996493D01*
X-9694520Y32975449D01*
X-9684030Y32953271D01*
X-9675765Y32930171D01*
X-9669804Y32906373D01*
X-9666204Y32882104D01*
X-9665000Y32857600D01*
X-9665000Y31607600D01*
X-9666204Y31583096D01*
X-9669804Y31558827D01*
X-9675765Y31535029D01*
X-9684030Y31511929D01*
X-9694520Y31489751D01*
X-9707133Y31468707D01*
X-9721747Y31449002D01*
X-9738223Y31430823D01*
X-9756402Y31414347D01*
X-9776107Y31399733D01*
X-9797151Y31387120D01*
X-9819329Y31376630D01*
X-9842429Y31368365D01*
X-9866227Y31362404D01*
X-9890496Y31358804D01*
X-9915000Y31357600D01*
X-10840000Y31357600D01*
X-10864504Y31358804D01*
X-10888773Y31362404D01*
X-10912571Y31368365D01*
X-10935671Y31376630D01*
X-10957849Y31387120D01*
X-10978893Y31399733D01*
X-10998598Y31414347D01*
X-11016777Y31430823D01*
X-11033253Y31449002D01*
X-11047867Y31468707D01*
X-11060480Y31489751D01*
X-11070970Y31511929D01*
X-11079235Y31535029D01*
X-11085196Y31558827D01*
X-11088796Y31583096D01*
X-11090000Y31607600D01*
X-11090000Y32857600D01*
X-11088796Y32882104D01*
X-11085196Y32906373D01*
X-11079235Y32930171D01*
X-11070970Y32953271D01*
X-11060480Y32975449D01*
X-11047867Y32996493D01*
X-11033253Y33016198D01*
X-11016777Y33034377D01*
X-10998598Y33050853D01*
X-10978893Y33065467D01*
X-10957849Y33078080D01*
X-10935671Y33088570D01*
X-10912571Y33096835D01*
X-10888773Y33102796D01*
X-10864504Y33106396D01*
X-10840000Y33107600D01*
X-9915000Y33107600D01*
X-9890496Y33106396D01*
G37*
G04 #@! TD.AperFunction*
G04 #@! TA.AperFunction,SMDPad,CuDef*
G36*
X-6915496Y33106396D02*
G01*
X-6891227Y33102796D01*
X-6867429Y33096835D01*
X-6844329Y33088570D01*
X-6822151Y33078080D01*
X-6801107Y33065467D01*
X-6781402Y33050853D01*
X-6763223Y33034377D01*
X-6746747Y33016198D01*
X-6732133Y32996493D01*
X-6719520Y32975449D01*
X-6709030Y32953271D01*
X-6700765Y32930171D01*
X-6694804Y32906373D01*
X-6691204Y32882104D01*
X-6690000Y32857600D01*
X-6690000Y31607600D01*
X-6691204Y31583096D01*
X-6694804Y31558827D01*
X-6700765Y31535029D01*
X-6709030Y31511929D01*
X-6719520Y31489751D01*
X-6732133Y31468707D01*
X-6746747Y31449002D01*
X-6763223Y31430823D01*
X-6781402Y31414347D01*
X-6801107Y31399733D01*
X-6822151Y31387120D01*
X-6844329Y31376630D01*
X-6867429Y31368365D01*
X-6891227Y31362404D01*
X-6915496Y31358804D01*
X-6940000Y31357600D01*
X-7865000Y31357600D01*
X-7889504Y31358804D01*
X-7913773Y31362404D01*
X-7937571Y31368365D01*
X-7960671Y31376630D01*
X-7982849Y31387120D01*
X-8003893Y31399733D01*
X-8023598Y31414347D01*
X-8041777Y31430823D01*
X-8058253Y31449002D01*
X-8072867Y31468707D01*
X-8085480Y31489751D01*
X-8095970Y31511929D01*
X-8104235Y31535029D01*
X-8110196Y31558827D01*
X-8113796Y31583096D01*
X-8115000Y31607600D01*
X-8115000Y32857600D01*
X-8113796Y32882104D01*
X-8110196Y32906373D01*
X-8104235Y32930171D01*
X-8095970Y32953271D01*
X-8085480Y32975449D01*
X-8072867Y32996493D01*
X-8058253Y33016198D01*
X-8041777Y33034377D01*
X-8023598Y33050853D01*
X-8003893Y33065467D01*
X-7982849Y33078080D01*
X-7960671Y33088570D01*
X-7937571Y33096835D01*
X-7913773Y33102796D01*
X-7889504Y33106396D01*
X-7865000Y33107600D01*
X-6940000Y33107600D01*
X-6915496Y33106396D01*
G37*
G04 #@! TD.AperFunction*
G04 #@! TA.AperFunction,SMDPad,CuDef*
G36*
X-6915496Y38186396D02*
G01*
X-6891227Y38182796D01*
X-6867429Y38176835D01*
X-6844329Y38168570D01*
X-6822151Y38158080D01*
X-6801107Y38145467D01*
X-6781402Y38130853D01*
X-6763223Y38114377D01*
X-6746747Y38096198D01*
X-6732133Y38076493D01*
X-6719520Y38055449D01*
X-6709030Y38033271D01*
X-6700765Y38010171D01*
X-6694804Y37986373D01*
X-6691204Y37962104D01*
X-6690000Y37937600D01*
X-6690000Y36687600D01*
X-6691204Y36663096D01*
X-6694804Y36638827D01*
X-6700765Y36615029D01*
X-6709030Y36591929D01*
X-6719520Y36569751D01*
X-6732133Y36548707D01*
X-6746747Y36529002D01*
X-6763223Y36510823D01*
X-6781402Y36494347D01*
X-6801107Y36479733D01*
X-6822151Y36467120D01*
X-6844329Y36456630D01*
X-6867429Y36448365D01*
X-6891227Y36442404D01*
X-6915496Y36438804D01*
X-6940000Y36437600D01*
X-7865000Y36437600D01*
X-7889504Y36438804D01*
X-7913773Y36442404D01*
X-7937571Y36448365D01*
X-7960671Y36456630D01*
X-7982849Y36467120D01*
X-8003893Y36479733D01*
X-8023598Y36494347D01*
X-8041777Y36510823D01*
X-8058253Y36529002D01*
X-8072867Y36548707D01*
X-8085480Y36569751D01*
X-8095970Y36591929D01*
X-8104235Y36615029D01*
X-8110196Y36638827D01*
X-8113796Y36663096D01*
X-8115000Y36687600D01*
X-8115000Y37937600D01*
X-8113796Y37962104D01*
X-8110196Y37986373D01*
X-8104235Y38010171D01*
X-8095970Y38033271D01*
X-8085480Y38055449D01*
X-8072867Y38076493D01*
X-8058253Y38096198D01*
X-8041777Y38114377D01*
X-8023598Y38130853D01*
X-8003893Y38145467D01*
X-7982849Y38158080D01*
X-7960671Y38168570D01*
X-7937571Y38176835D01*
X-7913773Y38182796D01*
X-7889504Y38186396D01*
X-7865000Y38187600D01*
X-6940000Y38187600D01*
X-6915496Y38186396D01*
G37*
G04 #@! TD.AperFunction*
G04 #@! TA.AperFunction,SMDPad,CuDef*
G36*
X-9890496Y38186396D02*
G01*
X-9866227Y38182796D01*
X-9842429Y38176835D01*
X-9819329Y38168570D01*
X-9797151Y38158080D01*
X-9776107Y38145467D01*
X-9756402Y38130853D01*
X-9738223Y38114377D01*
X-9721747Y38096198D01*
X-9707133Y38076493D01*
X-9694520Y38055449D01*
X-9684030Y38033271D01*
X-9675765Y38010171D01*
X-9669804Y37986373D01*
X-9666204Y37962104D01*
X-9665000Y37937600D01*
X-9665000Y36687600D01*
X-9666204Y36663096D01*
X-9669804Y36638827D01*
X-9675765Y36615029D01*
X-9684030Y36591929D01*
X-9694520Y36569751D01*
X-9707133Y36548707D01*
X-9721747Y36529002D01*
X-9738223Y36510823D01*
X-9756402Y36494347D01*
X-9776107Y36479733D01*
X-9797151Y36467120D01*
X-9819329Y36456630D01*
X-9842429Y36448365D01*
X-9866227Y36442404D01*
X-9890496Y36438804D01*
X-9915000Y36437600D01*
X-10840000Y36437600D01*
X-10864504Y36438804D01*
X-10888773Y36442404D01*
X-10912571Y36448365D01*
X-10935671Y36456630D01*
X-10957849Y36467120D01*
X-10978893Y36479733D01*
X-10998598Y36494347D01*
X-11016777Y36510823D01*
X-11033253Y36529002D01*
X-11047867Y36548707D01*
X-11060480Y36569751D01*
X-11070970Y36591929D01*
X-11079235Y36615029D01*
X-11085196Y36638827D01*
X-11088796Y36663096D01*
X-11090000Y36687600D01*
X-11090000Y37937600D01*
X-11088796Y37962104D01*
X-11085196Y37986373D01*
X-11079235Y38010171D01*
X-11070970Y38033271D01*
X-11060480Y38055449D01*
X-11047867Y38076493D01*
X-11033253Y38096198D01*
X-11016777Y38114377D01*
X-10998598Y38130853D01*
X-10978893Y38145467D01*
X-10957849Y38158080D01*
X-10935671Y38168570D01*
X-10912571Y38176835D01*
X-10888773Y38182796D01*
X-10864504Y38186396D01*
X-10840000Y38187600D01*
X-9915000Y38187600D01*
X-9890496Y38186396D01*
G37*
G04 #@! TD.AperFunction*
D11*
X-6260000Y22940000D03*
X-6260000Y20400000D03*
X-6260000Y17860000D03*
X-6260000Y15320000D03*
X-6260000Y12780000D03*
X-6260000Y10240000D03*
X-6260000Y7700000D03*
X-6260000Y5160000D03*
X-6260000Y2620000D03*
X-6260000Y80000D03*
X-6260000Y-2460000D03*
D12*
X-6260000Y-5000000D03*
D13*
X-9152400Y-27406600D03*
X8847600Y-27406600D03*
X-9152400Y-26136600D03*
X8847600Y-26136600D03*
X-9152400Y-24866600D03*
X8847600Y-24866600D03*
X-9152400Y-23596600D03*
X8847600Y-23596600D03*
X-9152400Y-22326600D03*
X8847600Y-22326600D03*
X-9152400Y-21056600D03*
X8847600Y-21056600D03*
X-9152400Y-19786600D03*
X8847600Y-19786600D03*
X-9152400Y-18516600D03*
X8847600Y-18516600D03*
X-9152400Y-17246600D03*
X8847600Y-17246600D03*
X-9152400Y-15976600D03*
X8847600Y-15976600D03*
X-9152400Y-14706600D03*
X8847600Y-14706600D03*
X-9152400Y-13436600D03*
X8847600Y-13436600D03*
D11*
X6260000Y22940000D03*
X6260000Y20400000D03*
X6260000Y17860000D03*
X6260000Y15320000D03*
X6260000Y12780000D03*
X6260000Y10240000D03*
X6260000Y7700000D03*
X6260000Y5160000D03*
X6260000Y2620000D03*
X6260000Y80000D03*
X6260000Y-2460000D03*
D12*
X6260000Y-5000000D03*
D14*
X2540000Y34290000D03*
D15*
X2540000Y36830000D03*
X5080000Y34290000D03*
X5080000Y36830000D03*
X7620000Y34290000D03*
X7620000Y36830000D03*
X10160000Y34290000D03*
X10160000Y36830000D03*
X12700000Y34290000D03*
X12700000Y36830000D03*
D12*
X-15240000Y38100000D03*
D11*
X-15240000Y35560000D03*
X-15240000Y33020000D03*
D16*
X-4140200Y-27432000D03*
X-4104673Y-25689527D03*
X-4276997Y-24374203D03*
X-4216400Y-23063200D03*
X-4559300Y-21805900D03*
X-10337800Y-21107400D03*
X-10312400Y-19735800D03*
X-10185400Y-18592800D03*
X4327458Y-22444142D03*
X4742270Y-24188330D03*
X3246192Y-24160408D03*
X1955800Y-10718800D03*
X-10185400Y-16027400D03*
X-10388600Y35560000D03*
D17*
X-7402500Y37312600D02*
X-7402500Y36437600D01*
X-7402500Y36437600D02*
X-7402500Y32232600D01*
X-5410001Y22090001D02*
X-6260000Y22940000D01*
X-406400Y17373600D02*
X-5410001Y22090001D01*
X-355600Y-8026400D02*
X-406400Y17373600D01*
X-7402400Y-27406600D02*
X-7377000Y-27432000D01*
X-1981200Y-20531878D02*
X-2032000Y-9906000D01*
X-9152400Y-27406600D02*
X-7402400Y-27406600D01*
X-2032000Y-9906000D02*
X-355600Y-8026400D01*
X-7377000Y-27432000D02*
X-4241800Y-27432000D01*
X-1981200Y-24663400D02*
X-1981200Y-20531878D01*
X-4241800Y-27432000D02*
X-1981200Y-24663400D01*
X-3175000Y-24638000D02*
X-2616200Y-23901400D01*
X-4104673Y-25689527D02*
X-2590800Y-23926800D01*
X-2616200Y-23901400D02*
X-2540000Y-9550400D01*
X-2590800Y-23926800D02*
X-3175000Y-24638000D01*
X-4445000Y-26085800D02*
X-4104673Y-25689527D01*
X-2540000Y-9550400D02*
X-812800Y-7747000D01*
X-812800Y-7747000D02*
X-863600Y15519400D01*
X-7351600Y-26085800D02*
X-4445000Y-26085800D01*
X-7402400Y-26136600D02*
X-7351600Y-26085800D01*
X-9152400Y-26136600D02*
X-7402400Y-26136600D01*
X-863600Y15519400D02*
X-5410001Y19550001D01*
X-5410001Y19550001D02*
X-6260000Y20400000D01*
X-5410001Y17010001D02*
X-6260000Y17860000D01*
X-4648200Y-24841200D02*
X-4276997Y-24374203D01*
X-9152400Y-24866600D02*
X-4648200Y-24841200D01*
X-3073400Y-22860000D02*
X-3022600Y-9220200D01*
X-3022600Y-9220200D02*
X-1270000Y-7493000D01*
X-1320800Y13131800D02*
X-5410001Y17010001D01*
X-1270000Y-7493000D02*
X-1320800Y13131800D01*
X-4276997Y-24374203D02*
X-3073400Y-22860000D01*
X-5410001Y14470001D02*
X-6260000Y15320000D01*
X-7377000Y-23571200D02*
X-7402400Y-23596600D01*
X-4800600Y-23520400D02*
X-7377000Y-23571200D01*
X-4216400Y-23063200D02*
X-4800600Y-23520400D01*
X-4216400Y-23063200D02*
X-3530600Y-22021800D01*
X-3530600Y-22021800D02*
X-3530600Y-20497800D01*
X-7402400Y-23596600D02*
X-9152400Y-23596600D01*
X-3530600Y-20497800D02*
X-3505200Y-9042400D01*
X-1727200Y-7289800D02*
X-1778000Y11023600D01*
X-3505200Y-9042400D02*
X-1727200Y-7289800D01*
X-1778000Y11023600D02*
X-5410001Y14470001D01*
X-5410001Y11930001D02*
X-6260000Y12780000D01*
X-3962400Y-8864600D02*
X-2467160Y-7349600D01*
X-5105400Y-22352000D02*
X-4559300Y-21805900D01*
X-9152400Y-22326600D02*
X-5105400Y-22352000D01*
X-2260600Y9042400D02*
X-5410001Y11930001D01*
X-2467160Y-7349600D02*
X-2260600Y9042400D01*
X-4013200Y-21259800D02*
X-3987800Y-20116800D01*
X-3987800Y-20116800D02*
X-4013200Y-19761200D01*
X-4013200Y-19761200D02*
X-3962400Y-8864600D01*
X-4559300Y-21805900D02*
X-4013200Y-21259800D01*
X-9152400Y-21056600D02*
X-7402400Y-21056600D01*
X-5613400Y-21031200D02*
X-4495800Y-20269200D01*
X-7402400Y-21056600D02*
X-5613400Y-21031200D01*
X-5410001Y9390001D02*
X-6260000Y10240000D01*
X-2917170Y6897170D02*
X-5410001Y9390001D01*
X-4445000Y-8636000D02*
X-4294142Y-8559800D01*
X-4271599Y-8537257D02*
X-2917170Y-7164928D01*
X-4470400Y-20142200D02*
X-4445000Y-8636000D01*
X-2917170Y-7164928D02*
X-2917170Y6897170D01*
X-4294142Y-8559800D02*
X-4271599Y-8537257D01*
X-5410001Y6850001D02*
X-6260000Y7700000D01*
X-3367180Y4807180D02*
X-5410001Y6850001D01*
X-3367180Y-6976800D02*
X-3367180Y4807180D01*
X-5969000Y-19786600D02*
X-4978400Y-18618200D01*
X-9152400Y-19786600D02*
X-5969000Y-19786600D01*
X-4978400Y-18618200D02*
X-4927600Y-8509000D01*
X-4927600Y-8509000D02*
X-4739111Y-8280400D01*
X-4601039Y-8210659D02*
X-3367180Y-6976800D01*
X-4739111Y-8280400D02*
X-4601039Y-8210659D01*
X-5410001Y4310001D02*
X-6260000Y5160000D01*
X-3817190Y2717190D02*
X-5410001Y4310001D01*
X-3817190Y-6790400D02*
X-3835400Y-6731000D01*
X-3835400Y-6731000D02*
X-3817190Y2717190D01*
X-4749800Y-7645400D02*
X-3817190Y-6790400D01*
X-5384800Y-8178800D02*
X-4749800Y-7645400D01*
X-5486400Y-17678400D02*
X-5384800Y-8178800D01*
X-9152400Y-18516600D02*
X-6680200Y-18516600D01*
X-6680200Y-18516600D02*
X-5486400Y-17678400D01*
X-5333308Y-3386692D02*
X-6260000Y-2460000D01*
X-5333308Y-5224463D02*
X-5333308Y-3386692D01*
X-6832600Y-7543800D02*
X-5326810Y-6265200D01*
X-6314548Y-7112000D02*
X-6832600Y-7543800D01*
X-5326810Y-5231454D02*
X-5333308Y-5224463D01*
X-5326810Y-6265200D02*
X-5326810Y-5231454D01*
X-6858000Y-14630400D02*
X-6807200Y-7543800D01*
X-6807200Y-7543800D02*
X-6712401Y-7543800D01*
X-9152400Y-14706600D02*
X-6858000Y-14630400D01*
X-6712401Y-7543800D02*
X-6703914Y-7501366D01*
X-6703914Y-7501366D02*
X-6314548Y-7112000D01*
X-6260000Y-6336200D02*
X-6260000Y-5000000D01*
X-7239000Y-7315200D02*
X-6260000Y-6336200D01*
X-9152400Y-13436600D02*
X-9152400Y-12786600D01*
X-9152400Y-12786600D02*
X-8684800Y-12319000D01*
X-8684800Y-12319000D02*
X-7442200Y-12319000D01*
X-7442200Y-12319000D02*
X-7366000Y-12242800D01*
X-7366000Y-12242800D02*
X-7239000Y-7315200D01*
X8661400Y30353000D02*
X10160000Y31851600D01*
X8661400Y-3698600D02*
X8661400Y30353000D01*
X10160000Y31851600D02*
X10160000Y34290000D01*
X6260000Y-5000000D02*
X7360000Y-5000000D01*
X7360000Y-5000000D02*
X8661400Y-3698600D01*
X6260000Y-6100000D02*
X6260000Y-5000000D01*
X8966200Y-10871200D02*
X8847600Y-13436600D01*
X6484600Y-6324600D02*
X6260000Y-6100000D01*
X8847600Y-6968000D02*
X8204200Y-6324600D01*
X8966200Y-10871200D02*
X8847600Y-6968000D01*
X8204200Y-6324600D02*
X6484600Y-6324600D01*
X5084999Y-3635001D02*
X5410001Y-3309999D01*
X7162800Y-14706600D02*
X8847600Y-14706600D01*
X5410001Y-3309999D02*
X6260000Y-2460000D01*
X7022599Y-14566399D02*
X7162800Y-14706600D01*
X6121400Y-7137400D02*
X5084999Y-6100999D01*
X7467600Y-7137400D02*
X6121400Y-7137400D01*
X7797800Y-11607800D02*
X7696200Y-12065000D01*
X7022599Y-12738601D02*
X7022599Y-14566399D01*
X7797800Y-11607800D02*
X7696200Y-7366000D01*
X7696200Y-12065000D02*
X7022599Y-12738601D01*
X7696200Y-7366000D02*
X7467600Y-7137400D01*
X5084999Y-6100999D02*
X5084999Y-3635001D01*
X4634989Y-6296401D02*
X4634989Y-1545011D01*
X7097600Y-15976600D02*
X8847600Y-15976600D01*
X6572589Y-15451589D02*
X6572589Y-8234001D01*
X6959600Y-15875000D02*
X6572589Y-15451589D01*
X6572589Y-8234001D02*
X4634989Y-6296401D01*
X4634989Y-1545011D02*
X6260000Y80000D01*
X6959600Y-15875000D02*
X7097600Y-15976600D01*
X4184979Y-6482801D02*
X4184979Y544979D01*
X6122579Y-16053979D02*
X6122579Y-8420401D01*
X6146800Y-16713200D02*
X6122579Y-16053979D01*
X4184979Y544979D02*
X6260000Y2620000D01*
X6934200Y-17195800D02*
X6654800Y-17246600D01*
X6122579Y-8420401D02*
X4184979Y-6482801D01*
X6146800Y-16738600D02*
X6146800Y-16713200D01*
X6654800Y-17246600D02*
X8847600Y-17246600D01*
X6934200Y-17195800D02*
X6146800Y-16738600D01*
X3734969Y2634969D02*
X6260000Y5160000D01*
X5672570Y-16457980D02*
X5672570Y-8606802D01*
X3734969Y-6669201D02*
X3734969Y2634969D01*
X5672570Y-8606802D02*
X3734969Y-6669201D01*
X6756400Y-18516600D02*
X8847600Y-18516600D01*
X6705600Y-18364200D02*
X6756400Y-18516600D01*
X5664200Y-17754600D02*
X5657010Y-16205200D01*
X6705600Y-18364200D02*
X5664200Y-17754600D01*
X8847600Y-19786600D02*
X7731190Y-19786600D01*
X5207000Y-8864600D02*
X4619176Y-8189818D01*
X3284959Y4724959D02*
X5410001Y6850001D01*
X3284959Y-6855601D02*
X3284959Y4724959D01*
X5410001Y6850001D02*
X6260000Y7700000D01*
X4619176Y-8189818D02*
X3284959Y-6855601D01*
X5156200Y-16730927D02*
X5130800Y-16586200D01*
X5130800Y-16586200D02*
X5207000Y-8864600D01*
X5156200Y-18923000D02*
X5130800Y-16586200D01*
X8847600Y-19786600D02*
X6324600Y-19786600D01*
X6324600Y-19786600D02*
X5156200Y-18923000D01*
X5410001Y9390001D02*
X6260000Y10240000D01*
X2834949Y6814949D02*
X5410001Y9390001D01*
X2834949Y-7042001D02*
X2834949Y6814949D01*
X5943600Y-21056600D02*
X4678973Y-20320000D01*
X4290032Y-8497084D02*
X2834949Y-7042001D01*
X8847600Y-21056600D02*
X5943600Y-21056600D01*
X4678973Y-20320000D02*
X4678973Y-8943562D01*
X4678973Y-8943562D02*
X4290032Y-8497084D01*
X5410001Y11930001D02*
X6260000Y12780000D01*
X2384939Y8904939D02*
X5410001Y11930001D01*
X2384939Y-7228401D02*
X2384939Y8904939D01*
X3960888Y-8804350D02*
X2384939Y-7228401D01*
X8847600Y-22326600D02*
X5617363Y-22326600D01*
X5617363Y-22326600D02*
X4228963Y-21310600D01*
X4228963Y-21310600D02*
X4228963Y-9112082D01*
X4228963Y-9112082D02*
X3960888Y-8804350D01*
X1934929Y10994929D02*
X5410001Y14470001D01*
X1934929Y-7414801D02*
X1934929Y10994929D01*
X5410001Y14470001D02*
X6260000Y15320000D01*
X3631744Y-9111616D02*
X1934929Y-7414801D01*
X3778953Y-21457353D02*
X3778953Y-9280602D01*
X3778953Y-9280602D02*
X3631744Y-9111616D01*
X3778953Y-22021800D02*
X3778953Y-21259800D01*
X5791200Y-23571200D02*
X4327458Y-22444142D01*
X8847600Y-23596600D02*
X5892800Y-23596600D01*
X5892800Y-23596600D02*
X5791200Y-23571200D01*
X4327458Y-22444142D02*
X3778953Y-22021800D01*
X5410001Y17010001D02*
X6260000Y17860000D01*
X1484919Y13208000D02*
X5410001Y17010001D01*
X3302600Y-9418882D02*
X1484919Y-7601201D01*
X3328943Y-9449122D02*
X3302600Y-9418882D01*
X7097600Y-24866600D02*
X7072200Y-24892000D01*
X7072200Y-24892000D02*
X5588000Y-24892000D01*
X1484919Y-7601201D02*
X1484919Y13208000D01*
X8847600Y-24866600D02*
X7097600Y-24866600D01*
X3328943Y-23012400D02*
X3328943Y-9449122D01*
X5588000Y-24892000D02*
X4742270Y-24188330D01*
X4742270Y-24188330D02*
X3328943Y-23012400D01*
X5410001Y19550001D02*
X6260000Y20400000D01*
X1034909Y15316200D02*
X5410001Y19550001D01*
X1034909Y-7787601D02*
X1034909Y15316200D01*
X2286000Y-9038692D02*
X1034909Y-7787601D01*
X2878933Y-9736933D02*
X2336800Y-9118600D01*
X2336800Y-9118600D02*
X2286000Y-9038692D01*
X2878933Y-23825200D02*
X2878933Y-9736933D01*
X8847600Y-26136600D02*
X5308600Y-26136600D01*
X5308600Y-26136600D02*
X3606800Y-24511000D01*
X3606800Y-24511000D02*
X3246192Y-24160408D01*
X3149600Y-24066500D02*
X2878933Y-23825200D01*
X3246192Y-24160408D02*
X3149600Y-24066500D01*
X1955800Y-9550400D02*
X1955800Y-10718800D01*
X584899Y-8079309D02*
X1955800Y-9550400D01*
X6260000Y22940000D02*
X584899Y17264899D01*
X584899Y17264899D02*
X584899Y-8079309D01*
X2428923Y-24647477D02*
X2362200Y-11480800D01*
X2489200Y-24765000D02*
X2428923Y-24647477D01*
X8847600Y-27406600D02*
X5105400Y-27406600D01*
X5105400Y-27406600D02*
X2489200Y-24765000D01*
X2362200Y-11125200D02*
X1955800Y-10718800D01*
X2362200Y-11480800D02*
X2362200Y-11125200D01*
X15849600Y34290000D02*
X16078200Y34290000D01*
X12700000Y34290000D02*
X15849600Y34290000D01*
X-14960600Y41376600D02*
X-15240000Y39200000D01*
X-15240000Y39200000D02*
X-15240000Y38100000D01*
X15671800Y41376600D02*
X-14960600Y41376600D01*
X15849600Y34290000D02*
X15849600Y41554400D01*
X15849600Y41554400D02*
X15671800Y41376600D01*
X-9152400Y-15976600D02*
X-9152400Y-17246600D01*
X-10388600Y32243700D02*
X-10377500Y32232600D01*
X-10388600Y35560000D02*
X-10388600Y32243700D01*
X-10377500Y31357600D02*
X-10363200Y31343300D01*
X-10377500Y32232600D02*
X-10377500Y31357600D01*
X-10363200Y31343300D02*
X-10363200Y29870400D01*
X-4419600Y29870400D02*
X2540000Y36830000D01*
X-10363200Y29870400D02*
X-4419600Y29870400D01*
D18*
G36*
X-17459423Y42647469D02*
G01*
X18016214Y42576184D01*
X18116869Y42585894D01*
X18133606Y42590934D01*
X18142717Y42590380D01*
X18272800Y42556306D01*
X18393785Y42497615D01*
X18501073Y42416538D01*
X18590561Y42316174D01*
X18658854Y42200334D01*
X18697206Y42090953D01*
X18695187Y42070369D01*
X18700264Y29530932D01*
X18710217Y29430300D01*
X18714913Y29414842D01*
X18714380Y29406083D01*
X18680306Y29276000D01*
X18621614Y29155013D01*
X18540540Y29047730D01*
X18440173Y28958239D01*
X18324335Y28889946D01*
X18189574Y28842697D01*
X18105834Y28828600D01*
X10559381Y28828600D01*
X10462417Y28819050D01*
X10440614Y28812436D01*
X10288498Y28786829D01*
X10238698Y28773340D01*
X10188404Y28761801D01*
X10179686Y28758813D01*
X9930651Y28671497D01*
X9876414Y28646296D01*
X9821807Y28621845D01*
X9813837Y28617220D01*
X9586504Y28483196D01*
X9538173Y28447925D01*
X9489376Y28413347D01*
X9482455Y28407263D01*
X9421400Y28352824D01*
X9421400Y30038199D01*
X10671009Y31287806D01*
X10700001Y31311599D01*
X10723795Y31340592D01*
X10723799Y31340596D01*
X10794973Y31427323D01*
X10794974Y31427324D01*
X10865546Y31559353D01*
X10909003Y31702614D01*
X10920000Y31814267D01*
X10920000Y31814276D01*
X10923676Y31851599D01*
X10920000Y31888922D01*
X10920000Y32995465D01*
X11115302Y33125961D01*
X11324039Y33334698D01*
X11430000Y33493281D01*
X11535961Y33334698D01*
X11744698Y33125961D01*
X11990147Y32961958D01*
X12262875Y32848990D01*
X12552401Y32791400D01*
X12847599Y32791400D01*
X13137125Y32848990D01*
X13409853Y32961958D01*
X13655302Y33125961D01*
X13864039Y33334698D01*
X13994535Y33530000D01*
X15812267Y33530000D01*
X15849600Y33526323D01*
X15886933Y33530000D01*
X16115533Y33530000D01*
X16227186Y33540997D01*
X16370447Y33584454D01*
X16502476Y33655026D01*
X16618201Y33749999D01*
X16713174Y33865724D01*
X16783746Y33997753D01*
X16827203Y34141014D01*
X16841877Y34290000D01*
X16827203Y34438986D01*
X16783746Y34582247D01*
X16713174Y34714276D01*
X16618201Y34830001D01*
X16609600Y34837060D01*
X16609600Y41517076D01*
X16613276Y41554399D01*
X16609600Y41591722D01*
X16609600Y41591733D01*
X16598603Y41703386D01*
X16555146Y41846647D01*
X16484574Y41978676D01*
X16389601Y42094401D01*
X16273876Y42189374D01*
X16141847Y42259946D01*
X15998586Y42303403D01*
X15849600Y42318077D01*
X15700615Y42303403D01*
X15557354Y42259946D01*
X15425325Y42189374D01*
X15361020Y42136600D01*
X-14949445Y42136600D01*
X-15013010Y42138475D01*
X-15061063Y42130382D01*
X-15109586Y42125603D01*
X-15134732Y42117975D01*
X-15160639Y42113612D01*
X-15206192Y42096298D01*
X-15252847Y42082146D01*
X-15276027Y42069756D01*
X-15300577Y42060425D01*
X-15341876Y42034559D01*
X-15384876Y42011574D01*
X-15405189Y41994904D01*
X-15427453Y41980959D01*
X-15462917Y41947527D01*
X-15500601Y41916601D01*
X-15517271Y41896288D01*
X-15536387Y41878268D01*
X-15564647Y41838561D01*
X-15595574Y41800876D01*
X-15607962Y41777700D01*
X-15623194Y41756298D01*
X-15643161Y41711849D01*
X-15666146Y41668847D01*
X-15673776Y41643694D01*
X-15684538Y41619736D01*
X-15695450Y41572242D01*
X-15709603Y41525586D01*
X-15715842Y41462238D01*
X-15956421Y39588072D01*
X-16090000Y39588072D01*
X-16214482Y39575812D01*
X-16334180Y39539502D01*
X-16444494Y39480537D01*
X-16541185Y39401185D01*
X-16620537Y39304494D01*
X-16679502Y39194180D01*
X-16715812Y39074482D01*
X-16728072Y38950000D01*
X-16728072Y37250000D01*
X-16715812Y37125518D01*
X-16679502Y37005820D01*
X-16620537Y36895506D01*
X-16541185Y36798815D01*
X-16444494Y36719463D01*
X-16334180Y36660498D01*
X-16261620Y36638487D01*
X-16393475Y36506632D01*
X-16555990Y36263411D01*
X-16667932Y35993158D01*
X-16725000Y35706260D01*
X-16725000Y35413740D01*
X-16667932Y35126842D01*
X-16555990Y34856589D01*
X-16393475Y34613368D01*
X-16186632Y34406525D01*
X-16012240Y34290000D01*
X-16186632Y34173475D01*
X-16393475Y33966632D01*
X-16555990Y33723411D01*
X-16667932Y33453158D01*
X-16725000Y33166260D01*
X-16725000Y32873740D01*
X-16667932Y32586842D01*
X-16555990Y32316589D01*
X-16393475Y32073368D01*
X-16186632Y31866525D01*
X-15943411Y31704010D01*
X-15673158Y31592068D01*
X-15386260Y31535000D01*
X-15093740Y31535000D01*
X-14806842Y31592068D01*
X-14536589Y31704010D01*
X-14293368Y31866525D01*
X-14086525Y32073368D01*
X-13924010Y32316589D01*
X-13812068Y32586842D01*
X-13755000Y32873740D01*
X-13755000Y33166260D01*
X-13812068Y33453158D01*
X-13924010Y33723411D01*
X-14086525Y33966632D01*
X-14293368Y34173475D01*
X-14467760Y34290000D01*
X-14293368Y34406525D01*
X-14086525Y34613368D01*
X-13924010Y34856589D01*
X-13812068Y35126842D01*
X-13755000Y35413740D01*
X-13755000Y35706260D01*
X-13812068Y35993158D01*
X-13924010Y36263411D01*
X-14086525Y36506632D01*
X-14218380Y36638487D01*
X-14145820Y36660498D01*
X-14035506Y36719463D01*
X-13938815Y36798815D01*
X-13859463Y36895506D01*
X-13800498Y37005820D01*
X-13764188Y37125518D01*
X-13751928Y37250000D01*
X-13751928Y38187600D01*
X-11728072Y38187600D01*
X-11725000Y37598350D01*
X-11566250Y37439600D01*
X-10504500Y37439600D01*
X-10504500Y38663850D01*
X-10250500Y38663850D01*
X-10250500Y37439600D01*
X-9188750Y37439600D01*
X-9030000Y37598350D01*
X-9028232Y37937600D01*
X-8753072Y37937600D01*
X-8753072Y36687600D01*
X-8736008Y36514346D01*
X-8685472Y36347750D01*
X-8603405Y36194214D01*
X-8492962Y36059638D01*
X-8358386Y35949195D01*
X-8204850Y35867128D01*
X-8162500Y35854281D01*
X-8162499Y33690919D01*
X-8204850Y33678072D01*
X-8358386Y33596005D01*
X-8492962Y33485562D01*
X-8603405Y33350986D01*
X-8685472Y33197450D01*
X-8736008Y33030854D01*
X-8753072Y32857600D01*
X-8753072Y31607600D01*
X-8736008Y31434346D01*
X-8685472Y31267750D01*
X-8603405Y31114214D01*
X-8492962Y30979638D01*
X-8358386Y30869195D01*
X-8204850Y30787128D01*
X-8038254Y30736592D01*
X-7865000Y30719528D01*
X-6940000Y30719528D01*
X-6766746Y30736592D01*
X-6600150Y30787128D01*
X-6446614Y30869195D01*
X-6312038Y30979638D01*
X-6201595Y31114214D01*
X-6119528Y31267750D01*
X-6068992Y31434346D01*
X-6051928Y31607600D01*
X-6051928Y32857600D01*
X-6068992Y33030854D01*
X-6119528Y33197450D01*
X-6201595Y33350986D01*
X-6312038Y33485562D01*
X-6446614Y33596005D01*
X-6600150Y33678072D01*
X-6642500Y33690919D01*
X-6642500Y35854281D01*
X-6600150Y35867128D01*
X-6446614Y35949195D01*
X-6312038Y36059638D01*
X-6201595Y36194214D01*
X-6119528Y36347750D01*
X-6068992Y36514346D01*
X-6051928Y36687600D01*
X-6051928Y37937600D01*
X-6068992Y38110854D01*
X-6119528Y38277450D01*
X-6201595Y38430986D01*
X-6312038Y38565562D01*
X-6446614Y38676005D01*
X-6600150Y38758072D01*
X-6766746Y38808608D01*
X-6940000Y38825672D01*
X-7865000Y38825672D01*
X-8038254Y38808608D01*
X-8204850Y38758072D01*
X-8358386Y38676005D01*
X-8492962Y38565562D01*
X-8603405Y38430986D01*
X-8685472Y38277450D01*
X-8736008Y38110854D01*
X-8753072Y37937600D01*
X-9028232Y37937600D01*
X-9026928Y38187600D01*
X-9039188Y38312082D01*
X-9075498Y38431780D01*
X-9134463Y38542094D01*
X-9213815Y38638785D01*
X-9310506Y38718137D01*
X-9420820Y38777102D01*
X-9540518Y38813412D01*
X-9665000Y38825672D01*
X-10091750Y38822600D01*
X-10250500Y38663850D01*
X-10504500Y38663850D01*
X-10663250Y38822600D01*
X-11090000Y38825672D01*
X-11214482Y38813412D01*
X-11334180Y38777102D01*
X-11444494Y38718137D01*
X-11541185Y38638785D01*
X-11620537Y38542094D01*
X-11679502Y38431780D01*
X-11715812Y38312082D01*
X-11728072Y38187600D01*
X-13751928Y38187600D01*
X-13751928Y38950000D01*
X-13764188Y39074482D01*
X-13800498Y39194180D01*
X-13859463Y39304494D01*
X-13938815Y39401185D01*
X-14035506Y39480537D01*
X-14145820Y39539502D01*
X-14265518Y39575812D01*
X-14390000Y39588072D01*
X-14423950Y39588072D01*
X-14291922Y40616600D01*
X15089601Y40616600D01*
X15089600Y35050000D01*
X13994535Y35050000D01*
X13864039Y35245302D01*
X13655302Y35454039D01*
X13496719Y35560000D01*
X13655302Y35665961D01*
X13864039Y35874698D01*
X14028042Y36120147D01*
X14141010Y36392875D01*
X14198600Y36682401D01*
X14198600Y36977599D01*
X14141010Y37267125D01*
X14028042Y37539853D01*
X13864039Y37785302D01*
X13655302Y37994039D01*
X13409853Y38158042D01*
X13137125Y38271010D01*
X12847599Y38328600D01*
X12552401Y38328600D01*
X12262875Y38271010D01*
X11990147Y38158042D01*
X11744698Y37994039D01*
X11535961Y37785302D01*
X11430000Y37626719D01*
X11324039Y37785302D01*
X11115302Y37994039D01*
X10869853Y38158042D01*
X10597125Y38271010D01*
X10307599Y38328600D01*
X10012401Y38328600D01*
X9722875Y38271010D01*
X9450147Y38158042D01*
X9204698Y37994039D01*
X8995961Y37785302D01*
X8890000Y37626719D01*
X8784039Y37785302D01*
X8575302Y37994039D01*
X8329853Y38158042D01*
X8057125Y38271010D01*
X7767599Y38328600D01*
X7472401Y38328600D01*
X7182875Y38271010D01*
X6910147Y38158042D01*
X6664698Y37994039D01*
X6455961Y37785302D01*
X6350000Y37626719D01*
X6244039Y37785302D01*
X6035302Y37994039D01*
X5789853Y38158042D01*
X5517125Y38271010D01*
X5227599Y38328600D01*
X4932401Y38328600D01*
X4642875Y38271010D01*
X4370147Y38158042D01*
X4124698Y37994039D01*
X3915961Y37785302D01*
X3810000Y37626719D01*
X3704039Y37785302D01*
X3495302Y37994039D01*
X3249853Y38158042D01*
X2977125Y38271010D01*
X2687599Y38328600D01*
X2392401Y38328600D01*
X2102875Y38271010D01*
X1830147Y38158042D01*
X1584698Y37994039D01*
X1375961Y37785302D01*
X1211958Y37539853D01*
X1098990Y37267125D01*
X1041400Y36977599D01*
X1041400Y36682401D01*
X1087224Y36452026D01*
X-4734401Y30630400D01*
X-9603200Y30630400D01*
X-9603200Y30778619D01*
X-9575150Y30787128D01*
X-9421614Y30869195D01*
X-9287038Y30979638D01*
X-9176595Y31114214D01*
X-9094528Y31267750D01*
X-9043992Y31434346D01*
X-9026928Y31607600D01*
X-9026928Y32857600D01*
X-9043992Y33030854D01*
X-9094528Y33197450D01*
X-9176595Y33350986D01*
X-9287038Y33485562D01*
X-9421614Y33596005D01*
X-9575150Y33678072D01*
X-9628600Y33694286D01*
X-9628600Y34856289D01*
X-9584663Y34900226D01*
X-9471395Y35069744D01*
X-9393374Y35258102D01*
X-9353600Y35458061D01*
X-9353600Y35661939D01*
X-9393374Y35861898D01*
X-9393669Y35862611D01*
X-9310506Y35907063D01*
X-9213815Y35986415D01*
X-9134463Y36083106D01*
X-9075498Y36193420D01*
X-9039188Y36313118D01*
X-9026928Y36437600D01*
X-9030000Y37026850D01*
X-9188750Y37185600D01*
X-10250500Y37185600D01*
X-10250500Y37165600D01*
X-10504500Y37165600D01*
X-10504500Y37185600D01*
X-11566250Y37185600D01*
X-11725000Y37026850D01*
X-11728072Y36437600D01*
X-11715812Y36313118D01*
X-11679502Y36193420D01*
X-11620537Y36083106D01*
X-11541185Y35986415D01*
X-11444494Y35907063D01*
X-11379507Y35872326D01*
X-11383826Y35861898D01*
X-11423600Y35661939D01*
X-11423600Y35458061D01*
X-11383826Y35258102D01*
X-11305805Y35069744D01*
X-11192537Y34900226D01*
X-11148600Y34856289D01*
X-11148599Y33687552D01*
X-11179850Y33678072D01*
X-11333386Y33596005D01*
X-11467962Y33485562D01*
X-11578405Y33350986D01*
X-11660472Y33197450D01*
X-11711008Y33030854D01*
X-11728072Y32857600D01*
X-11728072Y31607600D01*
X-11711008Y31434346D01*
X-11660472Y31267750D01*
X-11578405Y31114214D01*
X-11467962Y30979638D01*
X-11333386Y30869195D01*
X-11179850Y30787128D01*
X-11123200Y30769943D01*
X-11123199Y29907742D01*
X-11126877Y29870400D01*
X-11112203Y29721414D01*
X-11068746Y29578153D01*
X-10998174Y29446124D01*
X-10903201Y29330399D01*
X-10787476Y29235426D01*
X-10655447Y29164854D01*
X-10512186Y29121397D01*
X-10400533Y29110400D01*
X-10363200Y29106723D01*
X-10325867Y29110400D01*
X-4456922Y29110400D01*
X-4419600Y29106724D01*
X-4382278Y29110400D01*
X-4382267Y29110400D01*
X-4270614Y29121397D01*
X-4127353Y29164854D01*
X-3995324Y29235426D01*
X-3879599Y29330399D01*
X-3855796Y29359403D01*
X1041400Y34256598D01*
X1041400Y34162998D01*
X1200148Y34162998D01*
X1041400Y34004250D01*
X1038328Y33426400D01*
X1050588Y33301918D01*
X1086898Y33182220D01*
X1145863Y33071906D01*
X1225215Y32975215D01*
X1321906Y32895863D01*
X1432220Y32836898D01*
X1551918Y32800588D01*
X1676400Y32788328D01*
X2254250Y32791400D01*
X2413000Y32950150D01*
X2413000Y34163000D01*
X2393000Y34163000D01*
X2393000Y34417000D01*
X2413000Y34417000D01*
X2413000Y34437000D01*
X2667000Y34437000D01*
X2667000Y34417000D01*
X2687000Y34417000D01*
X2687000Y34163000D01*
X2667000Y34163000D01*
X2667000Y32950150D01*
X2825750Y32791400D01*
X3403600Y32788328D01*
X3528082Y32800588D01*
X3647780Y32836898D01*
X3758094Y32895863D01*
X3854785Y32975215D01*
X3934137Y33071906D01*
X3993102Y33182220D01*
X4010636Y33240023D01*
X4124698Y33125961D01*
X4370147Y32961958D01*
X4642875Y32848990D01*
X4932401Y32791400D01*
X5227599Y32791400D01*
X5517125Y32848990D01*
X5789853Y32961958D01*
X6035302Y33125961D01*
X6244039Y33334698D01*
X6350000Y33493281D01*
X6455961Y33334698D01*
X6664698Y33125961D01*
X6910147Y32961958D01*
X7182875Y32848990D01*
X7472401Y32791400D01*
X7767599Y32791400D01*
X8057125Y32848990D01*
X8329853Y32961958D01*
X8575302Y33125961D01*
X8784039Y33334698D01*
X8890000Y33493281D01*
X8995961Y33334698D01*
X9204698Y33125961D01*
X9400000Y32995465D01*
X9400000Y32166403D01*
X8150398Y30916799D01*
X8121400Y30893001D01*
X8097602Y30864003D01*
X8097601Y30864002D01*
X8026426Y30777276D01*
X7955854Y30645246D01*
X7912398Y30501985D01*
X7897724Y30353000D01*
X7901401Y30315667D01*
X7901400Y-3383798D01*
X7572543Y-3712655D01*
X7561185Y-3698815D01*
X7464494Y-3619463D01*
X7354180Y-3560498D01*
X7281620Y-3538487D01*
X7413475Y-3406632D01*
X7575990Y-3163411D01*
X7687932Y-2893158D01*
X7745000Y-2606260D01*
X7745000Y-2313740D01*
X7687932Y-2026842D01*
X7575990Y-1756589D01*
X7413475Y-1513368D01*
X7206632Y-1306525D01*
X7032240Y-1190000D01*
X7206632Y-1073475D01*
X7413475Y-866632D01*
X7575990Y-623411D01*
X7687932Y-353158D01*
X7745000Y-66260D01*
X7745000Y226260D01*
X7687932Y513158D01*
X7575990Y783411D01*
X7413475Y1026632D01*
X7206632Y1233475D01*
X7032240Y1350000D01*
X7206632Y1466525D01*
X7413475Y1673368D01*
X7575990Y1916589D01*
X7687932Y2186842D01*
X7745000Y2473740D01*
X7745000Y2766260D01*
X7687932Y3053158D01*
X7575990Y3323411D01*
X7413475Y3566632D01*
X7206632Y3773475D01*
X7032240Y3890000D01*
X7206632Y4006525D01*
X7413475Y4213368D01*
X7575990Y4456589D01*
X7687932Y4726842D01*
X7745000Y5013740D01*
X7745000Y5306260D01*
X7687932Y5593158D01*
X7575990Y5863411D01*
X7413475Y6106632D01*
X7206632Y6313475D01*
X7032240Y6430000D01*
X7206632Y6546525D01*
X7413475Y6753368D01*
X7575990Y6996589D01*
X7687932Y7266842D01*
X7745000Y7553740D01*
X7745000Y7846260D01*
X7687932Y8133158D01*
X7575990Y8403411D01*
X7413475Y8646632D01*
X7206632Y8853475D01*
X7032240Y8970000D01*
X7206632Y9086525D01*
X7413475Y9293368D01*
X7575990Y9536589D01*
X7687932Y9806842D01*
X7745000Y10093740D01*
X7745000Y10386260D01*
X7687932Y10673158D01*
X7575990Y10943411D01*
X7413475Y11186632D01*
X7206632Y11393475D01*
X7032240Y11510000D01*
X7206632Y11626525D01*
X7413475Y11833368D01*
X7575990Y12076589D01*
X7687932Y12346842D01*
X7745000Y12633740D01*
X7745000Y12926260D01*
X7687932Y13213158D01*
X7575990Y13483411D01*
X7413475Y13726632D01*
X7206632Y13933475D01*
X7032240Y14050000D01*
X7206632Y14166525D01*
X7413475Y14373368D01*
X7575990Y14616589D01*
X7687932Y14886842D01*
X7745000Y15173740D01*
X7745000Y15466260D01*
X7687932Y15753158D01*
X7575990Y16023411D01*
X7413475Y16266632D01*
X7206632Y16473475D01*
X7032240Y16590000D01*
X7206632Y16706525D01*
X7413475Y16913368D01*
X7575990Y17156589D01*
X7687932Y17426842D01*
X7745000Y17713740D01*
X7745000Y18006260D01*
X7687932Y18293158D01*
X7575990Y18563411D01*
X7413475Y18806632D01*
X7206632Y19013475D01*
X7032240Y19130000D01*
X7206632Y19246525D01*
X7413475Y19453368D01*
X7575990Y19696589D01*
X7687932Y19966842D01*
X7745000Y20253740D01*
X7745000Y20546260D01*
X7687932Y20833158D01*
X7575990Y21103411D01*
X7413475Y21346632D01*
X7206632Y21553475D01*
X7032240Y21670000D01*
X7206632Y21786525D01*
X7413475Y21993368D01*
X7575990Y22236589D01*
X7687932Y22506842D01*
X7745000Y22793740D01*
X7745000Y23086260D01*
X7687932Y23373158D01*
X7575990Y23643411D01*
X7413475Y23886632D01*
X7206632Y24093475D01*
X6963411Y24255990D01*
X6693158Y24367932D01*
X6406260Y24425000D01*
X6113740Y24425000D01*
X5826842Y24367932D01*
X5556589Y24255990D01*
X5313368Y24093475D01*
X5106525Y23886632D01*
X4944010Y23643411D01*
X4832068Y23373158D01*
X4775000Y23086260D01*
X4775000Y22793740D01*
X4818790Y22573592D01*
X144879Y17899680D01*
X132519Y17914679D01*
X95373Y17945040D01*
X-4818197Y22576576D01*
X-4775000Y22793740D01*
X-4775000Y23086260D01*
X-4832068Y23373158D01*
X-4944010Y23643411D01*
X-5106525Y23886632D01*
X-5313368Y24093475D01*
X-5556589Y24255990D01*
X-5826842Y24367932D01*
X-6113740Y24425000D01*
X-6406260Y24425000D01*
X-6693158Y24367932D01*
X-6963411Y24255990D01*
X-7206632Y24093475D01*
X-7413475Y23886632D01*
X-7575990Y23643411D01*
X-7687932Y23373158D01*
X-7745000Y23086260D01*
X-7745000Y22793740D01*
X-7687932Y22506842D01*
X-7575990Y22236589D01*
X-7413475Y21993368D01*
X-7206632Y21786525D01*
X-7032240Y21670000D01*
X-7206632Y21553475D01*
X-7413475Y21346632D01*
X-7575990Y21103411D01*
X-7687932Y20833158D01*
X-7745000Y20546260D01*
X-7745000Y20253740D01*
X-7687932Y19966842D01*
X-7575990Y19696589D01*
X-7413475Y19453368D01*
X-7206632Y19246525D01*
X-7032240Y19130000D01*
X-7206632Y19013475D01*
X-7413475Y18806632D01*
X-7575990Y18563411D01*
X-7687932Y18293158D01*
X-7745000Y18006260D01*
X-7745000Y17713740D01*
X-7687932Y17426842D01*
X-7575990Y17156589D01*
X-7413475Y16913368D01*
X-7206632Y16706525D01*
X-7032240Y16590000D01*
X-7206632Y16473475D01*
X-7413475Y16266632D01*
X-7575990Y16023411D01*
X-7687932Y15753158D01*
X-7745000Y15466260D01*
X-7745000Y15173740D01*
X-7687932Y14886842D01*
X-7575990Y14616589D01*
X-7413475Y14373368D01*
X-7206632Y14166525D01*
X-7032240Y14050000D01*
X-7206632Y13933475D01*
X-7413475Y13726632D01*
X-7575990Y13483411D01*
X-7687932Y13213158D01*
X-7745000Y12926260D01*
X-7745000Y12633740D01*
X-7687932Y12346842D01*
X-7575990Y12076589D01*
X-7413475Y11833368D01*
X-7206632Y11626525D01*
X-7032240Y11510000D01*
X-7206632Y11393475D01*
X-7413475Y11186632D01*
X-7575990Y10943411D01*
X-7687932Y10673158D01*
X-7745000Y10386260D01*
X-7745000Y10093740D01*
X-7687932Y9806842D01*
X-7575990Y9536589D01*
X-7413475Y9293368D01*
X-7206632Y9086525D01*
X-7032240Y8970000D01*
X-7206632Y8853475D01*
X-7413475Y8646632D01*
X-7575990Y8403411D01*
X-7687932Y8133158D01*
X-7745000Y7846260D01*
X-7745000Y7553740D01*
X-7687932Y7266842D01*
X-7575990Y6996589D01*
X-7413475Y6753368D01*
X-7206632Y6546525D01*
X-7032240Y6430000D01*
X-7206632Y6313475D01*
X-7413475Y6106632D01*
X-7575990Y5863411D01*
X-7687932Y5593158D01*
X-7745000Y5306260D01*
X-7745000Y5013740D01*
X-7687932Y4726842D01*
X-7575990Y4456589D01*
X-7413475Y4213368D01*
X-7206632Y4006525D01*
X-7032240Y3890000D01*
X-7206632Y3773475D01*
X-7413475Y3566632D01*
X-7575990Y3323411D01*
X-7687932Y3053158D01*
X-7745000Y2766260D01*
X-7745000Y2473740D01*
X-7687932Y2186842D01*
X-7575990Y1916589D01*
X-7413475Y1673368D01*
X-7206632Y1466525D01*
X-7032240Y1350000D01*
X-7206632Y1233475D01*
X-7413475Y1026632D01*
X-7575990Y783411D01*
X-7687932Y513158D01*
X-7745000Y226260D01*
X-7745000Y-66260D01*
X-7687932Y-353158D01*
X-7575990Y-623411D01*
X-7413475Y-866632D01*
X-7206632Y-1073475D01*
X-7024466Y-1195195D01*
X-7141355Y-1264822D01*
X-7357588Y-1459731D01*
X-7531641Y-1693080D01*
X-7656825Y-1955901D01*
X-7701476Y-2103110D01*
X-7580155Y-2333000D01*
X-6387000Y-2333000D01*
X-6387000Y-2313000D01*
X-6133000Y-2313000D01*
X-6133000Y-2333000D01*
X-4939845Y-2333000D01*
X-4818524Y-2103110D01*
X-4863175Y-1955901D01*
X-4988359Y-1693080D01*
X-5162412Y-1459731D01*
X-5378645Y-1264822D01*
X-5495534Y-1195195D01*
X-5313368Y-1073475D01*
X-5106525Y-866632D01*
X-4944010Y-623411D01*
X-4832068Y-353158D01*
X-4775000Y-66260D01*
X-4775000Y226260D01*
X-4832068Y513158D01*
X-4944010Y783411D01*
X-5106525Y1026632D01*
X-5313368Y1233475D01*
X-5487760Y1350000D01*
X-5313368Y1466525D01*
X-5106525Y1673368D01*
X-4944010Y1916589D01*
X-4832068Y2186842D01*
X-4775000Y2473740D01*
X-4775000Y2600198D01*
X-4577796Y2402994D01*
X-4594902Y-6472342D01*
X-5251233Y-7074054D01*
X-5867237Y-7591498D01*
X-5918995Y-7633056D01*
X-5948515Y-7668251D01*
X-5980632Y-7701112D01*
X-5996513Y-7725478D01*
X-6015200Y-7747758D01*
X-6037287Y-7788037D01*
X-6062376Y-7826531D01*
X-6073197Y-7853525D01*
X-6087180Y-7879025D01*
X-6100987Y-7922849D01*
X-6118080Y-7965489D01*
X-6123427Y-7994075D01*
X-6132166Y-8021813D01*
X-6137158Y-8067486D01*
X-6145605Y-8112643D01*
X-6144846Y-8179036D01*
X-6242186Y-17280432D01*
X-6920364Y-17756600D01*
X-7025162Y-17756600D01*
X-7014328Y-17646600D01*
X-7014328Y-16846600D01*
X-7026588Y-16722118D01*
X-7060113Y-16611600D01*
X-7026588Y-16501082D01*
X-7014328Y-16376600D01*
X-7014328Y-15576600D01*
X-7026588Y-15452118D01*
X-7060113Y-15341600D01*
X-7026588Y-15231082D01*
X-7014328Y-15106600D01*
X-7017400Y-14992350D01*
X-7176150Y-14833600D01*
X-9025400Y-14833600D01*
X-9025400Y-14853600D01*
X-9279400Y-14853600D01*
X-9279400Y-14833600D01*
X-11128650Y-14833600D01*
X-11287400Y-14992350D01*
X-11290472Y-15106600D01*
X-11278212Y-15231082D01*
X-11244687Y-15341600D01*
X-11278212Y-15452118D01*
X-11290472Y-15576600D01*
X-11290472Y-16376600D01*
X-11278212Y-16501082D01*
X-11244687Y-16611600D01*
X-11278212Y-16722118D01*
X-11290472Y-16846600D01*
X-11290472Y-17646600D01*
X-11278212Y-17771082D01*
X-11244687Y-17881600D01*
X-11278212Y-17992118D01*
X-11290472Y-18116600D01*
X-11290472Y-18916600D01*
X-11278212Y-19041082D01*
X-11244687Y-19151600D01*
X-11278212Y-19262118D01*
X-11290472Y-19386600D01*
X-11290472Y-19392489D01*
X-11307626Y-19433902D01*
X-11347400Y-19633861D01*
X-11347400Y-19837739D01*
X-11307626Y-20037698D01*
X-11290472Y-20079111D01*
X-11290472Y-20186600D01*
X-11278212Y-20311082D01*
X-11244687Y-20421600D01*
X-11278212Y-20532118D01*
X-11290472Y-20656600D01*
X-11290472Y-20702768D01*
X-11333026Y-20805502D01*
X-11372800Y-21005461D01*
X-11372800Y-21209339D01*
X-11333026Y-21409298D01*
X-11283310Y-21529323D01*
X-11278212Y-21581082D01*
X-11244687Y-21691600D01*
X-11278212Y-21802118D01*
X-11290472Y-21926600D01*
X-11290472Y-22726600D01*
X-11278212Y-22851082D01*
X-11244687Y-22961600D01*
X-11278212Y-23072118D01*
X-11290472Y-23196600D01*
X-11290472Y-23996600D01*
X-11278212Y-24121082D01*
X-11244687Y-24231600D01*
X-11278212Y-24342118D01*
X-11290472Y-24466600D01*
X-11290472Y-25266600D01*
X-11278212Y-25391082D01*
X-11244687Y-25501600D01*
X-11278212Y-25612118D01*
X-11290472Y-25736600D01*
X-11290472Y-26536600D01*
X-11278212Y-26661082D01*
X-11244687Y-26771600D01*
X-11278212Y-26882118D01*
X-11290472Y-27006600D01*
X-11290472Y-27806600D01*
X-11278212Y-27931082D01*
X-11241902Y-28050780D01*
X-11182937Y-28161094D01*
X-11103585Y-28257785D01*
X-11006894Y-28337137D01*
X-10896580Y-28396102D01*
X-10776882Y-28432412D01*
X-10652400Y-28444672D01*
X-7652400Y-28444672D01*
X-7527918Y-28432412D01*
X-7408220Y-28396102D01*
X-7297906Y-28337137D01*
X-7201215Y-28257785D01*
X-7147227Y-28192000D01*
X-4843911Y-28192000D01*
X-4799974Y-28235937D01*
X-4630456Y-28349205D01*
X-4442098Y-28427226D01*
X-4242139Y-28467000D01*
X-4038261Y-28467000D01*
X-3838302Y-28427226D01*
X-3649944Y-28349205D01*
X-3480426Y-28235937D01*
X-3336263Y-28091774D01*
X-3222995Y-27922256D01*
X-3144974Y-27733898D01*
X-3105200Y-27533939D01*
X-3105200Y-27330061D01*
X-3119344Y-27258956D01*
X-1392935Y-25144591D01*
X-1346226Y-25087676D01*
X-1328093Y-25053752D01*
X-1306802Y-25021715D01*
X-1292894Y-24987901D01*
X-1275654Y-24955647D01*
X-1264487Y-24918834D01*
X-1249856Y-24883261D01*
X-1242812Y-24847379D01*
X-1232197Y-24812386D01*
X-1228426Y-24774100D01*
X-1221017Y-24736359D01*
X-1221200Y-24662910D01*
X-1221200Y-20567380D01*
X-1221031Y-20565576D01*
X-1221200Y-20530226D01*
X-1221200Y-20494545D01*
X-1221379Y-20492725D01*
X-1270615Y-10194126D01*
X92543Y-8665738D01*
X1195800Y-9849626D01*
X1195800Y-10015089D01*
X1151863Y-10059026D01*
X1038595Y-10228544D01*
X960574Y-10416902D01*
X920800Y-10616861D01*
X920800Y-10820739D01*
X960574Y-11020698D01*
X1038595Y-11209056D01*
X1151863Y-11378574D01*
X1296026Y-11522737D01*
X1465544Y-11636005D01*
X1603266Y-11693052D01*
X1668891Y-24642982D01*
X1667763Y-24709428D01*
X1675954Y-24754599D01*
X1680685Y-24800256D01*
X1689279Y-24828078D01*
X1694475Y-24856732D01*
X1711320Y-24899435D01*
X1724868Y-24943295D01*
X1756490Y-25001740D01*
X1780922Y-25049377D01*
X1782251Y-25053834D01*
X1815053Y-25115922D01*
X1829997Y-25145058D01*
X1832500Y-25148945D01*
X1852184Y-25186203D01*
X1872930Y-25211732D01*
X1890737Y-25239387D01*
X1920020Y-25269681D01*
X1922939Y-25273273D01*
X1946003Y-25296561D01*
X1994785Y-25347027D01*
X1998607Y-25349676D01*
X4540436Y-27916183D01*
X4565399Y-27946601D01*
X4621835Y-27992917D01*
X4678061Y-28039516D01*
X4679689Y-28040396D01*
X4681124Y-28041574D01*
X4745650Y-28076064D01*
X4809748Y-28110725D01*
X4811515Y-28111270D01*
X4813153Y-28112146D01*
X4883158Y-28133381D01*
X4952797Y-28154874D01*
X4954638Y-28155064D01*
X4956414Y-28155603D01*
X5029237Y-28162775D01*
X5101710Y-28170267D01*
X5140880Y-28166600D01*
X6821582Y-28166600D01*
X6896415Y-28257785D01*
X6993106Y-28337137D01*
X7103420Y-28396102D01*
X7223118Y-28432412D01*
X7347600Y-28444672D01*
X10347600Y-28444672D01*
X10472082Y-28432412D01*
X10591780Y-28396102D01*
X10702094Y-28337137D01*
X10798785Y-28257785D01*
X10878137Y-28161094D01*
X10937102Y-28050780D01*
X10973412Y-27931082D01*
X10985672Y-27806600D01*
X10985672Y-27006600D01*
X10973412Y-26882118D01*
X10939887Y-26771600D01*
X10973412Y-26661082D01*
X10985672Y-26536600D01*
X10985672Y-25736600D01*
X10973412Y-25612118D01*
X10939887Y-25501600D01*
X10973412Y-25391082D01*
X10985672Y-25266600D01*
X10985672Y-24466600D01*
X10973412Y-24342118D01*
X10939887Y-24231600D01*
X10973412Y-24121082D01*
X10985672Y-23996600D01*
X10985672Y-23196600D01*
X10973412Y-23072118D01*
X10939887Y-22961600D01*
X10973412Y-22851082D01*
X10985672Y-22726600D01*
X10985672Y-21926600D01*
X10973412Y-21802118D01*
X10939887Y-21691600D01*
X10973412Y-21581082D01*
X10985672Y-21456600D01*
X10985672Y-20656600D01*
X10973412Y-20532118D01*
X10939887Y-20421600D01*
X10973412Y-20311082D01*
X10985672Y-20186600D01*
X10985672Y-19386600D01*
X10973412Y-19262118D01*
X10939887Y-19151600D01*
X10973412Y-19041082D01*
X10985672Y-18916600D01*
X10985672Y-18116600D01*
X10973412Y-17992118D01*
X10939887Y-17881600D01*
X10973412Y-17771082D01*
X10985672Y-17646600D01*
X10985672Y-16846600D01*
X10973412Y-16722118D01*
X10939887Y-16611600D01*
X10973412Y-16501082D01*
X10985672Y-16376600D01*
X10985672Y-15576600D01*
X10973412Y-15452118D01*
X10939887Y-15341600D01*
X10973412Y-15231082D01*
X10985672Y-15106600D01*
X10985672Y-14306600D01*
X10973412Y-14182118D01*
X10939887Y-14071600D01*
X10973412Y-13961082D01*
X10985672Y-13836600D01*
X10985672Y-13036600D01*
X10973412Y-12912118D01*
X10937102Y-12792420D01*
X10878137Y-12682106D01*
X10798785Y-12585415D01*
X10702094Y-12506063D01*
X10591780Y-12447098D01*
X10472082Y-12410788D01*
X10347600Y-12398528D01*
X9656402Y-12398528D01*
X9725011Y-10914475D01*
X9726983Y-10885433D01*
X9726733Y-10877217D01*
X9727113Y-10869005D01*
X9725600Y-10839930D01*
X9618639Y-7319781D01*
X9835091Y-7424784D01*
X9891181Y-7445508D01*
X9947021Y-7467031D01*
X9955919Y-7469428D01*
X10211205Y-7536298D01*
X10270253Y-7545733D01*
X10329204Y-7555999D01*
X10338399Y-7556622D01*
X10591091Y-7571982D01*
X10612651Y-7574000D01*
X17914703Y-7538447D01*
X18091917Y-7549220D01*
X18222000Y-7583294D01*
X18342985Y-7641985D01*
X18450273Y-7723062D01*
X18539761Y-7823426D01*
X18608054Y-7939266D01*
X18655303Y-8074022D01*
X18669532Y-8158551D01*
X18729613Y-33327032D01*
X-17598625Y-33372901D01*
X-17645295Y-13836600D01*
X-11290472Y-13836600D01*
X-11278212Y-13961082D01*
X-11244687Y-14071600D01*
X-11278212Y-14182118D01*
X-11290472Y-14306600D01*
X-11287400Y-14420850D01*
X-11128650Y-14579600D01*
X-9279400Y-14579600D01*
X-9279400Y-13563600D01*
X-9025400Y-13563600D01*
X-9025400Y-14579600D01*
X-7176150Y-14579600D01*
X-7017400Y-14420850D01*
X-7014328Y-14306600D01*
X-7026588Y-14182118D01*
X-7060113Y-14071600D01*
X-7026588Y-13961082D01*
X-7014328Y-13836600D01*
X-7017400Y-13722350D01*
X-7176150Y-13563600D01*
X-9025400Y-13563600D01*
X-9279400Y-13563600D01*
X-11128650Y-13563600D01*
X-11287400Y-13722350D01*
X-11290472Y-13836600D01*
X-17645295Y-13836600D01*
X-17647206Y-13036600D01*
X-11290472Y-13036600D01*
X-11287400Y-13150850D01*
X-11128650Y-13309600D01*
X-9279400Y-13309600D01*
X-9279400Y-12560350D01*
X-9025400Y-12560350D01*
X-9025400Y-13309600D01*
X-7176150Y-13309600D01*
X-7017400Y-13150850D01*
X-7014328Y-13036600D01*
X-7026588Y-12912118D01*
X-7062898Y-12792420D01*
X-7121863Y-12682106D01*
X-7201215Y-12585415D01*
X-7297906Y-12506063D01*
X-7408220Y-12447098D01*
X-7527918Y-12410788D01*
X-7652400Y-12398528D01*
X-8866650Y-12401600D01*
X-9025400Y-12560350D01*
X-9279400Y-12560350D01*
X-9438150Y-12401600D01*
X-10652400Y-12398528D01*
X-10776882Y-12410788D01*
X-10896580Y-12447098D01*
X-11006894Y-12506063D01*
X-11103585Y-12585415D01*
X-11182937Y-12682106D01*
X-11241902Y-12792420D01*
X-11278212Y-12912118D01*
X-11290472Y-13036600D01*
X-17647206Y-13036600D01*
X-17658403Y-8349720D01*
X-17647580Y-8171683D01*
X-17613506Y-8041600D01*
X-17554815Y-7920615D01*
X-17473738Y-7813327D01*
X-17373374Y-7723839D01*
X-17257534Y-7655546D01*
X-17122778Y-7608297D01*
X-17039034Y-7594200D01*
X-9746581Y-7594200D01*
X-9649617Y-7584650D01*
X-9627814Y-7578036D01*
X-9475698Y-7552429D01*
X-9425891Y-7538938D01*
X-9375603Y-7527401D01*
X-9366886Y-7524413D01*
X-9117851Y-7437096D01*
X-9063619Y-7411898D01*
X-9009008Y-7387445D01*
X-9001037Y-7382820D01*
X-8773704Y-7248796D01*
X-8725414Y-7213554D01*
X-8676576Y-7178948D01*
X-8669656Y-7172863D01*
X-8472685Y-6997236D01*
X-8432159Y-6953286D01*
X-8390972Y-6909851D01*
X-8385365Y-6902538D01*
X-8226259Y-6691997D01*
X-8195007Y-6640954D01*
X-8163079Y-6590408D01*
X-8158999Y-6582145D01*
X-8043816Y-6344709D01*
X-8023092Y-6288619D01*
X-8001569Y-6232779D01*
X-7999172Y-6223881D01*
X-7932302Y-5968595D01*
X-7922867Y-5909547D01*
X-7912601Y-5850596D01*
X-7912561Y-5850000D01*
X-7748072Y-5850000D01*
X-7735812Y-5974482D01*
X-7699502Y-6094180D01*
X-7640537Y-6204494D01*
X-7561185Y-6301185D01*
X-7464494Y-6380537D01*
X-7354180Y-6439502D01*
X-7234482Y-6475812D01*
X-7110000Y-6488072D01*
X-6545750Y-6485000D01*
X-6387000Y-6326250D01*
X-6387000Y-5127000D01*
X-6133000Y-5127000D01*
X-6133000Y-6326250D01*
X-5974250Y-6485000D01*
X-5410000Y-6488072D01*
X-5285518Y-6475812D01*
X-5165820Y-6439502D01*
X-5055506Y-6380537D01*
X-4958815Y-6301185D01*
X-4879463Y-6204494D01*
X-4820498Y-6094180D01*
X-4784188Y-5974482D01*
X-4771928Y-5850000D01*
X-4775000Y-5285750D01*
X-4933750Y-5127000D01*
X-6133000Y-5127000D01*
X-6387000Y-5127000D01*
X-7586250Y-5127000D01*
X-7745000Y-5285750D01*
X-7748072Y-5850000D01*
X-7912561Y-5850000D01*
X-7911978Y-5841401D01*
X-7896680Y-5589733D01*
X-7894696Y-5569231D01*
X-7897130Y-4150000D01*
X-7748072Y-4150000D01*
X-7745000Y-4714250D01*
X-7586250Y-4873000D01*
X-6387000Y-4873000D01*
X-6387000Y-2587000D01*
X-6133000Y-2587000D01*
X-6133000Y-4873000D01*
X-4933750Y-4873000D01*
X-4775000Y-4714250D01*
X-4771928Y-4150000D01*
X-4784188Y-4025518D01*
X-4820498Y-3905820D01*
X-4879463Y-3795506D01*
X-4958815Y-3698815D01*
X-5055506Y-3619463D01*
X-5165820Y-3560498D01*
X-5246466Y-3536034D01*
X-5162412Y-3460269D01*
X-4988359Y-3226920D01*
X-4863175Y-2964099D01*
X-4818524Y-2816890D01*
X-4939845Y-2587000D01*
X-6133000Y-2587000D01*
X-6387000Y-2587000D01*
X-7580155Y-2587000D01*
X-7701476Y-2816890D01*
X-7656825Y-2964099D01*
X-7531641Y-3226920D01*
X-7357588Y-3460269D01*
X-7273534Y-3536034D01*
X-7354180Y-3560498D01*
X-7464494Y-3619463D01*
X-7561185Y-3698815D01*
X-7640537Y-3795506D01*
X-7699502Y-3905820D01*
X-7735812Y-4025518D01*
X-7748072Y-4150000D01*
X-7897130Y-4150000D01*
X-7950657Y27059150D01*
X-7960373Y27156098D01*
X-7966858Y27177343D01*
X-7992371Y27328902D01*
X-8005860Y27378702D01*
X-8017399Y27428996D01*
X-8020387Y27437714D01*
X-8107703Y27686749D01*
X-8132904Y27740986D01*
X-8157355Y27795593D01*
X-8161980Y27803563D01*
X-8296004Y28030896D01*
X-8331275Y28079227D01*
X-8365853Y28128024D01*
X-8371937Y28134945D01*
X-8547564Y28331915D01*
X-8591514Y28372441D01*
X-8634949Y28413628D01*
X-8642263Y28419235D01*
X-8852803Y28578341D01*
X-8903855Y28609599D01*
X-8954392Y28641521D01*
X-8962655Y28645601D01*
X-9200091Y28760784D01*
X-9256181Y28781508D01*
X-9312021Y28803031D01*
X-9320919Y28805428D01*
X-9576205Y28872298D01*
X-9635265Y28881735D01*
X-9694205Y28891999D01*
X-9703399Y28892622D01*
X-9954959Y28907914D01*
X-9975358Y28909894D01*
X-17227761Y28899778D01*
X-17406117Y28910620D01*
X-17536200Y28944694D01*
X-17657187Y29003386D01*
X-17764470Y29084460D01*
X-17853961Y29184827D01*
X-17922254Y29300665D01*
X-17960606Y29410049D01*
X-17958587Y29430631D01*
X-17963664Y41970068D01*
X-17973617Y42070700D01*
X-17978313Y42086158D01*
X-17977780Y42094917D01*
X-17943706Y42225000D01*
X-17885015Y42345985D01*
X-17803938Y42453273D01*
X-17703574Y42542761D01*
X-17587734Y42611054D01*
X-17478428Y42649380D01*
X-17459423Y42647469D01*
G37*
X-17459423Y42647469D02*
X18016214Y42576184D01*
X18116869Y42585894D01*
X18133606Y42590934D01*
X18142717Y42590380D01*
X18272800Y42556306D01*
X18393785Y42497615D01*
X18501073Y42416538D01*
X18590561Y42316174D01*
X18658854Y42200334D01*
X18697206Y42090953D01*
X18695187Y42070369D01*
X18700264Y29530932D01*
X18710217Y29430300D01*
X18714913Y29414842D01*
X18714380Y29406083D01*
X18680306Y29276000D01*
X18621614Y29155013D01*
X18540540Y29047730D01*
X18440173Y28958239D01*
X18324335Y28889946D01*
X18189574Y28842697D01*
X18105834Y28828600D01*
X10559381Y28828600D01*
X10462417Y28819050D01*
X10440614Y28812436D01*
X10288498Y28786829D01*
X10238698Y28773340D01*
X10188404Y28761801D01*
X10179686Y28758813D01*
X9930651Y28671497D01*
X9876414Y28646296D01*
X9821807Y28621845D01*
X9813837Y28617220D01*
X9586504Y28483196D01*
X9538173Y28447925D01*
X9489376Y28413347D01*
X9482455Y28407263D01*
X9421400Y28352824D01*
X9421400Y30038199D01*
X10671009Y31287806D01*
X10700001Y31311599D01*
X10723795Y31340592D01*
X10723799Y31340596D01*
X10794973Y31427323D01*
X10794974Y31427324D01*
X10865546Y31559353D01*
X10909003Y31702614D01*
X10920000Y31814267D01*
X10920000Y31814276D01*
X10923676Y31851599D01*
X10920000Y31888922D01*
X10920000Y32995465D01*
X11115302Y33125961D01*
X11324039Y33334698D01*
X11430000Y33493281D01*
X11535961Y33334698D01*
X11744698Y33125961D01*
X11990147Y32961958D01*
X12262875Y32848990D01*
X12552401Y32791400D01*
X12847599Y32791400D01*
X13137125Y32848990D01*
X13409853Y32961958D01*
X13655302Y33125961D01*
X13864039Y33334698D01*
X13994535Y33530000D01*
X15812267Y33530000D01*
X15849600Y33526323D01*
X15886933Y33530000D01*
X16115533Y33530000D01*
X16227186Y33540997D01*
X16370447Y33584454D01*
X16502476Y33655026D01*
X16618201Y33749999D01*
X16713174Y33865724D01*
X16783746Y33997753D01*
X16827203Y34141014D01*
X16841877Y34290000D01*
X16827203Y34438986D01*
X16783746Y34582247D01*
X16713174Y34714276D01*
X16618201Y34830001D01*
X16609600Y34837060D01*
X16609600Y41517076D01*
X16613276Y41554399D01*
X16609600Y41591722D01*
X16609600Y41591733D01*
X16598603Y41703386D01*
X16555146Y41846647D01*
X16484574Y41978676D01*
X16389601Y42094401D01*
X16273876Y42189374D01*
X16141847Y42259946D01*
X15998586Y42303403D01*
X15849600Y42318077D01*
X15700615Y42303403D01*
X15557354Y42259946D01*
X15425325Y42189374D01*
X15361020Y42136600D01*
X-14949445Y42136600D01*
X-15013010Y42138475D01*
X-15061063Y42130382D01*
X-15109586Y42125603D01*
X-15134732Y42117975D01*
X-15160639Y42113612D01*
X-15206192Y42096298D01*
X-15252847Y42082146D01*
X-15276027Y42069756D01*
X-15300577Y42060425D01*
X-15341876Y42034559D01*
X-15384876Y42011574D01*
X-15405189Y41994904D01*
X-15427453Y41980959D01*
X-15462917Y41947527D01*
X-15500601Y41916601D01*
X-15517271Y41896288D01*
X-15536387Y41878268D01*
X-15564647Y41838561D01*
X-15595574Y41800876D01*
X-15607962Y41777700D01*
X-15623194Y41756298D01*
X-15643161Y41711849D01*
X-15666146Y41668847D01*
X-15673776Y41643694D01*
X-15684538Y41619736D01*
X-15695450Y41572242D01*
X-15709603Y41525586D01*
X-15715842Y41462238D01*
X-15956421Y39588072D01*
X-16090000Y39588072D01*
X-16214482Y39575812D01*
X-16334180Y39539502D01*
X-16444494Y39480537D01*
X-16541185Y39401185D01*
X-16620537Y39304494D01*
X-16679502Y39194180D01*
X-16715812Y39074482D01*
X-16728072Y38950000D01*
X-16728072Y37250000D01*
X-16715812Y37125518D01*
X-16679502Y37005820D01*
X-16620537Y36895506D01*
X-16541185Y36798815D01*
X-16444494Y36719463D01*
X-16334180Y36660498D01*
X-16261620Y36638487D01*
X-16393475Y36506632D01*
X-16555990Y36263411D01*
X-16667932Y35993158D01*
X-16725000Y35706260D01*
X-16725000Y35413740D01*
X-16667932Y35126842D01*
X-16555990Y34856589D01*
X-16393475Y34613368D01*
X-16186632Y34406525D01*
X-16012240Y34290000D01*
X-16186632Y34173475D01*
X-16393475Y33966632D01*
X-16555990Y33723411D01*
X-16667932Y33453158D01*
X-16725000Y33166260D01*
X-16725000Y32873740D01*
X-16667932Y32586842D01*
X-16555990Y32316589D01*
X-16393475Y32073368D01*
X-16186632Y31866525D01*
X-15943411Y31704010D01*
X-15673158Y31592068D01*
X-15386260Y31535000D01*
X-15093740Y31535000D01*
X-14806842Y31592068D01*
X-14536589Y31704010D01*
X-14293368Y31866525D01*
X-14086525Y32073368D01*
X-13924010Y32316589D01*
X-13812068Y32586842D01*
X-13755000Y32873740D01*
X-13755000Y33166260D01*
X-13812068Y33453158D01*
X-13924010Y33723411D01*
X-14086525Y33966632D01*
X-14293368Y34173475D01*
X-14467760Y34290000D01*
X-14293368Y34406525D01*
X-14086525Y34613368D01*
X-13924010Y34856589D01*
X-13812068Y35126842D01*
X-13755000Y35413740D01*
X-13755000Y35706260D01*
X-13812068Y35993158D01*
X-13924010Y36263411D01*
X-14086525Y36506632D01*
X-14218380Y36638487D01*
X-14145820Y36660498D01*
X-14035506Y36719463D01*
X-13938815Y36798815D01*
X-13859463Y36895506D01*
X-13800498Y37005820D01*
X-13764188Y37125518D01*
X-13751928Y37250000D01*
X-13751928Y38187600D01*
X-11728072Y38187600D01*
X-11725000Y37598350D01*
X-11566250Y37439600D01*
X-10504500Y37439600D01*
X-10504500Y38663850D01*
X-10250500Y38663850D01*
X-10250500Y37439600D01*
X-9188750Y37439600D01*
X-9030000Y37598350D01*
X-9028232Y37937600D01*
X-8753072Y37937600D01*
X-8753072Y36687600D01*
X-8736008Y36514346D01*
X-8685472Y36347750D01*
X-8603405Y36194214D01*
X-8492962Y36059638D01*
X-8358386Y35949195D01*
X-8204850Y35867128D01*
X-8162500Y35854281D01*
X-8162499Y33690919D01*
X-8204850Y33678072D01*
X-8358386Y33596005D01*
X-8492962Y33485562D01*
X-8603405Y33350986D01*
X-8685472Y33197450D01*
X-8736008Y33030854D01*
X-8753072Y32857600D01*
X-8753072Y31607600D01*
X-8736008Y31434346D01*
X-8685472Y31267750D01*
X-8603405Y31114214D01*
X-8492962Y30979638D01*
X-8358386Y30869195D01*
X-8204850Y30787128D01*
X-8038254Y30736592D01*
X-7865000Y30719528D01*
X-6940000Y30719528D01*
X-6766746Y30736592D01*
X-6600150Y30787128D01*
X-6446614Y30869195D01*
X-6312038Y30979638D01*
X-6201595Y31114214D01*
X-6119528Y31267750D01*
X-6068992Y31434346D01*
X-6051928Y31607600D01*
X-6051928Y32857600D01*
X-6068992Y33030854D01*
X-6119528Y33197450D01*
X-6201595Y33350986D01*
X-6312038Y33485562D01*
X-6446614Y33596005D01*
X-6600150Y33678072D01*
X-6642500Y33690919D01*
X-6642500Y35854281D01*
X-6600150Y35867128D01*
X-6446614Y35949195D01*
X-6312038Y36059638D01*
X-6201595Y36194214D01*
X-6119528Y36347750D01*
X-6068992Y36514346D01*
X-6051928Y36687600D01*
X-6051928Y37937600D01*
X-6068992Y38110854D01*
X-6119528Y38277450D01*
X-6201595Y38430986D01*
X-6312038Y38565562D01*
X-6446614Y38676005D01*
X-6600150Y38758072D01*
X-6766746Y38808608D01*
X-6940000Y38825672D01*
X-7865000Y38825672D01*
X-8038254Y38808608D01*
X-8204850Y38758072D01*
X-8358386Y38676005D01*
X-8492962Y38565562D01*
X-8603405Y38430986D01*
X-8685472Y38277450D01*
X-8736008Y38110854D01*
X-8753072Y37937600D01*
X-9028232Y37937600D01*
X-9026928Y38187600D01*
X-9039188Y38312082D01*
X-9075498Y38431780D01*
X-9134463Y38542094D01*
X-9213815Y38638785D01*
X-9310506Y38718137D01*
X-9420820Y38777102D01*
X-9540518Y38813412D01*
X-9665000Y38825672D01*
X-10091750Y38822600D01*
X-10250500Y38663850D01*
X-10504500Y38663850D01*
X-10663250Y38822600D01*
X-11090000Y38825672D01*
X-11214482Y38813412D01*
X-11334180Y38777102D01*
X-11444494Y38718137D01*
X-11541185Y38638785D01*
X-11620537Y38542094D01*
X-11679502Y38431780D01*
X-11715812Y38312082D01*
X-11728072Y38187600D01*
X-13751928Y38187600D01*
X-13751928Y38950000D01*
X-13764188Y39074482D01*
X-13800498Y39194180D01*
X-13859463Y39304494D01*
X-13938815Y39401185D01*
X-14035506Y39480537D01*
X-14145820Y39539502D01*
X-14265518Y39575812D01*
X-14390000Y39588072D01*
X-14423950Y39588072D01*
X-14291922Y40616600D01*
X15089601Y40616600D01*
X15089600Y35050000D01*
X13994535Y35050000D01*
X13864039Y35245302D01*
X13655302Y35454039D01*
X13496719Y35560000D01*
X13655302Y35665961D01*
X13864039Y35874698D01*
X14028042Y36120147D01*
X14141010Y36392875D01*
X14198600Y36682401D01*
X14198600Y36977599D01*
X14141010Y37267125D01*
X14028042Y37539853D01*
X13864039Y37785302D01*
X13655302Y37994039D01*
X13409853Y38158042D01*
X13137125Y38271010D01*
X12847599Y38328600D01*
X12552401Y38328600D01*
X12262875Y38271010D01*
X11990147Y38158042D01*
X11744698Y37994039D01*
X11535961Y37785302D01*
X11430000Y37626719D01*
X11324039Y37785302D01*
X11115302Y37994039D01*
X10869853Y38158042D01*
X10597125Y38271010D01*
X10307599Y38328600D01*
X10012401Y38328600D01*
X9722875Y38271010D01*
X9450147Y38158042D01*
X9204698Y37994039D01*
X8995961Y37785302D01*
X8890000Y37626719D01*
X8784039Y37785302D01*
X8575302Y37994039D01*
X8329853Y38158042D01*
X8057125Y38271010D01*
X7767599Y38328600D01*
X7472401Y38328600D01*
X7182875Y38271010D01*
X6910147Y38158042D01*
X6664698Y37994039D01*
X6455961Y37785302D01*
X6350000Y37626719D01*
X6244039Y37785302D01*
X6035302Y37994039D01*
X5789853Y38158042D01*
X5517125Y38271010D01*
X5227599Y38328600D01*
X4932401Y38328600D01*
X4642875Y38271010D01*
X4370147Y38158042D01*
X4124698Y37994039D01*
X3915961Y37785302D01*
X3810000Y37626719D01*
X3704039Y37785302D01*
X3495302Y37994039D01*
X3249853Y38158042D01*
X2977125Y38271010D01*
X2687599Y38328600D01*
X2392401Y38328600D01*
X2102875Y38271010D01*
X1830147Y38158042D01*
X1584698Y37994039D01*
X1375961Y37785302D01*
X1211958Y37539853D01*
X1098990Y37267125D01*
X1041400Y36977599D01*
X1041400Y36682401D01*
X1087224Y36452026D01*
X-4734401Y30630400D01*
X-9603200Y30630400D01*
X-9603200Y30778619D01*
X-9575150Y30787128D01*
X-9421614Y30869195D01*
X-9287038Y30979638D01*
X-9176595Y31114214D01*
X-9094528Y31267750D01*
X-9043992Y31434346D01*
X-9026928Y31607600D01*
X-9026928Y32857600D01*
X-9043992Y33030854D01*
X-9094528Y33197450D01*
X-9176595Y33350986D01*
X-9287038Y33485562D01*
X-9421614Y33596005D01*
X-9575150Y33678072D01*
X-9628600Y33694286D01*
X-9628600Y34856289D01*
X-9584663Y34900226D01*
X-9471395Y35069744D01*
X-9393374Y35258102D01*
X-9353600Y35458061D01*
X-9353600Y35661939D01*
X-9393374Y35861898D01*
X-9393669Y35862611D01*
X-9310506Y35907063D01*
X-9213815Y35986415D01*
X-9134463Y36083106D01*
X-9075498Y36193420D01*
X-9039188Y36313118D01*
X-9026928Y36437600D01*
X-9030000Y37026850D01*
X-9188750Y37185600D01*
X-10250500Y37185600D01*
X-10250500Y37165600D01*
X-10504500Y37165600D01*
X-10504500Y37185600D01*
X-11566250Y37185600D01*
X-11725000Y37026850D01*
X-11728072Y36437600D01*
X-11715812Y36313118D01*
X-11679502Y36193420D01*
X-11620537Y36083106D01*
X-11541185Y35986415D01*
X-11444494Y35907063D01*
X-11379507Y35872326D01*
X-11383826Y35861898D01*
X-11423600Y35661939D01*
X-11423600Y35458061D01*
X-11383826Y35258102D01*
X-11305805Y35069744D01*
X-11192537Y34900226D01*
X-11148600Y34856289D01*
X-11148599Y33687552D01*
X-11179850Y33678072D01*
X-11333386Y33596005D01*
X-11467962Y33485562D01*
X-11578405Y33350986D01*
X-11660472Y33197450D01*
X-11711008Y33030854D01*
X-11728072Y32857600D01*
X-11728072Y31607600D01*
X-11711008Y31434346D01*
X-11660472Y31267750D01*
X-11578405Y31114214D01*
X-11467962Y30979638D01*
X-11333386Y30869195D01*
X-11179850Y30787128D01*
X-11123200Y30769943D01*
X-11123199Y29907742D01*
X-11126877Y29870400D01*
X-11112203Y29721414D01*
X-11068746Y29578153D01*
X-10998174Y29446124D01*
X-10903201Y29330399D01*
X-10787476Y29235426D01*
X-10655447Y29164854D01*
X-10512186Y29121397D01*
X-10400533Y29110400D01*
X-10363200Y29106723D01*
X-10325867Y29110400D01*
X-4456922Y29110400D01*
X-4419600Y29106724D01*
X-4382278Y29110400D01*
X-4382267Y29110400D01*
X-4270614Y29121397D01*
X-4127353Y29164854D01*
X-3995324Y29235426D01*
X-3879599Y29330399D01*
X-3855796Y29359403D01*
X1041400Y34256598D01*
X1041400Y34162998D01*
X1200148Y34162998D01*
X1041400Y34004250D01*
X1038328Y33426400D01*
X1050588Y33301918D01*
X1086898Y33182220D01*
X1145863Y33071906D01*
X1225215Y32975215D01*
X1321906Y32895863D01*
X1432220Y32836898D01*
X1551918Y32800588D01*
X1676400Y32788328D01*
X2254250Y32791400D01*
X2413000Y32950150D01*
X2413000Y34163000D01*
X2393000Y34163000D01*
X2393000Y34417000D01*
X2413000Y34417000D01*
X2413000Y34437000D01*
X2667000Y34437000D01*
X2667000Y34417000D01*
X2687000Y34417000D01*
X2687000Y34163000D01*
X2667000Y34163000D01*
X2667000Y32950150D01*
X2825750Y32791400D01*
X3403600Y32788328D01*
X3528082Y32800588D01*
X3647780Y32836898D01*
X3758094Y32895863D01*
X3854785Y32975215D01*
X3934137Y33071906D01*
X3993102Y33182220D01*
X4010636Y33240023D01*
X4124698Y33125961D01*
X4370147Y32961958D01*
X4642875Y32848990D01*
X4932401Y32791400D01*
X5227599Y32791400D01*
X5517125Y32848990D01*
X5789853Y32961958D01*
X6035302Y33125961D01*
X6244039Y33334698D01*
X6350000Y33493281D01*
X6455961Y33334698D01*
X6664698Y33125961D01*
X6910147Y32961958D01*
X7182875Y32848990D01*
X7472401Y32791400D01*
X7767599Y32791400D01*
X8057125Y32848990D01*
X8329853Y32961958D01*
X8575302Y33125961D01*
X8784039Y33334698D01*
X8890000Y33493281D01*
X8995961Y33334698D01*
X9204698Y33125961D01*
X9400000Y32995465D01*
X9400000Y32166403D01*
X8150398Y30916799D01*
X8121400Y30893001D01*
X8097602Y30864003D01*
X8097601Y30864002D01*
X8026426Y30777276D01*
X7955854Y30645246D01*
X7912398Y30501985D01*
X7897724Y30353000D01*
X7901401Y30315667D01*
X7901400Y-3383798D01*
X7572543Y-3712655D01*
X7561185Y-3698815D01*
X7464494Y-3619463D01*
X7354180Y-3560498D01*
X7281620Y-3538487D01*
X7413475Y-3406632D01*
X7575990Y-3163411D01*
X7687932Y-2893158D01*
X7745000Y-2606260D01*
X7745000Y-2313740D01*
X7687932Y-2026842D01*
X7575990Y-1756589D01*
X7413475Y-1513368D01*
X7206632Y-1306525D01*
X7032240Y-1190000D01*
X7206632Y-1073475D01*
X7413475Y-866632D01*
X7575990Y-623411D01*
X7687932Y-353158D01*
X7745000Y-66260D01*
X7745000Y226260D01*
X7687932Y513158D01*
X7575990Y783411D01*
X7413475Y1026632D01*
X7206632Y1233475D01*
X7032240Y1350000D01*
X7206632Y1466525D01*
X7413475Y1673368D01*
X7575990Y1916589D01*
X7687932Y2186842D01*
X7745000Y2473740D01*
X7745000Y2766260D01*
X7687932Y3053158D01*
X7575990Y3323411D01*
X7413475Y3566632D01*
X7206632Y3773475D01*
X7032240Y3890000D01*
X7206632Y4006525D01*
X7413475Y4213368D01*
X7575990Y4456589D01*
X7687932Y4726842D01*
X7745000Y5013740D01*
X7745000Y5306260D01*
X7687932Y5593158D01*
X7575990Y5863411D01*
X7413475Y6106632D01*
X7206632Y6313475D01*
X7032240Y6430000D01*
X7206632Y6546525D01*
X7413475Y6753368D01*
X7575990Y6996589D01*
X7687932Y7266842D01*
X7745000Y7553740D01*
X7745000Y7846260D01*
X7687932Y8133158D01*
X7575990Y8403411D01*
X7413475Y8646632D01*
X7206632Y8853475D01*
X7032240Y8970000D01*
X7206632Y9086525D01*
X7413475Y9293368D01*
X7575990Y9536589D01*
X7687932Y9806842D01*
X7745000Y10093740D01*
X7745000Y10386260D01*
X7687932Y10673158D01*
X7575990Y10943411D01*
X7413475Y11186632D01*
X7206632Y11393475D01*
X7032240Y11510000D01*
X7206632Y11626525D01*
X7413475Y11833368D01*
X7575990Y12076589D01*
X7687932Y12346842D01*
X7745000Y12633740D01*
X7745000Y12926260D01*
X7687932Y13213158D01*
X7575990Y13483411D01*
X7413475Y13726632D01*
X7206632Y13933475D01*
X7032240Y14050000D01*
X7206632Y14166525D01*
X7413475Y14373368D01*
X7575990Y14616589D01*
X7687932Y14886842D01*
X7745000Y15173740D01*
X7745000Y15466260D01*
X7687932Y15753158D01*
X7575990Y16023411D01*
X7413475Y16266632D01*
X7206632Y16473475D01*
X7032240Y16590000D01*
X7206632Y16706525D01*
X7413475Y16913368D01*
X7575990Y17156589D01*
X7687932Y17426842D01*
X7745000Y17713740D01*
X7745000Y18006260D01*
X7687932Y18293158D01*
X7575990Y18563411D01*
X7413475Y18806632D01*
X7206632Y19013475D01*
X7032240Y19130000D01*
X7206632Y19246525D01*
X7413475Y19453368D01*
X7575990Y19696589D01*
X7687932Y19966842D01*
X7745000Y20253740D01*
X7745000Y20546260D01*
X7687932Y20833158D01*
X7575990Y21103411D01*
X7413475Y21346632D01*
X7206632Y21553475D01*
X7032240Y21670000D01*
X7206632Y21786525D01*
X7413475Y21993368D01*
X7575990Y22236589D01*
X7687932Y22506842D01*
X7745000Y22793740D01*
X7745000Y23086260D01*
X7687932Y23373158D01*
X7575990Y23643411D01*
X7413475Y23886632D01*
X7206632Y24093475D01*
X6963411Y24255990D01*
X6693158Y24367932D01*
X6406260Y24425000D01*
X6113740Y24425000D01*
X5826842Y24367932D01*
X5556589Y24255990D01*
X5313368Y24093475D01*
X5106525Y23886632D01*
X4944010Y23643411D01*
X4832068Y23373158D01*
X4775000Y23086260D01*
X4775000Y22793740D01*
X4818790Y22573592D01*
X144879Y17899680D01*
X132519Y17914679D01*
X95373Y17945040D01*
X-4818197Y22576576D01*
X-4775000Y22793740D01*
X-4775000Y23086260D01*
X-4832068Y23373158D01*
X-4944010Y23643411D01*
X-5106525Y23886632D01*
X-5313368Y24093475D01*
X-5556589Y24255990D01*
X-5826842Y24367932D01*
X-6113740Y24425000D01*
X-6406260Y24425000D01*
X-6693158Y24367932D01*
X-6963411Y24255990D01*
X-7206632Y24093475D01*
X-7413475Y23886632D01*
X-7575990Y23643411D01*
X-7687932Y23373158D01*
X-7745000Y23086260D01*
X-7745000Y22793740D01*
X-7687932Y22506842D01*
X-7575990Y22236589D01*
X-7413475Y21993368D01*
X-7206632Y21786525D01*
X-7032240Y21670000D01*
X-7206632Y21553475D01*
X-7413475Y21346632D01*
X-7575990Y21103411D01*
X-7687932Y20833158D01*
X-7745000Y20546260D01*
X-7745000Y20253740D01*
X-7687932Y19966842D01*
X-7575990Y19696589D01*
X-7413475Y19453368D01*
X-7206632Y19246525D01*
X-7032240Y19130000D01*
X-7206632Y19013475D01*
X-7413475Y18806632D01*
X-7575990Y18563411D01*
X-7687932Y18293158D01*
X-7745000Y18006260D01*
X-7745000Y17713740D01*
X-7687932Y17426842D01*
X-7575990Y17156589D01*
X-7413475Y16913368D01*
X-7206632Y16706525D01*
X-7032240Y16590000D01*
X-7206632Y16473475D01*
X-7413475Y16266632D01*
X-7575990Y16023411D01*
X-7687932Y15753158D01*
X-7745000Y15466260D01*
X-7745000Y15173740D01*
X-7687932Y14886842D01*
X-7575990Y14616589D01*
X-7413475Y14373368D01*
X-7206632Y14166525D01*
X-7032240Y14050000D01*
X-7206632Y13933475D01*
X-7413475Y13726632D01*
X-7575990Y13483411D01*
X-7687932Y13213158D01*
X-7745000Y12926260D01*
X-7745000Y12633740D01*
X-7687932Y12346842D01*
X-7575990Y12076589D01*
X-7413475Y11833368D01*
X-7206632Y11626525D01*
X-7032240Y11510000D01*
X-7206632Y11393475D01*
X-7413475Y11186632D01*
X-7575990Y10943411D01*
X-7687932Y10673158D01*
X-7745000Y10386260D01*
X-7745000Y10093740D01*
X-7687932Y9806842D01*
X-7575990Y9536589D01*
X-7413475Y9293368D01*
X-7206632Y9086525D01*
X-7032240Y8970000D01*
X-7206632Y8853475D01*
X-7413475Y8646632D01*
X-7575990Y8403411D01*
X-7687932Y8133158D01*
X-7745000Y7846260D01*
X-7745000Y7553740D01*
X-7687932Y7266842D01*
X-7575990Y6996589D01*
X-7413475Y6753368D01*
X-7206632Y6546525D01*
X-7032240Y6430000D01*
X-7206632Y6313475D01*
X-7413475Y6106632D01*
X-7575990Y5863411D01*
X-7687932Y5593158D01*
X-7745000Y5306260D01*
X-7745000Y5013740D01*
X-7687932Y4726842D01*
X-7575990Y4456589D01*
X-7413475Y4213368D01*
X-7206632Y4006525D01*
X-7032240Y3890000D01*
X-7206632Y3773475D01*
X-7413475Y3566632D01*
X-7575990Y3323411D01*
X-7687932Y3053158D01*
X-7745000Y2766260D01*
X-7745000Y2473740D01*
X-7687932Y2186842D01*
X-7575990Y1916589D01*
X-7413475Y1673368D01*
X-7206632Y1466525D01*
X-7032240Y1350000D01*
X-7206632Y1233475D01*
X-7413475Y1026632D01*
X-7575990Y783411D01*
X-7687932Y513158D01*
X-7745000Y226260D01*
X-7745000Y-66260D01*
X-7687932Y-353158D01*
X-7575990Y-623411D01*
X-7413475Y-866632D01*
X-7206632Y-1073475D01*
X-7024466Y-1195195D01*
X-7141355Y-1264822D01*
X-7357588Y-1459731D01*
X-7531641Y-1693080D01*
X-7656825Y-1955901D01*
X-7701476Y-2103110D01*
X-7580155Y-2333000D01*
X-6387000Y-2333000D01*
X-6387000Y-2313000D01*
X-6133000Y-2313000D01*
X-6133000Y-2333000D01*
X-4939845Y-2333000D01*
X-4818524Y-2103110D01*
X-4863175Y-1955901D01*
X-4988359Y-1693080D01*
X-5162412Y-1459731D01*
X-5378645Y-1264822D01*
X-5495534Y-1195195D01*
X-5313368Y-1073475D01*
X-5106525Y-866632D01*
X-4944010Y-623411D01*
X-4832068Y-353158D01*
X-4775000Y-66260D01*
X-4775000Y226260D01*
X-4832068Y513158D01*
X-4944010Y783411D01*
X-5106525Y1026632D01*
X-5313368Y1233475D01*
X-5487760Y1350000D01*
X-5313368Y1466525D01*
X-5106525Y1673368D01*
X-4944010Y1916589D01*
X-4832068Y2186842D01*
X-4775000Y2473740D01*
X-4775000Y2600198D01*
X-4577796Y2402994D01*
X-4594902Y-6472342D01*
X-5251233Y-7074054D01*
X-5867237Y-7591498D01*
X-5918995Y-7633056D01*
X-5948515Y-7668251D01*
X-5980632Y-7701112D01*
X-5996513Y-7725478D01*
X-6015200Y-7747758D01*
X-6037287Y-7788037D01*
X-6062376Y-7826531D01*
X-6073197Y-7853525D01*
X-6087180Y-7879025D01*
X-6100987Y-7922849D01*
X-6118080Y-7965489D01*
X-6123427Y-7994075D01*
X-6132166Y-8021813D01*
X-6137158Y-8067486D01*
X-6145605Y-8112643D01*
X-6144846Y-8179036D01*
X-6242186Y-17280432D01*
X-6920364Y-17756600D01*
X-7025162Y-17756600D01*
X-7014328Y-17646600D01*
X-7014328Y-16846600D01*
X-7026588Y-16722118D01*
X-7060113Y-16611600D01*
X-7026588Y-16501082D01*
X-7014328Y-16376600D01*
X-7014328Y-15576600D01*
X-7026588Y-15452118D01*
X-7060113Y-15341600D01*
X-7026588Y-15231082D01*
X-7014328Y-15106600D01*
X-7017400Y-14992350D01*
X-7176150Y-14833600D01*
X-9025400Y-14833600D01*
X-9025400Y-14853600D01*
X-9279400Y-14853600D01*
X-9279400Y-14833600D01*
X-11128650Y-14833600D01*
X-11287400Y-14992350D01*
X-11290472Y-15106600D01*
X-11278212Y-15231082D01*
X-11244687Y-15341600D01*
X-11278212Y-15452118D01*
X-11290472Y-15576600D01*
X-11290472Y-16376600D01*
X-11278212Y-16501082D01*
X-11244687Y-16611600D01*
X-11278212Y-16722118D01*
X-11290472Y-16846600D01*
X-11290472Y-17646600D01*
X-11278212Y-17771082D01*
X-11244687Y-17881600D01*
X-11278212Y-17992118D01*
X-11290472Y-18116600D01*
X-11290472Y-18916600D01*
X-11278212Y-19041082D01*
X-11244687Y-19151600D01*
X-11278212Y-19262118D01*
X-11290472Y-19386600D01*
X-11290472Y-19392489D01*
X-11307626Y-19433902D01*
X-11347400Y-19633861D01*
X-11347400Y-19837739D01*
X-11307626Y-20037698D01*
X-11290472Y-20079111D01*
X-11290472Y-20186600D01*
X-11278212Y-20311082D01*
X-11244687Y-20421600D01*
X-11278212Y-20532118D01*
X-11290472Y-20656600D01*
X-11290472Y-20702768D01*
X-11333026Y-20805502D01*
X-11372800Y-21005461D01*
X-11372800Y-21209339D01*
X-11333026Y-21409298D01*
X-11283310Y-21529323D01*
X-11278212Y-21581082D01*
X-11244687Y-21691600D01*
X-11278212Y-21802118D01*
X-11290472Y-21926600D01*
X-11290472Y-22726600D01*
X-11278212Y-22851082D01*
X-11244687Y-22961600D01*
X-11278212Y-23072118D01*
X-11290472Y-23196600D01*
X-11290472Y-23996600D01*
X-11278212Y-24121082D01*
X-11244687Y-24231600D01*
X-11278212Y-24342118D01*
X-11290472Y-24466600D01*
X-11290472Y-25266600D01*
X-11278212Y-25391082D01*
X-11244687Y-25501600D01*
X-11278212Y-25612118D01*
X-11290472Y-25736600D01*
X-11290472Y-26536600D01*
X-11278212Y-26661082D01*
X-11244687Y-26771600D01*
X-11278212Y-26882118D01*
X-11290472Y-27006600D01*
X-11290472Y-27806600D01*
X-11278212Y-27931082D01*
X-11241902Y-28050780D01*
X-11182937Y-28161094D01*
X-11103585Y-28257785D01*
X-11006894Y-28337137D01*
X-10896580Y-28396102D01*
X-10776882Y-28432412D01*
X-10652400Y-28444672D01*
X-7652400Y-28444672D01*
X-7527918Y-28432412D01*
X-7408220Y-28396102D01*
X-7297906Y-28337137D01*
X-7201215Y-28257785D01*
X-7147227Y-28192000D01*
X-4843911Y-28192000D01*
X-4799974Y-28235937D01*
X-4630456Y-28349205D01*
X-4442098Y-28427226D01*
X-4242139Y-28467000D01*
X-4038261Y-28467000D01*
X-3838302Y-28427226D01*
X-3649944Y-28349205D01*
X-3480426Y-28235937D01*
X-3336263Y-28091774D01*
X-3222995Y-27922256D01*
X-3144974Y-27733898D01*
X-3105200Y-27533939D01*
X-3105200Y-27330061D01*
X-3119344Y-27258956D01*
X-1392935Y-25144591D01*
X-1346226Y-25087676D01*
X-1328093Y-25053752D01*
X-1306802Y-25021715D01*
X-1292894Y-24987901D01*
X-1275654Y-24955647D01*
X-1264487Y-24918834D01*
X-1249856Y-24883261D01*
X-1242812Y-24847379D01*
X-1232197Y-24812386D01*
X-1228426Y-24774100D01*
X-1221017Y-24736359D01*
X-1221200Y-24662910D01*
X-1221200Y-20567380D01*
X-1221031Y-20565576D01*
X-1221200Y-20530226D01*
X-1221200Y-20494545D01*
X-1221379Y-20492725D01*
X-1270615Y-10194126D01*
X92543Y-8665738D01*
X1195800Y-9849626D01*
X1195800Y-10015089D01*
X1151863Y-10059026D01*
X1038595Y-10228544D01*
X960574Y-10416902D01*
X920800Y-10616861D01*
X920800Y-10820739D01*
X960574Y-11020698D01*
X1038595Y-11209056D01*
X1151863Y-11378574D01*
X1296026Y-11522737D01*
X1465544Y-11636005D01*
X1603266Y-11693052D01*
X1668891Y-24642982D01*
X1667763Y-24709428D01*
X1675954Y-24754599D01*
X1680685Y-24800256D01*
X1689279Y-24828078D01*
X1694475Y-24856732D01*
X1711320Y-24899435D01*
X1724868Y-24943295D01*
X1756490Y-25001740D01*
X1780922Y-25049377D01*
X1782251Y-25053834D01*
X1815053Y-25115922D01*
X1829997Y-25145058D01*
X1832500Y-25148945D01*
X1852184Y-25186203D01*
X1872930Y-25211732D01*
X1890737Y-25239387D01*
X1920020Y-25269681D01*
X1922939Y-25273273D01*
X1946003Y-25296561D01*
X1994785Y-25347027D01*
X1998607Y-25349676D01*
X4540436Y-27916183D01*
X4565399Y-27946601D01*
X4621835Y-27992917D01*
X4678061Y-28039516D01*
X4679689Y-28040396D01*
X4681124Y-28041574D01*
X4745650Y-28076064D01*
X4809748Y-28110725D01*
X4811515Y-28111270D01*
X4813153Y-28112146D01*
X4883158Y-28133381D01*
X4952797Y-28154874D01*
X4954638Y-28155064D01*
X4956414Y-28155603D01*
X5029237Y-28162775D01*
X5101710Y-28170267D01*
X5140880Y-28166600D01*
X6821582Y-28166600D01*
X6896415Y-28257785D01*
X6993106Y-28337137D01*
X7103420Y-28396102D01*
X7223118Y-28432412D01*
X7347600Y-28444672D01*
X10347600Y-28444672D01*
X10472082Y-28432412D01*
X10591780Y-28396102D01*
X10702094Y-28337137D01*
X10798785Y-28257785D01*
X10878137Y-28161094D01*
X10937102Y-28050780D01*
X10973412Y-27931082D01*
X10985672Y-27806600D01*
X10985672Y-27006600D01*
X10973412Y-26882118D01*
X10939887Y-26771600D01*
X10973412Y-26661082D01*
X10985672Y-26536600D01*
X10985672Y-25736600D01*
X10973412Y-25612118D01*
X10939887Y-25501600D01*
X10973412Y-25391082D01*
X10985672Y-25266600D01*
X10985672Y-24466600D01*
X10973412Y-24342118D01*
X10939887Y-24231600D01*
X10973412Y-24121082D01*
X10985672Y-23996600D01*
X10985672Y-23196600D01*
X10973412Y-23072118D01*
X10939887Y-22961600D01*
X10973412Y-22851082D01*
X10985672Y-22726600D01*
X10985672Y-21926600D01*
X10973412Y-21802118D01*
X10939887Y-21691600D01*
X10973412Y-21581082D01*
X10985672Y-21456600D01*
X10985672Y-20656600D01*
X10973412Y-20532118D01*
X10939887Y-20421600D01*
X10973412Y-20311082D01*
X10985672Y-20186600D01*
X10985672Y-19386600D01*
X10973412Y-19262118D01*
X10939887Y-19151600D01*
X10973412Y-19041082D01*
X10985672Y-18916600D01*
X10985672Y-18116600D01*
X10973412Y-17992118D01*
X10939887Y-17881600D01*
X10973412Y-17771082D01*
X10985672Y-17646600D01*
X10985672Y-16846600D01*
X10973412Y-16722118D01*
X10939887Y-16611600D01*
X10973412Y-16501082D01*
X10985672Y-16376600D01*
X10985672Y-15576600D01*
X10973412Y-15452118D01*
X10939887Y-15341600D01*
X10973412Y-15231082D01*
X10985672Y-15106600D01*
X10985672Y-14306600D01*
X10973412Y-14182118D01*
X10939887Y-14071600D01*
X10973412Y-13961082D01*
X10985672Y-13836600D01*
X10985672Y-13036600D01*
X10973412Y-12912118D01*
X10937102Y-12792420D01*
X10878137Y-12682106D01*
X10798785Y-12585415D01*
X10702094Y-12506063D01*
X10591780Y-12447098D01*
X10472082Y-12410788D01*
X10347600Y-12398528D01*
X9656402Y-12398528D01*
X9725011Y-10914475D01*
X9726983Y-10885433D01*
X9726733Y-10877217D01*
X9727113Y-10869005D01*
X9725600Y-10839930D01*
X9618639Y-7319781D01*
X9835091Y-7424784D01*
X9891181Y-7445508D01*
X9947021Y-7467031D01*
X9955919Y-7469428D01*
X10211205Y-7536298D01*
X10270253Y-7545733D01*
X10329204Y-7555999D01*
X10338399Y-7556622D01*
X10591091Y-7571982D01*
X10612651Y-7574000D01*
X17914703Y-7538447D01*
X18091917Y-7549220D01*
X18222000Y-7583294D01*
X18342985Y-7641985D01*
X18450273Y-7723062D01*
X18539761Y-7823426D01*
X18608054Y-7939266D01*
X18655303Y-8074022D01*
X18669532Y-8158551D01*
X18729613Y-33327032D01*
X-17598625Y-33372901D01*
X-17645295Y-13836600D01*
X-11290472Y-13836600D01*
X-11278212Y-13961082D01*
X-11244687Y-14071600D01*
X-11278212Y-14182118D01*
X-11290472Y-14306600D01*
X-11287400Y-14420850D01*
X-11128650Y-14579600D01*
X-9279400Y-14579600D01*
X-9279400Y-13563600D01*
X-9025400Y-13563600D01*
X-9025400Y-14579600D01*
X-7176150Y-14579600D01*
X-7017400Y-14420850D01*
X-7014328Y-14306600D01*
X-7026588Y-14182118D01*
X-7060113Y-14071600D01*
X-7026588Y-13961082D01*
X-7014328Y-13836600D01*
X-7017400Y-13722350D01*
X-7176150Y-13563600D01*
X-9025400Y-13563600D01*
X-9279400Y-13563600D01*
X-11128650Y-13563600D01*
X-11287400Y-13722350D01*
X-11290472Y-13836600D01*
X-17645295Y-13836600D01*
X-17647206Y-13036600D01*
X-11290472Y-13036600D01*
X-11287400Y-13150850D01*
X-11128650Y-13309600D01*
X-9279400Y-13309600D01*
X-9279400Y-12560350D01*
X-9025400Y-12560350D01*
X-9025400Y-13309600D01*
X-7176150Y-13309600D01*
X-7017400Y-13150850D01*
X-7014328Y-13036600D01*
X-7026588Y-12912118D01*
X-7062898Y-12792420D01*
X-7121863Y-12682106D01*
X-7201215Y-12585415D01*
X-7297906Y-12506063D01*
X-7408220Y-12447098D01*
X-7527918Y-12410788D01*
X-7652400Y-12398528D01*
X-8866650Y-12401600D01*
X-9025400Y-12560350D01*
X-9279400Y-12560350D01*
X-9438150Y-12401600D01*
X-10652400Y-12398528D01*
X-10776882Y-12410788D01*
X-10896580Y-12447098D01*
X-11006894Y-12506063D01*
X-11103585Y-12585415D01*
X-11182937Y-12682106D01*
X-11241902Y-12792420D01*
X-11278212Y-12912118D01*
X-11290472Y-13036600D01*
X-17647206Y-13036600D01*
X-17658403Y-8349720D01*
X-17647580Y-8171683D01*
X-17613506Y-8041600D01*
X-17554815Y-7920615D01*
X-17473738Y-7813327D01*
X-17373374Y-7723839D01*
X-17257534Y-7655546D01*
X-17122778Y-7608297D01*
X-17039034Y-7594200D01*
X-9746581Y-7594200D01*
X-9649617Y-7584650D01*
X-9627814Y-7578036D01*
X-9475698Y-7552429D01*
X-9425891Y-7538938D01*
X-9375603Y-7527401D01*
X-9366886Y-7524413D01*
X-9117851Y-7437096D01*
X-9063619Y-7411898D01*
X-9009008Y-7387445D01*
X-9001037Y-7382820D01*
X-8773704Y-7248796D01*
X-8725414Y-7213554D01*
X-8676576Y-7178948D01*
X-8669656Y-7172863D01*
X-8472685Y-6997236D01*
X-8432159Y-6953286D01*
X-8390972Y-6909851D01*
X-8385365Y-6902538D01*
X-8226259Y-6691997D01*
X-8195007Y-6640954D01*
X-8163079Y-6590408D01*
X-8158999Y-6582145D01*
X-8043816Y-6344709D01*
X-8023092Y-6288619D01*
X-8001569Y-6232779D01*
X-7999172Y-6223881D01*
X-7932302Y-5968595D01*
X-7922867Y-5909547D01*
X-7912601Y-5850596D01*
X-7912561Y-5850000D01*
X-7748072Y-5850000D01*
X-7735812Y-5974482D01*
X-7699502Y-6094180D01*
X-7640537Y-6204494D01*
X-7561185Y-6301185D01*
X-7464494Y-6380537D01*
X-7354180Y-6439502D01*
X-7234482Y-6475812D01*
X-7110000Y-6488072D01*
X-6545750Y-6485000D01*
X-6387000Y-6326250D01*
X-6387000Y-5127000D01*
X-6133000Y-5127000D01*
X-6133000Y-6326250D01*
X-5974250Y-6485000D01*
X-5410000Y-6488072D01*
X-5285518Y-6475812D01*
X-5165820Y-6439502D01*
X-5055506Y-6380537D01*
X-4958815Y-6301185D01*
X-4879463Y-6204494D01*
X-4820498Y-6094180D01*
X-4784188Y-5974482D01*
X-4771928Y-5850000D01*
X-4775000Y-5285750D01*
X-4933750Y-5127000D01*
X-6133000Y-5127000D01*
X-6387000Y-5127000D01*
X-7586250Y-5127000D01*
X-7745000Y-5285750D01*
X-7748072Y-5850000D01*
X-7912561Y-5850000D01*
X-7911978Y-5841401D01*
X-7896680Y-5589733D01*
X-7894696Y-5569231D01*
X-7897130Y-4150000D01*
X-7748072Y-4150000D01*
X-7745000Y-4714250D01*
X-7586250Y-4873000D01*
X-6387000Y-4873000D01*
X-6387000Y-2587000D01*
X-6133000Y-2587000D01*
X-6133000Y-4873000D01*
X-4933750Y-4873000D01*
X-4775000Y-4714250D01*
X-4771928Y-4150000D01*
X-4784188Y-4025518D01*
X-4820498Y-3905820D01*
X-4879463Y-3795506D01*
X-4958815Y-3698815D01*
X-5055506Y-3619463D01*
X-5165820Y-3560498D01*
X-5246466Y-3536034D01*
X-5162412Y-3460269D01*
X-4988359Y-3226920D01*
X-4863175Y-2964099D01*
X-4818524Y-2816890D01*
X-4939845Y-2587000D01*
X-6133000Y-2587000D01*
X-6387000Y-2587000D01*
X-7580155Y-2587000D01*
X-7701476Y-2816890D01*
X-7656825Y-2964099D01*
X-7531641Y-3226920D01*
X-7357588Y-3460269D01*
X-7273534Y-3536034D01*
X-7354180Y-3560498D01*
X-7464494Y-3619463D01*
X-7561185Y-3698815D01*
X-7640537Y-3795506D01*
X-7699502Y-3905820D01*
X-7735812Y-4025518D01*
X-7748072Y-4150000D01*
X-7897130Y-4150000D01*
X-7950657Y27059150D01*
X-7960373Y27156098D01*
X-7966858Y27177343D01*
X-7992371Y27328902D01*
X-8005860Y27378702D01*
X-8017399Y27428996D01*
X-8020387Y27437714D01*
X-8107703Y27686749D01*
X-8132904Y27740986D01*
X-8157355Y27795593D01*
X-8161980Y27803563D01*
X-8296004Y28030896D01*
X-8331275Y28079227D01*
X-8365853Y28128024D01*
X-8371937Y28134945D01*
X-8547564Y28331915D01*
X-8591514Y28372441D01*
X-8634949Y28413628D01*
X-8642263Y28419235D01*
X-8852803Y28578341D01*
X-8903855Y28609599D01*
X-8954392Y28641521D01*
X-8962655Y28645601D01*
X-9200091Y28760784D01*
X-9256181Y28781508D01*
X-9312021Y28803031D01*
X-9320919Y28805428D01*
X-9576205Y28872298D01*
X-9635265Y28881735D01*
X-9694205Y28891999D01*
X-9703399Y28892622D01*
X-9954959Y28907914D01*
X-9975358Y28909894D01*
X-17227761Y28899778D01*
X-17406117Y28910620D01*
X-17536200Y28944694D01*
X-17657187Y29003386D01*
X-17764470Y29084460D01*
X-17853961Y29184827D01*
X-17922254Y29300665D01*
X-17960606Y29410049D01*
X-17958587Y29430631D01*
X-17963664Y41970068D01*
X-17973617Y42070700D01*
X-17978313Y42086158D01*
X-17977780Y42094917D01*
X-17943706Y42225000D01*
X-17885015Y42345985D01*
X-17803938Y42453273D01*
X-17703574Y42542761D01*
X-17587734Y42611054D01*
X-17478428Y42649380D01*
X-17459423Y42647469D01*
M02*
