G04 #@! TF.GenerationSoftware,KiCad,Pcbnew,(5.1.5)-3*
G04 #@! TF.CreationDate,2020-03-11T07:33:21-05:00*
G04 #@! TF.ProjectId,BreadboardBreakout,42726561-6462-46f6-9172-64427265616b,rev?*
G04 #@! TF.SameCoordinates,Original*
G04 #@! TF.FileFunction,Profile,NP*
%FSLAX46Y46*%
G04 Gerber Fmt 4.6, Leading zero omitted, Abs format (unit mm)*
G04 Created by KiCad (PCBNEW (5.1.5)-3) date 2020-03-11 07:33:21*
%MOMM*%
%LPD*%
G04 APERTURE LIST*
%ADD10C,0.050000*%
%ADD11C,0.100000*%
G04 APERTURE END LIST*
D10*
X19410650Y-42139344D02*
G75*
G02X18186400Y-43535600I-1351250J-50056D01*
G01*
X-18648650Y41936144D02*
G75*
G02X-17424400Y43332400I1351250J50056D01*
G01*
X-17247344Y28239750D02*
G75*
G02X-18643600Y29464000I-50056J1351250D01*
G01*
X-10006856Y28249850D02*
G75*
G02X-8610600Y27025600I50056J-1351250D01*
G01*
X-8554750Y-5537944D02*
G75*
G02X-9779000Y-6934200I-1351250J-50056D01*
G01*
X-18318450Y-8330456D02*
G75*
G02X-17094200Y-6934200I1351250J50056D01*
G01*
X-16840944Y-43566050D02*
G75*
G02X-18237200Y-42341800I-50056J1351250D01*
G01*
X17933144Y-6878350D02*
G75*
G02X19329400Y-8102600I50056J-1351250D01*
G01*
X10641856Y-6913850D02*
G75*
G02X9245600Y-5689600I-50056J1351250D01*
G01*
X9367550Y26772344D02*
G75*
G02X10591800Y28168600I1351250J50056D01*
G01*
X19385250Y29564856D02*
G75*
G02X18161000Y28168600I-1351250J-50056D01*
G01*
X17983944Y43261250D02*
G75*
G02X19380200Y42037000I50056J-1351250D01*
G01*
X19329400Y-8102600D02*
X19410650Y-42139344D01*
X10641856Y-6913850D02*
X17933144Y-6878350D01*
X9367550Y26772344D02*
X9245600Y-5689600D01*
X18161000Y28168600D02*
X10591800Y28168600D01*
X-18237200Y-42341800D02*
X-18318450Y-8330456D01*
X-9779000Y-6934200D02*
X-17094200Y-6934200D01*
X-8610600Y27025600D02*
X-8554750Y-5537944D01*
X-17247344Y28239750D02*
X-10006856Y28249850D01*
D11*
X-17424400Y43332400D02*
X17983944Y43261250D01*
X-18643600Y29464000D02*
X-18648650Y41936144D01*
X18186400Y-43535600D02*
X-16840944Y-43566050D01*
X19380200Y42037000D02*
X19385250Y29564856D01*
M02*
