G04 #@! TF.GenerationSoftware,KiCad,Pcbnew,(5.1.5)-3*
G04 #@! TF.CreationDate,2020-03-11T07:33:21-05:00*
G04 #@! TF.ProjectId,BreadboardBreakout,42726561-6462-46f6-9172-64427265616b,rev?*
G04 #@! TF.SameCoordinates,Original*
G04 #@! TF.FileFunction,Soldermask,Top*
G04 #@! TF.FilePolarity,Negative*
%FSLAX46Y46*%
G04 Gerber Fmt 4.6, Leading zero omitted, Abs format (unit mm)*
G04 Created by KiCad (PCBNEW (5.1.5)-3) date 2020-03-11 07:33:21*
%MOMM*%
%LPD*%
G04 APERTURE LIST*
%ADD10C,0.100000*%
G04 APERTURE END LIST*
D10*
G36*
X10398600Y-27857600D02*
G01*
X7296600Y-27857600D01*
X7296600Y-26955600D01*
X10398600Y-26955600D01*
X10398600Y-27857600D01*
G37*
G36*
X-7601400Y-27857600D02*
G01*
X-10703400Y-27857600D01*
X-10703400Y-26955600D01*
X-7601400Y-26955600D01*
X-7601400Y-27857600D01*
G37*
G36*
X-7601400Y-26587600D02*
G01*
X-10703400Y-26587600D01*
X-10703400Y-25685600D01*
X-7601400Y-25685600D01*
X-7601400Y-26587600D01*
G37*
G36*
X10398600Y-26587600D02*
G01*
X7296600Y-26587600D01*
X7296600Y-25685600D01*
X10398600Y-25685600D01*
X10398600Y-26587600D01*
G37*
G36*
X-7601400Y-25317600D02*
G01*
X-10703400Y-25317600D01*
X-10703400Y-24415600D01*
X-7601400Y-24415600D01*
X-7601400Y-25317600D01*
G37*
G36*
X10398600Y-25317600D02*
G01*
X7296600Y-25317600D01*
X7296600Y-24415600D01*
X10398600Y-24415600D01*
X10398600Y-25317600D01*
G37*
G36*
X-7601400Y-24047600D02*
G01*
X-10703400Y-24047600D01*
X-10703400Y-23145600D01*
X-7601400Y-23145600D01*
X-7601400Y-24047600D01*
G37*
G36*
X10398600Y-24047600D02*
G01*
X7296600Y-24047600D01*
X7296600Y-23145600D01*
X10398600Y-23145600D01*
X10398600Y-24047600D01*
G37*
G36*
X-7601400Y-22777600D02*
G01*
X-10703400Y-22777600D01*
X-10703400Y-21875600D01*
X-7601400Y-21875600D01*
X-7601400Y-22777600D01*
G37*
G36*
X10398600Y-22777600D02*
G01*
X7296600Y-22777600D01*
X7296600Y-21875600D01*
X10398600Y-21875600D01*
X10398600Y-22777600D01*
G37*
G36*
X10398600Y-21507600D02*
G01*
X7296600Y-21507600D01*
X7296600Y-20605600D01*
X10398600Y-20605600D01*
X10398600Y-21507600D01*
G37*
G36*
X-7601400Y-21507600D02*
G01*
X-10703400Y-21507600D01*
X-10703400Y-20605600D01*
X-7601400Y-20605600D01*
X-7601400Y-21507600D01*
G37*
G36*
X-7601400Y-20237600D02*
G01*
X-10703400Y-20237600D01*
X-10703400Y-19335600D01*
X-7601400Y-19335600D01*
X-7601400Y-20237600D01*
G37*
G36*
X10398600Y-20237600D02*
G01*
X7296600Y-20237600D01*
X7296600Y-19335600D01*
X10398600Y-19335600D01*
X10398600Y-20237600D01*
G37*
G36*
X-7601400Y-18967600D02*
G01*
X-10703400Y-18967600D01*
X-10703400Y-18065600D01*
X-7601400Y-18065600D01*
X-7601400Y-18967600D01*
G37*
G36*
X10398600Y-18967600D02*
G01*
X7296600Y-18967600D01*
X7296600Y-18065600D01*
X10398600Y-18065600D01*
X10398600Y-18967600D01*
G37*
G36*
X-7601400Y-17697600D02*
G01*
X-10703400Y-17697600D01*
X-10703400Y-16795600D01*
X-7601400Y-16795600D01*
X-7601400Y-17697600D01*
G37*
G36*
X10398600Y-17697600D02*
G01*
X7296600Y-17697600D01*
X7296600Y-16795600D01*
X10398600Y-16795600D01*
X10398600Y-17697600D01*
G37*
G36*
X10398600Y-16427600D02*
G01*
X7296600Y-16427600D01*
X7296600Y-15525600D01*
X10398600Y-15525600D01*
X10398600Y-16427600D01*
G37*
G36*
X-7601400Y-16427600D02*
G01*
X-10703400Y-16427600D01*
X-10703400Y-15525600D01*
X-7601400Y-15525600D01*
X-7601400Y-16427600D01*
G37*
G36*
X10398600Y-15157600D02*
G01*
X7296600Y-15157600D01*
X7296600Y-14255600D01*
X10398600Y-14255600D01*
X10398600Y-15157600D01*
G37*
G36*
X-7601400Y-15157600D02*
G01*
X-10703400Y-15157600D01*
X-10703400Y-14255600D01*
X-7601400Y-14255600D01*
X-7601400Y-15157600D01*
G37*
G36*
X-7601400Y-13887600D02*
G01*
X-10703400Y-13887600D01*
X-10703400Y-12985600D01*
X-7601400Y-12985600D01*
X-7601400Y-13887600D01*
G37*
G36*
X10398600Y-13887600D02*
G01*
X7296600Y-13887600D01*
X7296600Y-12985600D01*
X10398600Y-12985600D01*
X10398600Y-13887600D01*
G37*
G36*
X-5359000Y-5901000D02*
G01*
X-7161000Y-5901000D01*
X-7161000Y-4099000D01*
X-5359000Y-4099000D01*
X-5359000Y-5901000D01*
G37*
G36*
X7161000Y-5901000D02*
G01*
X5359000Y-5901000D01*
X5359000Y-4099000D01*
X7161000Y-4099000D01*
X7161000Y-5901000D01*
G37*
G36*
X-6146488Y-1563927D02*
G01*
X-5997188Y-1593624D01*
X-5833216Y-1661544D01*
X-5685646Y-1760147D01*
X-5560147Y-1885646D01*
X-5461544Y-2033216D01*
X-5393624Y-2197188D01*
X-5359000Y-2371259D01*
X-5359000Y-2548741D01*
X-5393624Y-2722812D01*
X-5461544Y-2886784D01*
X-5560147Y-3034354D01*
X-5685646Y-3159853D01*
X-5833216Y-3258456D01*
X-5997188Y-3326376D01*
X-6146488Y-3356073D01*
X-6171258Y-3361000D01*
X-6348742Y-3361000D01*
X-6373512Y-3356073D01*
X-6522812Y-3326376D01*
X-6686784Y-3258456D01*
X-6834354Y-3159853D01*
X-6959853Y-3034354D01*
X-7058456Y-2886784D01*
X-7126376Y-2722812D01*
X-7161000Y-2548741D01*
X-7161000Y-2371259D01*
X-7126376Y-2197188D01*
X-7058456Y-2033216D01*
X-6959853Y-1885646D01*
X-6834354Y-1760147D01*
X-6686784Y-1661544D01*
X-6522812Y-1593624D01*
X-6373512Y-1563927D01*
X-6348742Y-1559000D01*
X-6171258Y-1559000D01*
X-6146488Y-1563927D01*
G37*
G36*
X6373512Y-1563927D02*
G01*
X6522812Y-1593624D01*
X6686784Y-1661544D01*
X6834354Y-1760147D01*
X6959853Y-1885646D01*
X7058456Y-2033216D01*
X7126376Y-2197188D01*
X7161000Y-2371259D01*
X7161000Y-2548741D01*
X7126376Y-2722812D01*
X7058456Y-2886784D01*
X6959853Y-3034354D01*
X6834354Y-3159853D01*
X6686784Y-3258456D01*
X6522812Y-3326376D01*
X6373512Y-3356073D01*
X6348742Y-3361000D01*
X6171258Y-3361000D01*
X6146488Y-3356073D01*
X5997188Y-3326376D01*
X5833216Y-3258456D01*
X5685646Y-3159853D01*
X5560147Y-3034354D01*
X5461544Y-2886784D01*
X5393624Y-2722812D01*
X5359000Y-2548741D01*
X5359000Y-2371259D01*
X5393624Y-2197188D01*
X5461544Y-2033216D01*
X5560147Y-1885646D01*
X5685646Y-1760147D01*
X5833216Y-1661544D01*
X5997188Y-1593624D01*
X6146488Y-1563927D01*
X6171258Y-1559000D01*
X6348742Y-1559000D01*
X6373512Y-1563927D01*
G37*
G36*
X6373512Y976073D02*
G01*
X6522812Y946376D01*
X6686784Y878456D01*
X6834354Y779853D01*
X6959853Y654354D01*
X7058456Y506784D01*
X7126376Y342812D01*
X7161000Y168741D01*
X7161000Y-8741D01*
X7126376Y-182812D01*
X7058456Y-346784D01*
X6959853Y-494354D01*
X6834354Y-619853D01*
X6686784Y-718456D01*
X6522812Y-786376D01*
X6373512Y-816073D01*
X6348742Y-821000D01*
X6171258Y-821000D01*
X6146488Y-816073D01*
X5997188Y-786376D01*
X5833216Y-718456D01*
X5685646Y-619853D01*
X5560147Y-494354D01*
X5461544Y-346784D01*
X5393624Y-182812D01*
X5359000Y-8741D01*
X5359000Y168741D01*
X5393624Y342812D01*
X5461544Y506784D01*
X5560147Y654354D01*
X5685646Y779853D01*
X5833216Y878456D01*
X5997188Y946376D01*
X6146488Y976073D01*
X6171258Y981000D01*
X6348742Y981000D01*
X6373512Y976073D01*
G37*
G36*
X-6146488Y976073D02*
G01*
X-5997188Y946376D01*
X-5833216Y878456D01*
X-5685646Y779853D01*
X-5560147Y654354D01*
X-5461544Y506784D01*
X-5393624Y342812D01*
X-5359000Y168741D01*
X-5359000Y-8741D01*
X-5393624Y-182812D01*
X-5461544Y-346784D01*
X-5560147Y-494354D01*
X-5685646Y-619853D01*
X-5833216Y-718456D01*
X-5997188Y-786376D01*
X-6146488Y-816073D01*
X-6171258Y-821000D01*
X-6348742Y-821000D01*
X-6373512Y-816073D01*
X-6522812Y-786376D01*
X-6686784Y-718456D01*
X-6834354Y-619853D01*
X-6959853Y-494354D01*
X-7058456Y-346784D01*
X-7126376Y-182812D01*
X-7161000Y-8741D01*
X-7161000Y168741D01*
X-7126376Y342812D01*
X-7058456Y506784D01*
X-6959853Y654354D01*
X-6834354Y779853D01*
X-6686784Y878456D01*
X-6522812Y946376D01*
X-6373512Y976073D01*
X-6348742Y981000D01*
X-6171258Y981000D01*
X-6146488Y976073D01*
G37*
G36*
X-6146488Y3516073D02*
G01*
X-5997188Y3486376D01*
X-5833216Y3418456D01*
X-5685646Y3319853D01*
X-5560147Y3194354D01*
X-5461544Y3046784D01*
X-5393624Y2882812D01*
X-5359000Y2708741D01*
X-5359000Y2531259D01*
X-5393624Y2357188D01*
X-5461544Y2193216D01*
X-5560147Y2045646D01*
X-5685646Y1920147D01*
X-5833216Y1821544D01*
X-5997188Y1753624D01*
X-6146488Y1723927D01*
X-6171258Y1719000D01*
X-6348742Y1719000D01*
X-6373512Y1723927D01*
X-6522812Y1753624D01*
X-6686784Y1821544D01*
X-6834354Y1920147D01*
X-6959853Y2045646D01*
X-7058456Y2193216D01*
X-7126376Y2357188D01*
X-7161000Y2531259D01*
X-7161000Y2708741D01*
X-7126376Y2882812D01*
X-7058456Y3046784D01*
X-6959853Y3194354D01*
X-6834354Y3319853D01*
X-6686784Y3418456D01*
X-6522812Y3486376D01*
X-6373512Y3516073D01*
X-6348742Y3521000D01*
X-6171258Y3521000D01*
X-6146488Y3516073D01*
G37*
G36*
X6373512Y3516073D02*
G01*
X6522812Y3486376D01*
X6686784Y3418456D01*
X6834354Y3319853D01*
X6959853Y3194354D01*
X7058456Y3046784D01*
X7126376Y2882812D01*
X7161000Y2708741D01*
X7161000Y2531259D01*
X7126376Y2357188D01*
X7058456Y2193216D01*
X6959853Y2045646D01*
X6834354Y1920147D01*
X6686784Y1821544D01*
X6522812Y1753624D01*
X6373512Y1723927D01*
X6348742Y1719000D01*
X6171258Y1719000D01*
X6146488Y1723927D01*
X5997188Y1753624D01*
X5833216Y1821544D01*
X5685646Y1920147D01*
X5560147Y2045646D01*
X5461544Y2193216D01*
X5393624Y2357188D01*
X5359000Y2531259D01*
X5359000Y2708741D01*
X5393624Y2882812D01*
X5461544Y3046784D01*
X5560147Y3194354D01*
X5685646Y3319853D01*
X5833216Y3418456D01*
X5997188Y3486376D01*
X6146488Y3516073D01*
X6171258Y3521000D01*
X6348742Y3521000D01*
X6373512Y3516073D01*
G37*
G36*
X-6146488Y6056073D02*
G01*
X-5997188Y6026376D01*
X-5833216Y5958456D01*
X-5685646Y5859853D01*
X-5560147Y5734354D01*
X-5461544Y5586784D01*
X-5393624Y5422812D01*
X-5359000Y5248741D01*
X-5359000Y5071259D01*
X-5393624Y4897188D01*
X-5461544Y4733216D01*
X-5560147Y4585646D01*
X-5685646Y4460147D01*
X-5833216Y4361544D01*
X-5997188Y4293624D01*
X-6146488Y4263927D01*
X-6171258Y4259000D01*
X-6348742Y4259000D01*
X-6373512Y4263927D01*
X-6522812Y4293624D01*
X-6686784Y4361544D01*
X-6834354Y4460147D01*
X-6959853Y4585646D01*
X-7058456Y4733216D01*
X-7126376Y4897188D01*
X-7161000Y5071259D01*
X-7161000Y5248741D01*
X-7126376Y5422812D01*
X-7058456Y5586784D01*
X-6959853Y5734354D01*
X-6834354Y5859853D01*
X-6686784Y5958456D01*
X-6522812Y6026376D01*
X-6373512Y6056073D01*
X-6348742Y6061000D01*
X-6171258Y6061000D01*
X-6146488Y6056073D01*
G37*
G36*
X6373512Y6056073D02*
G01*
X6522812Y6026376D01*
X6686784Y5958456D01*
X6834354Y5859853D01*
X6959853Y5734354D01*
X7058456Y5586784D01*
X7126376Y5422812D01*
X7161000Y5248741D01*
X7161000Y5071259D01*
X7126376Y4897188D01*
X7058456Y4733216D01*
X6959853Y4585646D01*
X6834354Y4460147D01*
X6686784Y4361544D01*
X6522812Y4293624D01*
X6373512Y4263927D01*
X6348742Y4259000D01*
X6171258Y4259000D01*
X6146488Y4263927D01*
X5997188Y4293624D01*
X5833216Y4361544D01*
X5685646Y4460147D01*
X5560147Y4585646D01*
X5461544Y4733216D01*
X5393624Y4897188D01*
X5359000Y5071259D01*
X5359000Y5248741D01*
X5393624Y5422812D01*
X5461544Y5586784D01*
X5560147Y5734354D01*
X5685646Y5859853D01*
X5833216Y5958456D01*
X5997188Y6026376D01*
X6146488Y6056073D01*
X6171258Y6061000D01*
X6348742Y6061000D01*
X6373512Y6056073D01*
G37*
G36*
X6373512Y8596073D02*
G01*
X6522812Y8566376D01*
X6686784Y8498456D01*
X6834354Y8399853D01*
X6959853Y8274354D01*
X7058456Y8126784D01*
X7126376Y7962812D01*
X7161000Y7788741D01*
X7161000Y7611259D01*
X7126376Y7437188D01*
X7058456Y7273216D01*
X6959853Y7125646D01*
X6834354Y7000147D01*
X6686784Y6901544D01*
X6522812Y6833624D01*
X6373512Y6803927D01*
X6348742Y6799000D01*
X6171258Y6799000D01*
X6146488Y6803927D01*
X5997188Y6833624D01*
X5833216Y6901544D01*
X5685646Y7000147D01*
X5560147Y7125646D01*
X5461544Y7273216D01*
X5393624Y7437188D01*
X5359000Y7611259D01*
X5359000Y7788741D01*
X5393624Y7962812D01*
X5461544Y8126784D01*
X5560147Y8274354D01*
X5685646Y8399853D01*
X5833216Y8498456D01*
X5997188Y8566376D01*
X6146488Y8596073D01*
X6171258Y8601000D01*
X6348742Y8601000D01*
X6373512Y8596073D01*
G37*
G36*
X-6146488Y8596073D02*
G01*
X-5997188Y8566376D01*
X-5833216Y8498456D01*
X-5685646Y8399853D01*
X-5560147Y8274354D01*
X-5461544Y8126784D01*
X-5393624Y7962812D01*
X-5359000Y7788741D01*
X-5359000Y7611259D01*
X-5393624Y7437188D01*
X-5461544Y7273216D01*
X-5560147Y7125646D01*
X-5685646Y7000147D01*
X-5833216Y6901544D01*
X-5997188Y6833624D01*
X-6146488Y6803927D01*
X-6171258Y6799000D01*
X-6348742Y6799000D01*
X-6373512Y6803927D01*
X-6522812Y6833624D01*
X-6686784Y6901544D01*
X-6834354Y7000147D01*
X-6959853Y7125646D01*
X-7058456Y7273216D01*
X-7126376Y7437188D01*
X-7161000Y7611259D01*
X-7161000Y7788741D01*
X-7126376Y7962812D01*
X-7058456Y8126784D01*
X-6959853Y8274354D01*
X-6834354Y8399853D01*
X-6686784Y8498456D01*
X-6522812Y8566376D01*
X-6373512Y8596073D01*
X-6348742Y8601000D01*
X-6171258Y8601000D01*
X-6146488Y8596073D01*
G37*
G36*
X-6146488Y11136073D02*
G01*
X-5997188Y11106376D01*
X-5833216Y11038456D01*
X-5685646Y10939853D01*
X-5560147Y10814354D01*
X-5461544Y10666784D01*
X-5393624Y10502812D01*
X-5359000Y10328741D01*
X-5359000Y10151259D01*
X-5393624Y9977188D01*
X-5461544Y9813216D01*
X-5560147Y9665646D01*
X-5685646Y9540147D01*
X-5833216Y9441544D01*
X-5997188Y9373624D01*
X-6146488Y9343927D01*
X-6171258Y9339000D01*
X-6348742Y9339000D01*
X-6373512Y9343927D01*
X-6522812Y9373624D01*
X-6686784Y9441544D01*
X-6834354Y9540147D01*
X-6959853Y9665646D01*
X-7058456Y9813216D01*
X-7126376Y9977188D01*
X-7161000Y10151259D01*
X-7161000Y10328741D01*
X-7126376Y10502812D01*
X-7058456Y10666784D01*
X-6959853Y10814354D01*
X-6834354Y10939853D01*
X-6686784Y11038456D01*
X-6522812Y11106376D01*
X-6373512Y11136073D01*
X-6348742Y11141000D01*
X-6171258Y11141000D01*
X-6146488Y11136073D01*
G37*
G36*
X6373512Y11136073D02*
G01*
X6522812Y11106376D01*
X6686784Y11038456D01*
X6834354Y10939853D01*
X6959853Y10814354D01*
X7058456Y10666784D01*
X7126376Y10502812D01*
X7161000Y10328741D01*
X7161000Y10151259D01*
X7126376Y9977188D01*
X7058456Y9813216D01*
X6959853Y9665646D01*
X6834354Y9540147D01*
X6686784Y9441544D01*
X6522812Y9373624D01*
X6373512Y9343927D01*
X6348742Y9339000D01*
X6171258Y9339000D01*
X6146488Y9343927D01*
X5997188Y9373624D01*
X5833216Y9441544D01*
X5685646Y9540147D01*
X5560147Y9665646D01*
X5461544Y9813216D01*
X5393624Y9977188D01*
X5359000Y10151259D01*
X5359000Y10328741D01*
X5393624Y10502812D01*
X5461544Y10666784D01*
X5560147Y10814354D01*
X5685646Y10939853D01*
X5833216Y11038456D01*
X5997188Y11106376D01*
X6146488Y11136073D01*
X6171258Y11141000D01*
X6348742Y11141000D01*
X6373512Y11136073D01*
G37*
G36*
X-6146488Y13676073D02*
G01*
X-5997188Y13646376D01*
X-5833216Y13578456D01*
X-5685646Y13479853D01*
X-5560147Y13354354D01*
X-5461544Y13206784D01*
X-5393624Y13042812D01*
X-5359000Y12868741D01*
X-5359000Y12691259D01*
X-5393624Y12517188D01*
X-5461544Y12353216D01*
X-5560147Y12205646D01*
X-5685646Y12080147D01*
X-5833216Y11981544D01*
X-5997188Y11913624D01*
X-6146488Y11883927D01*
X-6171258Y11879000D01*
X-6348742Y11879000D01*
X-6373512Y11883927D01*
X-6522812Y11913624D01*
X-6686784Y11981544D01*
X-6834354Y12080147D01*
X-6959853Y12205646D01*
X-7058456Y12353216D01*
X-7126376Y12517188D01*
X-7161000Y12691259D01*
X-7161000Y12868741D01*
X-7126376Y13042812D01*
X-7058456Y13206784D01*
X-6959853Y13354354D01*
X-6834354Y13479853D01*
X-6686784Y13578456D01*
X-6522812Y13646376D01*
X-6373512Y13676073D01*
X-6348742Y13681000D01*
X-6171258Y13681000D01*
X-6146488Y13676073D01*
G37*
G36*
X6373512Y13676073D02*
G01*
X6522812Y13646376D01*
X6686784Y13578456D01*
X6834354Y13479853D01*
X6959853Y13354354D01*
X7058456Y13206784D01*
X7126376Y13042812D01*
X7161000Y12868741D01*
X7161000Y12691259D01*
X7126376Y12517188D01*
X7058456Y12353216D01*
X6959853Y12205646D01*
X6834354Y12080147D01*
X6686784Y11981544D01*
X6522812Y11913624D01*
X6373512Y11883927D01*
X6348742Y11879000D01*
X6171258Y11879000D01*
X6146488Y11883927D01*
X5997188Y11913624D01*
X5833216Y11981544D01*
X5685646Y12080147D01*
X5560147Y12205646D01*
X5461544Y12353216D01*
X5393624Y12517188D01*
X5359000Y12691259D01*
X5359000Y12868741D01*
X5393624Y13042812D01*
X5461544Y13206784D01*
X5560147Y13354354D01*
X5685646Y13479853D01*
X5833216Y13578456D01*
X5997188Y13646376D01*
X6146488Y13676073D01*
X6171258Y13681000D01*
X6348742Y13681000D01*
X6373512Y13676073D01*
G37*
G36*
X-6146488Y16216073D02*
G01*
X-5997188Y16186376D01*
X-5833216Y16118456D01*
X-5685646Y16019853D01*
X-5560147Y15894354D01*
X-5461544Y15746784D01*
X-5393624Y15582812D01*
X-5359000Y15408741D01*
X-5359000Y15231259D01*
X-5393624Y15057188D01*
X-5461544Y14893216D01*
X-5560147Y14745646D01*
X-5685646Y14620147D01*
X-5833216Y14521544D01*
X-5997188Y14453624D01*
X-6146488Y14423927D01*
X-6171258Y14419000D01*
X-6348742Y14419000D01*
X-6373512Y14423927D01*
X-6522812Y14453624D01*
X-6686784Y14521544D01*
X-6834354Y14620147D01*
X-6959853Y14745646D01*
X-7058456Y14893216D01*
X-7126376Y15057188D01*
X-7161000Y15231259D01*
X-7161000Y15408741D01*
X-7126376Y15582812D01*
X-7058456Y15746784D01*
X-6959853Y15894354D01*
X-6834354Y16019853D01*
X-6686784Y16118456D01*
X-6522812Y16186376D01*
X-6373512Y16216073D01*
X-6348742Y16221000D01*
X-6171258Y16221000D01*
X-6146488Y16216073D01*
G37*
G36*
X6373512Y16216073D02*
G01*
X6522812Y16186376D01*
X6686784Y16118456D01*
X6834354Y16019853D01*
X6959853Y15894354D01*
X7058456Y15746784D01*
X7126376Y15582812D01*
X7161000Y15408741D01*
X7161000Y15231259D01*
X7126376Y15057188D01*
X7058456Y14893216D01*
X6959853Y14745646D01*
X6834354Y14620147D01*
X6686784Y14521544D01*
X6522812Y14453624D01*
X6373512Y14423927D01*
X6348742Y14419000D01*
X6171258Y14419000D01*
X6146488Y14423927D01*
X5997188Y14453624D01*
X5833216Y14521544D01*
X5685646Y14620147D01*
X5560147Y14745646D01*
X5461544Y14893216D01*
X5393624Y15057188D01*
X5359000Y15231259D01*
X5359000Y15408741D01*
X5393624Y15582812D01*
X5461544Y15746784D01*
X5560147Y15894354D01*
X5685646Y16019853D01*
X5833216Y16118456D01*
X5997188Y16186376D01*
X6146488Y16216073D01*
X6171258Y16221000D01*
X6348742Y16221000D01*
X6373512Y16216073D01*
G37*
G36*
X-6146488Y18756073D02*
G01*
X-5997188Y18726376D01*
X-5833216Y18658456D01*
X-5685646Y18559853D01*
X-5560147Y18434354D01*
X-5461544Y18286784D01*
X-5393624Y18122812D01*
X-5359000Y17948741D01*
X-5359000Y17771259D01*
X-5393624Y17597188D01*
X-5461544Y17433216D01*
X-5560147Y17285646D01*
X-5685646Y17160147D01*
X-5833216Y17061544D01*
X-5997188Y16993624D01*
X-6146488Y16963927D01*
X-6171258Y16959000D01*
X-6348742Y16959000D01*
X-6373512Y16963927D01*
X-6522812Y16993624D01*
X-6686784Y17061544D01*
X-6834354Y17160147D01*
X-6959853Y17285646D01*
X-7058456Y17433216D01*
X-7126376Y17597188D01*
X-7161000Y17771259D01*
X-7161000Y17948741D01*
X-7126376Y18122812D01*
X-7058456Y18286784D01*
X-6959853Y18434354D01*
X-6834354Y18559853D01*
X-6686784Y18658456D01*
X-6522812Y18726376D01*
X-6373512Y18756073D01*
X-6348742Y18761000D01*
X-6171258Y18761000D01*
X-6146488Y18756073D01*
G37*
G36*
X6373512Y18756073D02*
G01*
X6522812Y18726376D01*
X6686784Y18658456D01*
X6834354Y18559853D01*
X6959853Y18434354D01*
X7058456Y18286784D01*
X7126376Y18122812D01*
X7161000Y17948741D01*
X7161000Y17771259D01*
X7126376Y17597188D01*
X7058456Y17433216D01*
X6959853Y17285646D01*
X6834354Y17160147D01*
X6686784Y17061544D01*
X6522812Y16993624D01*
X6373512Y16963927D01*
X6348742Y16959000D01*
X6171258Y16959000D01*
X6146488Y16963927D01*
X5997188Y16993624D01*
X5833216Y17061544D01*
X5685646Y17160147D01*
X5560147Y17285646D01*
X5461544Y17433216D01*
X5393624Y17597188D01*
X5359000Y17771259D01*
X5359000Y17948741D01*
X5393624Y18122812D01*
X5461544Y18286784D01*
X5560147Y18434354D01*
X5685646Y18559853D01*
X5833216Y18658456D01*
X5997188Y18726376D01*
X6146488Y18756073D01*
X6171258Y18761000D01*
X6348742Y18761000D01*
X6373512Y18756073D01*
G37*
G36*
X6373512Y21296073D02*
G01*
X6522812Y21266376D01*
X6686784Y21198456D01*
X6834354Y21099853D01*
X6959853Y20974354D01*
X7058456Y20826784D01*
X7126376Y20662812D01*
X7161000Y20488741D01*
X7161000Y20311259D01*
X7126376Y20137188D01*
X7058456Y19973216D01*
X6959853Y19825646D01*
X6834354Y19700147D01*
X6686784Y19601544D01*
X6522812Y19533624D01*
X6373512Y19503927D01*
X6348742Y19499000D01*
X6171258Y19499000D01*
X6146488Y19503927D01*
X5997188Y19533624D01*
X5833216Y19601544D01*
X5685646Y19700147D01*
X5560147Y19825646D01*
X5461544Y19973216D01*
X5393624Y20137188D01*
X5359000Y20311259D01*
X5359000Y20488741D01*
X5393624Y20662812D01*
X5461544Y20826784D01*
X5560147Y20974354D01*
X5685646Y21099853D01*
X5833216Y21198456D01*
X5997188Y21266376D01*
X6146488Y21296073D01*
X6171258Y21301000D01*
X6348742Y21301000D01*
X6373512Y21296073D01*
G37*
G36*
X-6146488Y21296073D02*
G01*
X-5997188Y21266376D01*
X-5833216Y21198456D01*
X-5685646Y21099853D01*
X-5560147Y20974354D01*
X-5461544Y20826784D01*
X-5393624Y20662812D01*
X-5359000Y20488741D01*
X-5359000Y20311259D01*
X-5393624Y20137188D01*
X-5461544Y19973216D01*
X-5560147Y19825646D01*
X-5685646Y19700147D01*
X-5833216Y19601544D01*
X-5997188Y19533624D01*
X-6146488Y19503927D01*
X-6171258Y19499000D01*
X-6348742Y19499000D01*
X-6373512Y19503927D01*
X-6522812Y19533624D01*
X-6686784Y19601544D01*
X-6834354Y19700147D01*
X-6959853Y19825646D01*
X-7058456Y19973216D01*
X-7126376Y20137188D01*
X-7161000Y20311259D01*
X-7161000Y20488741D01*
X-7126376Y20662812D01*
X-7058456Y20826784D01*
X-6959853Y20974354D01*
X-6834354Y21099853D01*
X-6686784Y21198456D01*
X-6522812Y21266376D01*
X-6373512Y21296073D01*
X-6348742Y21301000D01*
X-6171258Y21301000D01*
X-6146488Y21296073D01*
G37*
G36*
X-6146488Y23836073D02*
G01*
X-5997188Y23806376D01*
X-5833216Y23738456D01*
X-5685646Y23639853D01*
X-5560147Y23514354D01*
X-5461544Y23366784D01*
X-5393624Y23202812D01*
X-5359000Y23028741D01*
X-5359000Y22851259D01*
X-5393624Y22677188D01*
X-5461544Y22513216D01*
X-5560147Y22365646D01*
X-5685646Y22240147D01*
X-5833216Y22141544D01*
X-5997188Y22073624D01*
X-6146488Y22043927D01*
X-6171258Y22039000D01*
X-6348742Y22039000D01*
X-6373512Y22043927D01*
X-6522812Y22073624D01*
X-6686784Y22141544D01*
X-6834354Y22240147D01*
X-6959853Y22365646D01*
X-7058456Y22513216D01*
X-7126376Y22677188D01*
X-7161000Y22851259D01*
X-7161000Y23028741D01*
X-7126376Y23202812D01*
X-7058456Y23366784D01*
X-6959853Y23514354D01*
X-6834354Y23639853D01*
X-6686784Y23738456D01*
X-6522812Y23806376D01*
X-6373512Y23836073D01*
X-6348742Y23841000D01*
X-6171258Y23841000D01*
X-6146488Y23836073D01*
G37*
G36*
X6373512Y23836073D02*
G01*
X6522812Y23806376D01*
X6686784Y23738456D01*
X6834354Y23639853D01*
X6959853Y23514354D01*
X7058456Y23366784D01*
X7126376Y23202812D01*
X7161000Y23028741D01*
X7161000Y22851259D01*
X7126376Y22677188D01*
X7058456Y22513216D01*
X6959853Y22365646D01*
X6834354Y22240147D01*
X6686784Y22141544D01*
X6522812Y22073624D01*
X6373512Y22043927D01*
X6348742Y22039000D01*
X6171258Y22039000D01*
X6146488Y22043927D01*
X5997188Y22073624D01*
X5833216Y22141544D01*
X5685646Y22240147D01*
X5560147Y22365646D01*
X5461544Y22513216D01*
X5393624Y22677188D01*
X5359000Y22851259D01*
X5359000Y23028741D01*
X5393624Y23202812D01*
X5461544Y23366784D01*
X5560147Y23514354D01*
X5685646Y23639853D01*
X5833216Y23738456D01*
X5997188Y23806376D01*
X6146488Y23836073D01*
X6171258Y23841000D01*
X6348742Y23841000D01*
X6373512Y23836073D01*
G37*
G36*
X-6789438Y33154419D02*
G01*
X-6754519Y33143826D01*
X-6722337Y33126624D01*
X-6694127Y33103473D01*
X-6670976Y33075263D01*
X-6653774Y33043081D01*
X-6643181Y33008162D01*
X-6639000Y32965705D01*
X-6639000Y31499495D01*
X-6643181Y31457038D01*
X-6653774Y31422119D01*
X-6670976Y31389937D01*
X-6694127Y31361727D01*
X-6722337Y31338576D01*
X-6754519Y31321374D01*
X-6789438Y31310781D01*
X-6831895Y31306600D01*
X-7973105Y31306600D01*
X-8015562Y31310781D01*
X-8050481Y31321374D01*
X-8082663Y31338576D01*
X-8110873Y31361727D01*
X-8134024Y31389937D01*
X-8151226Y31422119D01*
X-8161819Y31457038D01*
X-8166000Y31499495D01*
X-8166000Y32965705D01*
X-8161819Y33008162D01*
X-8151226Y33043081D01*
X-8134024Y33075263D01*
X-8110873Y33103473D01*
X-8082663Y33126624D01*
X-8050481Y33143826D01*
X-8015562Y33154419D01*
X-7973105Y33158600D01*
X-6831895Y33158600D01*
X-6789438Y33154419D01*
G37*
G36*
X-9764438Y33154419D02*
G01*
X-9729519Y33143826D01*
X-9697337Y33126624D01*
X-9669127Y33103473D01*
X-9645976Y33075263D01*
X-9628774Y33043081D01*
X-9618181Y33008162D01*
X-9614000Y32965705D01*
X-9614000Y31499495D01*
X-9618181Y31457038D01*
X-9628774Y31422119D01*
X-9645976Y31389937D01*
X-9669127Y31361727D01*
X-9697337Y31338576D01*
X-9729519Y31321374D01*
X-9764438Y31310781D01*
X-9806895Y31306600D01*
X-10948105Y31306600D01*
X-10990562Y31310781D01*
X-11025481Y31321374D01*
X-11057663Y31338576D01*
X-11085873Y31361727D01*
X-11109024Y31389937D01*
X-11126226Y31422119D01*
X-11136819Y31457038D01*
X-11141000Y31499495D01*
X-11141000Y32965705D01*
X-11136819Y33008162D01*
X-11126226Y33043081D01*
X-11109024Y33075263D01*
X-11085873Y33103473D01*
X-11057663Y33126624D01*
X-11025481Y33143826D01*
X-10990562Y33154419D01*
X-10948105Y33158600D01*
X-9806895Y33158600D01*
X-9764438Y33154419D01*
G37*
G36*
X-15126488Y33916073D02*
G01*
X-14977188Y33886376D01*
X-14813216Y33818456D01*
X-14665646Y33719853D01*
X-14540147Y33594354D01*
X-14441544Y33446784D01*
X-14373624Y33282812D01*
X-14339000Y33108741D01*
X-14339000Y32931259D01*
X-14373624Y32757188D01*
X-14441544Y32593216D01*
X-14540147Y32445646D01*
X-14665646Y32320147D01*
X-14813216Y32221544D01*
X-14977188Y32153624D01*
X-15126488Y32123927D01*
X-15151258Y32119000D01*
X-15328742Y32119000D01*
X-15353512Y32123927D01*
X-15502812Y32153624D01*
X-15666784Y32221544D01*
X-15814354Y32320147D01*
X-15939853Y32445646D01*
X-16038456Y32593216D01*
X-16106376Y32757188D01*
X-16141000Y32931259D01*
X-16141000Y33108741D01*
X-16106376Y33282812D01*
X-16038456Y33446784D01*
X-15939853Y33594354D01*
X-15814354Y33719853D01*
X-15666784Y33818456D01*
X-15502812Y33886376D01*
X-15353512Y33916073D01*
X-15328742Y33921000D01*
X-15151258Y33921000D01*
X-15126488Y33916073D01*
G37*
G36*
X12966778Y35169453D02*
G01*
X13133224Y35100509D01*
X13283022Y35000417D01*
X13410417Y34873022D01*
X13510509Y34723224D01*
X13579453Y34556778D01*
X13614600Y34380082D01*
X13614600Y34199918D01*
X13579453Y34023222D01*
X13510509Y33856776D01*
X13410417Y33706978D01*
X13283022Y33579583D01*
X13133224Y33479491D01*
X12966778Y33410547D01*
X12790082Y33375400D01*
X12609918Y33375400D01*
X12433222Y33410547D01*
X12266776Y33479491D01*
X12116978Y33579583D01*
X11989583Y33706978D01*
X11889491Y33856776D01*
X11820547Y34023222D01*
X11785400Y34199918D01*
X11785400Y34380082D01*
X11820547Y34556778D01*
X11889491Y34723224D01*
X11989583Y34873022D01*
X12116978Y35000417D01*
X12266776Y35100509D01*
X12433222Y35169453D01*
X12609918Y35204600D01*
X12790082Y35204600D01*
X12966778Y35169453D01*
G37*
G36*
X10426778Y35169453D02*
G01*
X10593224Y35100509D01*
X10743022Y35000417D01*
X10870417Y34873022D01*
X10970509Y34723224D01*
X11039453Y34556778D01*
X11074600Y34380082D01*
X11074600Y34199918D01*
X11039453Y34023222D01*
X10970509Y33856776D01*
X10870417Y33706978D01*
X10743022Y33579583D01*
X10593224Y33479491D01*
X10426778Y33410547D01*
X10250082Y33375400D01*
X10069918Y33375400D01*
X9893222Y33410547D01*
X9726776Y33479491D01*
X9576978Y33579583D01*
X9449583Y33706978D01*
X9349491Y33856776D01*
X9280547Y34023222D01*
X9245400Y34199918D01*
X9245400Y34380082D01*
X9280547Y34556778D01*
X9349491Y34723224D01*
X9449583Y34873022D01*
X9576978Y35000417D01*
X9726776Y35100509D01*
X9893222Y35169453D01*
X10069918Y35204600D01*
X10250082Y35204600D01*
X10426778Y35169453D01*
G37*
G36*
X7886778Y35169453D02*
G01*
X8053224Y35100509D01*
X8203022Y35000417D01*
X8330417Y34873022D01*
X8430509Y34723224D01*
X8499453Y34556778D01*
X8534600Y34380082D01*
X8534600Y34199918D01*
X8499453Y34023222D01*
X8430509Y33856776D01*
X8330417Y33706978D01*
X8203022Y33579583D01*
X8053224Y33479491D01*
X7886778Y33410547D01*
X7710082Y33375400D01*
X7529918Y33375400D01*
X7353222Y33410547D01*
X7186776Y33479491D01*
X7036978Y33579583D01*
X6909583Y33706978D01*
X6809491Y33856776D01*
X6740547Y34023222D01*
X6705400Y34199918D01*
X6705400Y34380082D01*
X6740547Y34556778D01*
X6809491Y34723224D01*
X6909583Y34873022D01*
X7036978Y35000417D01*
X7186776Y35100509D01*
X7353222Y35169453D01*
X7529918Y35204600D01*
X7710082Y35204600D01*
X7886778Y35169453D01*
G37*
G36*
X5346778Y35169453D02*
G01*
X5513224Y35100509D01*
X5663022Y35000417D01*
X5790417Y34873022D01*
X5890509Y34723224D01*
X5959453Y34556778D01*
X5994600Y34380082D01*
X5994600Y34199918D01*
X5959453Y34023222D01*
X5890509Y33856776D01*
X5790417Y33706978D01*
X5663022Y33579583D01*
X5513224Y33479491D01*
X5346778Y33410547D01*
X5170082Y33375400D01*
X4989918Y33375400D01*
X4813222Y33410547D01*
X4646776Y33479491D01*
X4496978Y33579583D01*
X4369583Y33706978D01*
X4269491Y33856776D01*
X4200547Y34023222D01*
X4165400Y34199918D01*
X4165400Y34380082D01*
X4200547Y34556778D01*
X4269491Y34723224D01*
X4369583Y34873022D01*
X4496978Y35000417D01*
X4646776Y35100509D01*
X4813222Y35169453D01*
X4989918Y35204600D01*
X5170082Y35204600D01*
X5346778Y35169453D01*
G37*
G36*
X3454600Y33375400D02*
G01*
X1625400Y33375400D01*
X1625400Y35204600D01*
X3454600Y35204600D01*
X3454600Y33375400D01*
G37*
G36*
X-15126488Y36456073D02*
G01*
X-14977188Y36426376D01*
X-14813216Y36358456D01*
X-14665646Y36259853D01*
X-14540147Y36134354D01*
X-14441544Y35986784D01*
X-14373624Y35822812D01*
X-14339000Y35648741D01*
X-14339000Y35471259D01*
X-14373624Y35297188D01*
X-14441544Y35133216D01*
X-14540147Y34985646D01*
X-14665646Y34860147D01*
X-14813216Y34761544D01*
X-14977188Y34693624D01*
X-15126488Y34663927D01*
X-15151258Y34659000D01*
X-15328742Y34659000D01*
X-15353512Y34663927D01*
X-15502812Y34693624D01*
X-15666784Y34761544D01*
X-15814354Y34860147D01*
X-15939853Y34985646D01*
X-16038456Y35133216D01*
X-16106376Y35297188D01*
X-16141000Y35471259D01*
X-16141000Y35648741D01*
X-16106376Y35822812D01*
X-16038456Y35986784D01*
X-15939853Y36134354D01*
X-15814354Y36259853D01*
X-15666784Y36358456D01*
X-15502812Y36426376D01*
X-15353512Y36456073D01*
X-15328742Y36461000D01*
X-15151258Y36461000D01*
X-15126488Y36456073D01*
G37*
G36*
X5346778Y37709453D02*
G01*
X5513224Y37640509D01*
X5663022Y37540417D01*
X5790417Y37413022D01*
X5890509Y37263224D01*
X5959453Y37096778D01*
X5994600Y36920082D01*
X5994600Y36739918D01*
X5959453Y36563222D01*
X5890509Y36396776D01*
X5790417Y36246978D01*
X5663022Y36119583D01*
X5513224Y36019491D01*
X5346778Y35950547D01*
X5170082Y35915400D01*
X4989918Y35915400D01*
X4813222Y35950547D01*
X4646776Y36019491D01*
X4496978Y36119583D01*
X4369583Y36246978D01*
X4269491Y36396776D01*
X4200547Y36563222D01*
X4165400Y36739918D01*
X4165400Y36920082D01*
X4200547Y37096778D01*
X4269491Y37263224D01*
X4369583Y37413022D01*
X4496978Y37540417D01*
X4646776Y37640509D01*
X4813222Y37709453D01*
X4989918Y37744600D01*
X5170082Y37744600D01*
X5346778Y37709453D01*
G37*
G36*
X12966778Y37709453D02*
G01*
X13133224Y37640509D01*
X13283022Y37540417D01*
X13410417Y37413022D01*
X13510509Y37263224D01*
X13579453Y37096778D01*
X13614600Y36920082D01*
X13614600Y36739918D01*
X13579453Y36563222D01*
X13510509Y36396776D01*
X13410417Y36246978D01*
X13283022Y36119583D01*
X13133224Y36019491D01*
X12966778Y35950547D01*
X12790082Y35915400D01*
X12609918Y35915400D01*
X12433222Y35950547D01*
X12266776Y36019491D01*
X12116978Y36119583D01*
X11989583Y36246978D01*
X11889491Y36396776D01*
X11820547Y36563222D01*
X11785400Y36739918D01*
X11785400Y36920082D01*
X11820547Y37096778D01*
X11889491Y37263224D01*
X11989583Y37413022D01*
X12116978Y37540417D01*
X12266776Y37640509D01*
X12433222Y37709453D01*
X12609918Y37744600D01*
X12790082Y37744600D01*
X12966778Y37709453D01*
G37*
G36*
X10426778Y37709453D02*
G01*
X10593224Y37640509D01*
X10743022Y37540417D01*
X10870417Y37413022D01*
X10970509Y37263224D01*
X11039453Y37096778D01*
X11074600Y36920082D01*
X11074600Y36739918D01*
X11039453Y36563222D01*
X10970509Y36396776D01*
X10870417Y36246978D01*
X10743022Y36119583D01*
X10593224Y36019491D01*
X10426778Y35950547D01*
X10250082Y35915400D01*
X10069918Y35915400D01*
X9893222Y35950547D01*
X9726776Y36019491D01*
X9576978Y36119583D01*
X9449583Y36246978D01*
X9349491Y36396776D01*
X9280547Y36563222D01*
X9245400Y36739918D01*
X9245400Y36920082D01*
X9280547Y37096778D01*
X9349491Y37263224D01*
X9449583Y37413022D01*
X9576978Y37540417D01*
X9726776Y37640509D01*
X9893222Y37709453D01*
X10069918Y37744600D01*
X10250082Y37744600D01*
X10426778Y37709453D01*
G37*
G36*
X7886778Y37709453D02*
G01*
X8053224Y37640509D01*
X8203022Y37540417D01*
X8330417Y37413022D01*
X8430509Y37263224D01*
X8499453Y37096778D01*
X8534600Y36920082D01*
X8534600Y36739918D01*
X8499453Y36563222D01*
X8430509Y36396776D01*
X8330417Y36246978D01*
X8203022Y36119583D01*
X8053224Y36019491D01*
X7886778Y35950547D01*
X7710082Y35915400D01*
X7529918Y35915400D01*
X7353222Y35950547D01*
X7186776Y36019491D01*
X7036978Y36119583D01*
X6909583Y36246978D01*
X6809491Y36396776D01*
X6740547Y36563222D01*
X6705400Y36739918D01*
X6705400Y36920082D01*
X6740547Y37096778D01*
X6809491Y37263224D01*
X6909583Y37413022D01*
X7036978Y37540417D01*
X7186776Y37640509D01*
X7353222Y37709453D01*
X7529918Y37744600D01*
X7710082Y37744600D01*
X7886778Y37709453D01*
G37*
G36*
X2806778Y37709453D02*
G01*
X2973224Y37640509D01*
X3123022Y37540417D01*
X3250417Y37413022D01*
X3350509Y37263224D01*
X3419453Y37096778D01*
X3454600Y36920082D01*
X3454600Y36739918D01*
X3419453Y36563222D01*
X3350509Y36396776D01*
X3250417Y36246978D01*
X3123022Y36119583D01*
X2973224Y36019491D01*
X2806778Y35950547D01*
X2630082Y35915400D01*
X2449918Y35915400D01*
X2273222Y35950547D01*
X2106776Y36019491D01*
X1956978Y36119583D01*
X1829583Y36246978D01*
X1729491Y36396776D01*
X1660547Y36563222D01*
X1625400Y36739918D01*
X1625400Y36920082D01*
X1660547Y37096778D01*
X1729491Y37263224D01*
X1829583Y37413022D01*
X1956978Y37540417D01*
X2106776Y37640509D01*
X2273222Y37709453D01*
X2449918Y37744600D01*
X2630082Y37744600D01*
X2806778Y37709453D01*
G37*
G36*
X-6789438Y38234419D02*
G01*
X-6754519Y38223826D01*
X-6722337Y38206624D01*
X-6694127Y38183473D01*
X-6670976Y38155263D01*
X-6653774Y38123081D01*
X-6643181Y38088162D01*
X-6639000Y38045705D01*
X-6639000Y36579495D01*
X-6643181Y36537038D01*
X-6653774Y36502119D01*
X-6670976Y36469937D01*
X-6694127Y36441727D01*
X-6722337Y36418576D01*
X-6754519Y36401374D01*
X-6789438Y36390781D01*
X-6831895Y36386600D01*
X-7973105Y36386600D01*
X-8015562Y36390781D01*
X-8050481Y36401374D01*
X-8082663Y36418576D01*
X-8110873Y36441727D01*
X-8134024Y36469937D01*
X-8151226Y36502119D01*
X-8161819Y36537038D01*
X-8166000Y36579495D01*
X-8166000Y38045705D01*
X-8161819Y38088162D01*
X-8151226Y38123081D01*
X-8134024Y38155263D01*
X-8110873Y38183473D01*
X-8082663Y38206624D01*
X-8050481Y38223826D01*
X-8015562Y38234419D01*
X-7973105Y38238600D01*
X-6831895Y38238600D01*
X-6789438Y38234419D01*
G37*
G36*
X-9764438Y38234419D02*
G01*
X-9729519Y38223826D01*
X-9697337Y38206624D01*
X-9669127Y38183473D01*
X-9645976Y38155263D01*
X-9628774Y38123081D01*
X-9618181Y38088162D01*
X-9614000Y38045705D01*
X-9614000Y36579495D01*
X-9618181Y36537038D01*
X-9628774Y36502119D01*
X-9645976Y36469937D01*
X-9669127Y36441727D01*
X-9697337Y36418576D01*
X-9729519Y36401374D01*
X-9764438Y36390781D01*
X-9806895Y36386600D01*
X-10948105Y36386600D01*
X-10990562Y36390781D01*
X-11025481Y36401374D01*
X-11057663Y36418576D01*
X-11085873Y36441727D01*
X-11109024Y36469937D01*
X-11126226Y36502119D01*
X-11136819Y36537038D01*
X-11141000Y36579495D01*
X-11141000Y38045705D01*
X-11136819Y38088162D01*
X-11126226Y38123081D01*
X-11109024Y38155263D01*
X-11085873Y38183473D01*
X-11057663Y38206624D01*
X-11025481Y38223826D01*
X-10990562Y38234419D01*
X-10948105Y38238600D01*
X-9806895Y38238600D01*
X-9764438Y38234419D01*
G37*
G36*
X-14339000Y37199000D02*
G01*
X-16141000Y37199000D01*
X-16141000Y39001000D01*
X-14339000Y39001000D01*
X-14339000Y37199000D01*
G37*
M02*
