G04 #@! TF.GenerationSoftware,KiCad,Pcbnew,(5.1.5)-3*
G04 #@! TF.CreationDate,2020-03-11T07:33:21-05:00*
G04 #@! TF.ProjectId,BreadboardBreakout,42726561-6462-46f6-9172-64427265616b,rev?*
G04 #@! TF.SameCoordinates,Original*
G04 #@! TF.FileFunction,Paste,Bot*
G04 #@! TF.FilePolarity,Positive*
%FSLAX46Y46*%
G04 Gerber Fmt 4.6, Leading zero omitted, Abs format (unit mm)*
G04 Created by KiCad (PCBNEW (5.1.5)-3) date 2020-03-11 07:33:21*
%MOMM*%
%LPD*%
G04 APERTURE LIST*
%ADD10R,2.000000X0.700000*%
%ADD11R,0.700000X2.000000*%
%ADD12C,0.100000*%
G04 APERTURE END LIST*
D10*
X7735800Y-19385800D03*
X7735800Y-20655800D03*
X7735800Y-21925800D03*
X7735800Y-23195800D03*
X7735800Y-24465800D03*
X7735800Y-25735800D03*
X7735800Y-27005800D03*
X7735800Y-28275800D03*
D11*
X-3774200Y-17125800D03*
X-2504200Y-17125800D03*
X-1234200Y-17125800D03*
X35800Y-17125800D03*
X1305800Y-17125800D03*
X2575800Y-17125800D03*
X3845800Y-17125800D03*
X5115800Y-17125800D03*
D10*
X-6364200Y-28275800D03*
X-6364200Y-27005800D03*
X-6364200Y-25735800D03*
X-6364200Y-24465800D03*
X-6364200Y-23195800D03*
X-6364200Y-21925800D03*
X-6364200Y-20655800D03*
X-6364200Y-19385800D03*
D12*
G36*
X-6793897Y38108995D02*
G01*
X-6769628Y38105395D01*
X-6745830Y38099434D01*
X-6722730Y38091169D01*
X-6700552Y38080679D01*
X-6679508Y38068066D01*
X-6659803Y38053452D01*
X-6641624Y38036976D01*
X-6625148Y38018797D01*
X-6610534Y37999092D01*
X-6597921Y37978048D01*
X-6587431Y37955870D01*
X-6579166Y37932770D01*
X-6573205Y37908972D01*
X-6569605Y37884703D01*
X-6568401Y37860199D01*
X-6568401Y36610199D01*
X-6569605Y36585695D01*
X-6573205Y36561426D01*
X-6579166Y36537628D01*
X-6587431Y36514528D01*
X-6597921Y36492350D01*
X-6610534Y36471306D01*
X-6625148Y36451601D01*
X-6641624Y36433422D01*
X-6659803Y36416946D01*
X-6679508Y36402332D01*
X-6700552Y36389719D01*
X-6722730Y36379229D01*
X-6745830Y36370964D01*
X-6769628Y36365003D01*
X-6793897Y36361403D01*
X-6818401Y36360199D01*
X-7743401Y36360199D01*
X-7767905Y36361403D01*
X-7792174Y36365003D01*
X-7815972Y36370964D01*
X-7839072Y36379229D01*
X-7861250Y36389719D01*
X-7882294Y36402332D01*
X-7901999Y36416946D01*
X-7920178Y36433422D01*
X-7936654Y36451601D01*
X-7951268Y36471306D01*
X-7963881Y36492350D01*
X-7974371Y36514528D01*
X-7982636Y36537628D01*
X-7988597Y36561426D01*
X-7992197Y36585695D01*
X-7993401Y36610199D01*
X-7993401Y37860199D01*
X-7992197Y37884703D01*
X-7988597Y37908972D01*
X-7982636Y37932770D01*
X-7974371Y37955870D01*
X-7963881Y37978048D01*
X-7951268Y37999092D01*
X-7936654Y38018797D01*
X-7920178Y38036976D01*
X-7901999Y38053452D01*
X-7882294Y38068066D01*
X-7861250Y38080679D01*
X-7839072Y38091169D01*
X-7815972Y38099434D01*
X-7792174Y38105395D01*
X-7767905Y38108995D01*
X-7743401Y38110199D01*
X-6818401Y38110199D01*
X-6793897Y38108995D01*
G37*
G36*
X-9768897Y38108995D02*
G01*
X-9744628Y38105395D01*
X-9720830Y38099434D01*
X-9697730Y38091169D01*
X-9675552Y38080679D01*
X-9654508Y38068066D01*
X-9634803Y38053452D01*
X-9616624Y38036976D01*
X-9600148Y38018797D01*
X-9585534Y37999092D01*
X-9572921Y37978048D01*
X-9562431Y37955870D01*
X-9554166Y37932770D01*
X-9548205Y37908972D01*
X-9544605Y37884703D01*
X-9543401Y37860199D01*
X-9543401Y36610199D01*
X-9544605Y36585695D01*
X-9548205Y36561426D01*
X-9554166Y36537628D01*
X-9562431Y36514528D01*
X-9572921Y36492350D01*
X-9585534Y36471306D01*
X-9600148Y36451601D01*
X-9616624Y36433422D01*
X-9634803Y36416946D01*
X-9654508Y36402332D01*
X-9675552Y36389719D01*
X-9697730Y36379229D01*
X-9720830Y36370964D01*
X-9744628Y36365003D01*
X-9768897Y36361403D01*
X-9793401Y36360199D01*
X-10718401Y36360199D01*
X-10742905Y36361403D01*
X-10767174Y36365003D01*
X-10790972Y36370964D01*
X-10814072Y36379229D01*
X-10836250Y36389719D01*
X-10857294Y36402332D01*
X-10876999Y36416946D01*
X-10895178Y36433422D01*
X-10911654Y36451601D01*
X-10926268Y36471306D01*
X-10938881Y36492350D01*
X-10949371Y36514528D01*
X-10957636Y36537628D01*
X-10963597Y36561426D01*
X-10967197Y36585695D01*
X-10968401Y36610199D01*
X-10968401Y37860199D01*
X-10967197Y37884703D01*
X-10963597Y37908972D01*
X-10957636Y37932770D01*
X-10949371Y37955870D01*
X-10938881Y37978048D01*
X-10926268Y37999092D01*
X-10911654Y38018797D01*
X-10895178Y38036976D01*
X-10876999Y38053452D01*
X-10857294Y38068066D01*
X-10836250Y38080679D01*
X-10814072Y38091169D01*
X-10790972Y38099434D01*
X-10767174Y38105395D01*
X-10742905Y38108995D01*
X-10718401Y38110199D01*
X-9793401Y38110199D01*
X-9768897Y38108995D01*
G37*
G36*
X-9825396Y33080996D02*
G01*
X-9801127Y33077396D01*
X-9777329Y33071435D01*
X-9754229Y33063170D01*
X-9732051Y33052680D01*
X-9711007Y33040067D01*
X-9691302Y33025453D01*
X-9673123Y33008977D01*
X-9656647Y32990798D01*
X-9642033Y32971093D01*
X-9629420Y32950049D01*
X-9618930Y32927871D01*
X-9610665Y32904771D01*
X-9604704Y32880973D01*
X-9601104Y32856704D01*
X-9599900Y32832200D01*
X-9599900Y31582200D01*
X-9601104Y31557696D01*
X-9604704Y31533427D01*
X-9610665Y31509629D01*
X-9618930Y31486529D01*
X-9629420Y31464351D01*
X-9642033Y31443307D01*
X-9656647Y31423602D01*
X-9673123Y31405423D01*
X-9691302Y31388947D01*
X-9711007Y31374333D01*
X-9732051Y31361720D01*
X-9754229Y31351230D01*
X-9777329Y31342965D01*
X-9801127Y31337004D01*
X-9825396Y31333404D01*
X-9849900Y31332200D01*
X-10774900Y31332200D01*
X-10799404Y31333404D01*
X-10823673Y31337004D01*
X-10847471Y31342965D01*
X-10870571Y31351230D01*
X-10892749Y31361720D01*
X-10913793Y31374333D01*
X-10933498Y31388947D01*
X-10951677Y31405423D01*
X-10968153Y31423602D01*
X-10982767Y31443307D01*
X-10995380Y31464351D01*
X-11005870Y31486529D01*
X-11014135Y31509629D01*
X-11020096Y31533427D01*
X-11023696Y31557696D01*
X-11024900Y31582200D01*
X-11024900Y32832200D01*
X-11023696Y32856704D01*
X-11020096Y32880973D01*
X-11014135Y32904771D01*
X-11005870Y32927871D01*
X-10995380Y32950049D01*
X-10982767Y32971093D01*
X-10968153Y32990798D01*
X-10951677Y33008977D01*
X-10933498Y33025453D01*
X-10913793Y33040067D01*
X-10892749Y33052680D01*
X-10870571Y33063170D01*
X-10847471Y33071435D01*
X-10823673Y33077396D01*
X-10799404Y33080996D01*
X-10774900Y33082200D01*
X-9849900Y33082200D01*
X-9825396Y33080996D01*
G37*
G36*
X-6850396Y33080996D02*
G01*
X-6826127Y33077396D01*
X-6802329Y33071435D01*
X-6779229Y33063170D01*
X-6757051Y33052680D01*
X-6736007Y33040067D01*
X-6716302Y33025453D01*
X-6698123Y33008977D01*
X-6681647Y32990798D01*
X-6667033Y32971093D01*
X-6654420Y32950049D01*
X-6643930Y32927871D01*
X-6635665Y32904771D01*
X-6629704Y32880973D01*
X-6626104Y32856704D01*
X-6624900Y32832200D01*
X-6624900Y31582200D01*
X-6626104Y31557696D01*
X-6629704Y31533427D01*
X-6635665Y31509629D01*
X-6643930Y31486529D01*
X-6654420Y31464351D01*
X-6667033Y31443307D01*
X-6681647Y31423602D01*
X-6698123Y31405423D01*
X-6716302Y31388947D01*
X-6736007Y31374333D01*
X-6757051Y31361720D01*
X-6779229Y31351230D01*
X-6802329Y31342965D01*
X-6826127Y31337004D01*
X-6850396Y31333404D01*
X-6874900Y31332200D01*
X-7799900Y31332200D01*
X-7824404Y31333404D01*
X-7848673Y31337004D01*
X-7872471Y31342965D01*
X-7895571Y31351230D01*
X-7917749Y31361720D01*
X-7938793Y31374333D01*
X-7958498Y31388947D01*
X-7976677Y31405423D01*
X-7993153Y31423602D01*
X-8007767Y31443307D01*
X-8020380Y31464351D01*
X-8030870Y31486529D01*
X-8039135Y31509629D01*
X-8045096Y31533427D01*
X-8048696Y31557696D01*
X-8049900Y31582200D01*
X-8049900Y32832200D01*
X-8048696Y32856704D01*
X-8045096Y32880973D01*
X-8039135Y32904771D01*
X-8030870Y32927871D01*
X-8020380Y32950049D01*
X-8007767Y32971093D01*
X-7993153Y32990798D01*
X-7976677Y33008977D01*
X-7958498Y33025453D01*
X-7938793Y33040067D01*
X-7917749Y33052680D01*
X-7895571Y33063170D01*
X-7872471Y33071435D01*
X-7848673Y33077396D01*
X-7824404Y33080996D01*
X-7799900Y33082200D01*
X-6874900Y33082200D01*
X-6850396Y33080996D01*
G37*
M02*
