G04 #@! TF.GenerationSoftware,KiCad,Pcbnew,(5.1.5)-3*
G04 #@! TF.CreationDate,2020-03-11T07:33:21-05:00*
G04 #@! TF.ProjectId,BreadboardBreakout,42726561-6462-46f6-9172-64427265616b,rev?*
G04 #@! TF.SameCoordinates,Original*
G04 #@! TF.FileFunction,Legend,Top*
G04 #@! TF.FilePolarity,Positive*
%FSLAX46Y46*%
G04 Gerber Fmt 4.6, Leading zero omitted, Abs format (unit mm)*
G04 Created by KiCad (PCBNEW (5.1.5)-3) date 2020-03-11 07:33:21*
%MOMM*%
%LPD*%
G04 APERTURE LIST*
%ADD10C,0.150000*%
%ADD11C,0.300000*%
%ADD12C,0.120000*%
%ADD13C,0.125000*%
G04 APERTURE END LIST*
D10*
X-4923895Y25363419D02*
X-4304847Y25363419D01*
X-4638180Y24982466D01*
X-4495323Y24982466D01*
X-4400085Y24934847D01*
X-4352466Y24887228D01*
X-4304847Y24791990D01*
X-4304847Y24553895D01*
X-4352466Y24458657D01*
X-4400085Y24411038D01*
X-4495323Y24363419D01*
X-4781038Y24363419D01*
X-4876276Y24411038D01*
X-4923895Y24458657D01*
X-3161990Y25411038D02*
X-4019133Y24125323D01*
X-2304847Y24363419D02*
X-2876276Y24363419D01*
X-2590561Y24363419D02*
X-2590561Y25363419D01*
X-2685800Y25220561D01*
X-2781038Y25125323D01*
X-2876276Y25077704D01*
X-1352466Y24363419D02*
X-1923895Y24363419D01*
X-1638180Y24363419D02*
X-1638180Y25363419D01*
X-1733419Y25220561D01*
X-1828657Y25125323D01*
X-1923895Y25077704D01*
X-209609Y25411038D02*
X-1066752Y24125323D01*
X76104Y25268180D02*
X123723Y25315800D01*
X218961Y25363419D01*
X457057Y25363419D01*
X552295Y25315800D01*
X599914Y25268180D01*
X647533Y25172942D01*
X647533Y25077704D01*
X599914Y24934847D01*
X28485Y24363419D01*
X647533Y24363419D01*
X1266580Y25363419D02*
X1361819Y25363419D01*
X1457057Y25315800D01*
X1504676Y25268180D01*
X1552295Y25172942D01*
X1599914Y24982466D01*
X1599914Y24744371D01*
X1552295Y24553895D01*
X1504676Y24458657D01*
X1457057Y24411038D01*
X1361819Y24363419D01*
X1266580Y24363419D01*
X1171342Y24411038D01*
X1123723Y24458657D01*
X1076104Y24553895D01*
X1028485Y24744371D01*
X1028485Y24982466D01*
X1076104Y25172942D01*
X1123723Y25268180D01*
X1171342Y25315800D01*
X1266580Y25363419D01*
X1980866Y25268180D02*
X2028485Y25315800D01*
X2123723Y25363419D01*
X2361819Y25363419D01*
X2457057Y25315800D01*
X2504676Y25268180D01*
X2552295Y25172942D01*
X2552295Y25077704D01*
X2504676Y24934847D01*
X1933247Y24363419D01*
X2552295Y24363419D01*
X3171342Y25363419D02*
X3266580Y25363419D01*
X3361819Y25315800D01*
X3409438Y25268180D01*
X3457057Y25172942D01*
X3504676Y24982466D01*
X3504676Y24744371D01*
X3457057Y24553895D01*
X3409438Y24458657D01*
X3361819Y24411038D01*
X3266580Y24363419D01*
X3171342Y24363419D01*
X3076104Y24411038D01*
X3028485Y24458657D01*
X2980866Y24553895D01*
X2933247Y24744371D01*
X2933247Y24982466D01*
X2980866Y25172942D01*
X3028485Y25268180D01*
X3076104Y25315800D01*
X3171342Y25363419D01*
D11*
X-8004771Y28744657D02*
X-7004771Y25744657D01*
X-6004771Y28744657D01*
X-3861914Y25887514D02*
X-4147628Y25744657D01*
X-4719057Y25744657D01*
X-5004771Y25887514D01*
X-5147628Y26173228D01*
X-5147628Y27316085D01*
X-5004771Y27601800D01*
X-4719057Y27744657D01*
X-4147628Y27744657D01*
X-3861914Y27601800D01*
X-3719057Y27316085D01*
X-3719057Y27030371D01*
X-5147628Y26744657D01*
X-2433342Y25744657D02*
X-2433342Y27744657D01*
X-2433342Y27173228D02*
X-2290485Y27458942D01*
X-2147628Y27601800D01*
X-1861914Y27744657D01*
X-1576200Y27744657D01*
X3280942Y25744657D02*
X1566657Y25744657D01*
X2423800Y25744657D02*
X2423800Y28744657D01*
X2138085Y28316085D01*
X1852371Y28030371D01*
X1566657Y27887514D01*
X4566657Y26030371D02*
X4709514Y25887514D01*
X4566657Y25744657D01*
X4423799Y25887514D01*
X4566657Y26030371D01*
X4566657Y25744657D01*
X6566657Y28744657D02*
X6852371Y28744657D01*
X7138085Y28601800D01*
X7280942Y28458942D01*
X7423799Y28173228D01*
X7566657Y27601800D01*
X7566657Y26887514D01*
X7423799Y26316085D01*
X7280942Y26030371D01*
X7138085Y25887514D01*
X6852371Y25744657D01*
X6566657Y25744657D01*
X6280942Y25887514D01*
X6138085Y26030371D01*
X5995228Y26316085D01*
X5852371Y26887514D01*
X5852371Y27601800D01*
X5995228Y28173228D01*
X6138085Y28458942D01*
X6280942Y28601800D01*
X6566657Y28744657D01*
D12*
X-4394200Y-1143000D02*
X-7797800Y-1143000D01*
X-4267200Y3835400D02*
X-7823200Y3835400D01*
X-4241800Y2717800D02*
X-4241800Y3784600D01*
X-1371600Y2717800D02*
X-4241800Y2717800D01*
X-1371600Y254000D02*
X-1371600Y2717800D01*
X-4267200Y254000D02*
X-1371600Y254000D01*
X-4292600Y-2362200D02*
X-4292600Y228600D01*
X-1346200Y-2362200D02*
X-4292600Y-2362200D01*
X-1397000Y-4826000D02*
X-1371600Y-2438400D01*
X-4216400Y-4800600D02*
X-1397000Y-4800600D01*
X-4241800Y-6705600D02*
X-4241800Y-4775200D01*
X-7848600Y-6705600D02*
X-4241800Y-6705600D01*
X-7823200Y3759200D02*
X-7823200Y-6731000D01*
D10*
X2119380Y-5557780D02*
X1786047Y-5081590D01*
X1547952Y-5557780D02*
X1547952Y-4557780D01*
X1928904Y-4557780D01*
X2024142Y-4605400D01*
X2071761Y-4653019D01*
X2119380Y-4748257D01*
X2119380Y-4891114D01*
X2071761Y-4986352D01*
X2024142Y-5033971D01*
X1928904Y-5081590D01*
X1547952Y-5081590D01*
X2500333Y-5510161D02*
X2643190Y-5557780D01*
X2881285Y-5557780D01*
X2976523Y-5510161D01*
X3024142Y-5462542D01*
X3071761Y-5367304D01*
X3071761Y-5272066D01*
X3024142Y-5176828D01*
X2976523Y-5129209D01*
X2881285Y-5081590D01*
X2690809Y-5033971D01*
X2595571Y-4986352D01*
X2547952Y-4938733D01*
X2500333Y-4843495D01*
X2500333Y-4748257D01*
X2547952Y-4653019D01*
X2595571Y-4605400D01*
X2690809Y-4557780D01*
X2928904Y-4557780D01*
X3071761Y-4605400D01*
X3357476Y-4557780D02*
X3928904Y-4557780D01*
X3643190Y-5557780D02*
X3643190Y-4557780D01*
X935219Y-3068580D02*
X935219Y-2068580D01*
X1316171Y-2068580D01*
X1411409Y-2116200D01*
X1459028Y-2163819D01*
X1506647Y-2259057D01*
X1506647Y-2401914D01*
X1459028Y-2497152D01*
X1411409Y-2544771D01*
X1316171Y-2592390D01*
X935219Y-2592390D01*
X2125695Y-2068580D02*
X2220933Y-2068580D01*
X2316171Y-2116200D01*
X2363790Y-2163819D01*
X2411409Y-2259057D01*
X2459028Y-2449533D01*
X2459028Y-2687628D01*
X2411409Y-2878104D01*
X2363790Y-2973342D01*
X2316171Y-3020961D01*
X2220933Y-3068580D01*
X2125695Y-3068580D01*
X2030457Y-3020961D01*
X1982838Y-2973342D01*
X1935219Y-2878104D01*
X1887600Y-2687628D01*
X1887600Y-2449533D01*
X1935219Y-2259057D01*
X1982838Y-2163819D01*
X2030457Y-2116200D01*
X2125695Y-2068580D01*
X2887600Y-2973342D02*
X2935219Y-3020961D01*
X2887600Y-3068580D01*
X2839980Y-3020961D01*
X2887600Y-2973342D01*
X2887600Y-3068580D01*
X3554266Y-2068580D02*
X3649504Y-2068580D01*
X3744742Y-2116200D01*
X3792361Y-2163819D01*
X3839980Y-2259057D01*
X3887600Y-2449533D01*
X3887600Y-2687628D01*
X3839980Y-2878104D01*
X3792361Y-2973342D01*
X3744742Y-3020961D01*
X3649504Y-3068580D01*
X3554266Y-3068580D01*
X3459028Y-3020961D01*
X3411409Y-2973342D01*
X3363790Y-2878104D01*
X3316171Y-2687628D01*
X3316171Y-2449533D01*
X3363790Y-2259057D01*
X3411409Y-2163819D01*
X3459028Y-2116200D01*
X3554266Y-2068580D01*
X960619Y-503180D02*
X960619Y496819D01*
X1341571Y496819D01*
X1436809Y449200D01*
X1484428Y401580D01*
X1532047Y306342D01*
X1532047Y163485D01*
X1484428Y68247D01*
X1436809Y20628D01*
X1341571Y-26990D01*
X960619Y-26990D01*
X2151095Y496819D02*
X2246333Y496819D01*
X2341571Y449200D01*
X2389190Y401580D01*
X2436809Y306342D01*
X2484428Y115866D01*
X2484428Y-122228D01*
X2436809Y-312704D01*
X2389190Y-407942D01*
X2341571Y-455561D01*
X2246333Y-503180D01*
X2151095Y-503180D01*
X2055857Y-455561D01*
X2008238Y-407942D01*
X1960619Y-312704D01*
X1913000Y-122228D01*
X1913000Y115866D01*
X1960619Y306342D01*
X2008238Y401580D01*
X2055857Y449200D01*
X2151095Y496819D01*
X2913000Y-407942D02*
X2960619Y-455561D01*
X2913000Y-503180D01*
X2865380Y-455561D01*
X2913000Y-407942D01*
X2913000Y-503180D01*
X3913000Y-503180D02*
X3341571Y-503180D01*
X3627285Y-503180D02*
X3627285Y496819D01*
X3532047Y353961D01*
X3436809Y258723D01*
X3341571Y211104D01*
X935219Y1986019D02*
X935219Y2986019D01*
X1316171Y2986019D01*
X1411409Y2938400D01*
X1459028Y2890780D01*
X1506647Y2795542D01*
X1506647Y2652685D01*
X1459028Y2557447D01*
X1411409Y2509828D01*
X1316171Y2462209D01*
X935219Y2462209D01*
X2125695Y2986019D02*
X2220933Y2986019D01*
X2316171Y2938400D01*
X2363790Y2890780D01*
X2411409Y2795542D01*
X2459028Y2605066D01*
X2459028Y2366971D01*
X2411409Y2176495D01*
X2363790Y2081257D01*
X2316171Y2033638D01*
X2220933Y1986019D01*
X2125695Y1986019D01*
X2030457Y2033638D01*
X1982838Y2081257D01*
X1935219Y2176495D01*
X1887600Y2366971D01*
X1887600Y2605066D01*
X1935219Y2795542D01*
X1982838Y2890780D01*
X2030457Y2938400D01*
X2125695Y2986019D01*
X2887600Y2081257D02*
X2935219Y2033638D01*
X2887600Y1986019D01*
X2839980Y2033638D01*
X2887600Y2081257D01*
X2887600Y1986019D01*
X3316171Y2890780D02*
X3363790Y2938400D01*
X3459028Y2986019D01*
X3697123Y2986019D01*
X3792361Y2938400D01*
X3839980Y2890780D01*
X3887600Y2795542D01*
X3887600Y2700304D01*
X3839980Y2557447D01*
X3268552Y1986019D01*
X3887600Y1986019D01*
X909819Y4576819D02*
X909819Y5576819D01*
X1290771Y5576819D01*
X1386009Y5529200D01*
X1433628Y5481580D01*
X1481247Y5386342D01*
X1481247Y5243485D01*
X1433628Y5148247D01*
X1386009Y5100628D01*
X1290771Y5053009D01*
X909819Y5053009D01*
X2100295Y5576819D02*
X2195533Y5576819D01*
X2290771Y5529200D01*
X2338390Y5481580D01*
X2386009Y5386342D01*
X2433628Y5195866D01*
X2433628Y4957771D01*
X2386009Y4767295D01*
X2338390Y4672057D01*
X2290771Y4624438D01*
X2195533Y4576819D01*
X2100295Y4576819D01*
X2005057Y4624438D01*
X1957438Y4672057D01*
X1909819Y4767295D01*
X1862200Y4957771D01*
X1862200Y5195866D01*
X1909819Y5386342D01*
X1957438Y5481580D01*
X2005057Y5529200D01*
X2100295Y5576819D01*
X2862200Y4672057D02*
X2909819Y4624438D01*
X2862200Y4576819D01*
X2814580Y4624438D01*
X2862200Y4672057D01*
X2862200Y4576819D01*
X3243152Y5576819D02*
X3862200Y5576819D01*
X3528866Y5195866D01*
X3671723Y5195866D01*
X3766961Y5148247D01*
X3814580Y5100628D01*
X3862200Y5005390D01*
X3862200Y4767295D01*
X3814580Y4672057D01*
X3766961Y4624438D01*
X3671723Y4576819D01*
X3386009Y4576819D01*
X3290771Y4624438D01*
X3243152Y4672057D01*
X884419Y7116819D02*
X884419Y8116819D01*
X1265371Y8116819D01*
X1360609Y8069200D01*
X1408228Y8021580D01*
X1455847Y7926342D01*
X1455847Y7783485D01*
X1408228Y7688247D01*
X1360609Y7640628D01*
X1265371Y7593009D01*
X884419Y7593009D01*
X2074895Y8116819D02*
X2170133Y8116819D01*
X2265371Y8069200D01*
X2312990Y8021580D01*
X2360609Y7926342D01*
X2408228Y7735866D01*
X2408228Y7497771D01*
X2360609Y7307295D01*
X2312990Y7212057D01*
X2265371Y7164438D01*
X2170133Y7116819D01*
X2074895Y7116819D01*
X1979657Y7164438D01*
X1932038Y7212057D01*
X1884419Y7307295D01*
X1836800Y7497771D01*
X1836800Y7735866D01*
X1884419Y7926342D01*
X1932038Y8021580D01*
X1979657Y8069200D01*
X2074895Y8116819D01*
X2836800Y7212057D02*
X2884419Y7164438D01*
X2836800Y7116819D01*
X2789180Y7164438D01*
X2836800Y7212057D01*
X2836800Y7116819D01*
X3741561Y7783485D02*
X3741561Y7116819D01*
X3503466Y8164438D02*
X3265371Y7450152D01*
X3884419Y7450152D01*
X-3563857Y-2759200D02*
X-3659095Y-2663961D01*
X-3801952Y-2663961D01*
X-3944809Y-2759200D01*
X-4040047Y-2949676D01*
X-4087666Y-3140152D01*
X-4135285Y-3521104D01*
X-4135285Y-3806819D01*
X-4087666Y-4187771D01*
X-4040047Y-4378247D01*
X-3944809Y-4568723D01*
X-3801952Y-4663961D01*
X-3706714Y-4663961D01*
X-3563857Y-4568723D01*
X-3516238Y-4473485D01*
X-3516238Y-3806819D01*
X-3706714Y-3806819D01*
X-3087666Y-3330628D02*
X-3087666Y-4663961D01*
X-3087666Y-3521104D02*
X-3040047Y-3425866D01*
X-2944809Y-3330628D01*
X-2801952Y-3330628D01*
X-2706714Y-3425866D01*
X-2659095Y-3616342D01*
X-2659095Y-4663961D01*
X-1754333Y-4663961D02*
X-1754333Y-2663961D01*
X-1754333Y-4568723D02*
X-1849571Y-4663961D01*
X-2040047Y-4663961D01*
X-2135285Y-4568723D01*
X-2182904Y-4473485D01*
X-2230523Y-4283009D01*
X-2230523Y-3711580D01*
X-2182904Y-3521104D01*
X-2135285Y-3425866D01*
X-2040047Y-3330628D01*
X-1849571Y-3330628D01*
X-1754333Y-3425866D01*
X-4263876Y2390638D02*
X-3930542Y390638D01*
X-3597209Y2390638D01*
X-2835304Y485876D02*
X-2930542Y390638D01*
X-3121019Y390638D01*
X-3216257Y485876D01*
X-3263876Y581114D01*
X-3311495Y771590D01*
X-3311495Y1343019D01*
X-3263876Y1533495D01*
X-3216257Y1628733D01*
X-3121019Y1723971D01*
X-2930542Y1723971D01*
X-2835304Y1628733D01*
X-1978161Y485876D02*
X-2073400Y390638D01*
X-2263876Y390638D01*
X-2359114Y485876D01*
X-2406733Y581114D01*
X-2454352Y771590D01*
X-2454352Y1343019D01*
X-2406733Y1533495D01*
X-2359114Y1628733D01*
X-2263876Y1723971D01*
X-2073400Y1723971D01*
X-1978161Y1628733D01*
D13*
X-3941580Y5367509D02*
X-3941580Y5867509D01*
X-3560628Y5867509D01*
X-3465390Y5843700D01*
X-3417771Y5819890D01*
X-3370152Y5772271D01*
X-3370152Y5700842D01*
X-3417771Y5653223D01*
X-3465390Y5629414D01*
X-3560628Y5605604D01*
X-3941580Y5605604D01*
X-2989200Y5819890D02*
X-2941580Y5843700D01*
X-2846342Y5867509D01*
X-2608247Y5867509D01*
X-2513009Y5843700D01*
X-2465390Y5819890D01*
X-2417771Y5772271D01*
X-2417771Y5724652D01*
X-2465390Y5653223D01*
X-3036819Y5367509D01*
X-2417771Y5367509D01*
X-1989200Y5415128D02*
X-1941580Y5391319D01*
X-1989200Y5367509D01*
X-2036819Y5391319D01*
X-1989200Y5415128D01*
X-1989200Y5367509D01*
X-1560628Y5819890D02*
X-1513009Y5843700D01*
X-1417771Y5867509D01*
X-1179676Y5867509D01*
X-1084438Y5843700D01*
X-1036819Y5819890D01*
X-989200Y5772271D01*
X-989200Y5724652D01*
X-1036819Y5653223D01*
X-1608247Y5367509D01*
X-989200Y5367509D01*
X-3727295Y4540128D02*
X-3774914Y4516319D01*
X-3917771Y4492509D01*
X-4013009Y4492509D01*
X-4155866Y4516319D01*
X-4251104Y4563938D01*
X-4298723Y4611557D01*
X-4346342Y4706795D01*
X-4346342Y4778223D01*
X-4298723Y4873461D01*
X-4251104Y4921080D01*
X-4155866Y4968700D01*
X-4013009Y4992509D01*
X-3917771Y4992509D01*
X-3774914Y4968700D01*
X-3727295Y4944890D01*
X-3155866Y4492509D02*
X-3251104Y4516319D01*
X-3298723Y4563938D01*
X-3298723Y4992509D01*
X-2632057Y4492509D02*
X-2727295Y4516319D01*
X-2774914Y4540128D01*
X-2822533Y4587747D01*
X-2822533Y4730604D01*
X-2774914Y4778223D01*
X-2727295Y4802033D01*
X-2632057Y4825842D01*
X-2489200Y4825842D01*
X-2393961Y4802033D01*
X-2346342Y4778223D01*
X-2298723Y4730604D01*
X-2298723Y4587747D01*
X-2346342Y4540128D01*
X-2393961Y4516319D01*
X-2489200Y4492509D01*
X-2632057Y4492509D01*
X-1441580Y4516319D02*
X-1536819Y4492509D01*
X-1727295Y4492509D01*
X-1822533Y4516319D01*
X-1870152Y4540128D01*
X-1917771Y4587747D01*
X-1917771Y4730604D01*
X-1870152Y4778223D01*
X-1822533Y4802033D01*
X-1727295Y4825842D01*
X-1536819Y4825842D01*
X-1441580Y4802033D01*
X-1013009Y4492509D02*
X-1013009Y4992509D01*
X-917771Y4682985D02*
X-632057Y4492509D01*
X-632057Y4825842D02*
X-1013009Y4635366D01*
X-3966980Y7932909D02*
X-3966980Y8432909D01*
X-3586028Y8432909D01*
X-3490790Y8409100D01*
X-3443171Y8385290D01*
X-3395552Y8337671D01*
X-3395552Y8266242D01*
X-3443171Y8218623D01*
X-3490790Y8194814D01*
X-3586028Y8171004D01*
X-3966980Y8171004D01*
X-3014600Y8385290D02*
X-2966980Y8409100D01*
X-2871742Y8432909D01*
X-2633647Y8432909D01*
X-2538409Y8409100D01*
X-2490790Y8385290D01*
X-2443171Y8337671D01*
X-2443171Y8290052D01*
X-2490790Y8218623D01*
X-3062219Y7932909D01*
X-2443171Y7932909D01*
X-2014600Y7980528D02*
X-1966980Y7956719D01*
X-2014600Y7932909D01*
X-2062219Y7956719D01*
X-2014600Y7980528D01*
X-2014600Y7932909D01*
X-1014600Y7932909D02*
X-1586028Y7932909D01*
X-1300314Y7932909D02*
X-1300314Y8432909D01*
X-1395552Y8361480D01*
X-1490790Y8313861D01*
X-1586028Y8290052D01*
X-3966980Y7057909D02*
X-3966980Y7557909D01*
X-3728885Y7557909D01*
X-3586028Y7534100D01*
X-3490790Y7486480D01*
X-3443171Y7438861D01*
X-3395552Y7343623D01*
X-3395552Y7272195D01*
X-3443171Y7176957D01*
X-3490790Y7129338D01*
X-3586028Y7081719D01*
X-3728885Y7057909D01*
X-3966980Y7057909D01*
X-2538409Y7057909D02*
X-2538409Y7319814D01*
X-2586028Y7367433D01*
X-2681266Y7391242D01*
X-2871742Y7391242D01*
X-2966980Y7367433D01*
X-2538409Y7081719D02*
X-2633647Y7057909D01*
X-2871742Y7057909D01*
X-2966980Y7081719D01*
X-3014600Y7129338D01*
X-3014600Y7176957D01*
X-2966980Y7224576D01*
X-2871742Y7248385D01*
X-2633647Y7248385D01*
X-2538409Y7272195D01*
X-2205076Y7391242D02*
X-1824123Y7391242D01*
X-2062219Y7557909D02*
X-2062219Y7129338D01*
X-2014600Y7081719D01*
X-1919361Y7057909D01*
X-1824123Y7057909D01*
X-1062219Y7057909D02*
X-1062219Y7319814D01*
X-1109838Y7367433D01*
X-1205076Y7391242D01*
X-1395552Y7391242D01*
X-1490790Y7367433D01*
X-1062219Y7081719D02*
X-1157457Y7057909D01*
X-1395552Y7057909D01*
X-1490790Y7081719D01*
X-1538409Y7129338D01*
X-1538409Y7176957D01*
X-1490790Y7224576D01*
X-1395552Y7248385D01*
X-1157457Y7248385D01*
X-1062219Y7272195D01*
D10*
X859019Y9606019D02*
X859019Y10606019D01*
X1239971Y10606019D01*
X1335209Y10558400D01*
X1382828Y10510780D01*
X1430447Y10415542D01*
X1430447Y10272685D01*
X1382828Y10177447D01*
X1335209Y10129828D01*
X1239971Y10082209D01*
X859019Y10082209D01*
X2049495Y10606019D02*
X2144733Y10606019D01*
X2239971Y10558400D01*
X2287590Y10510780D01*
X2335209Y10415542D01*
X2382828Y10225066D01*
X2382828Y9986971D01*
X2335209Y9796495D01*
X2287590Y9701257D01*
X2239971Y9653638D01*
X2144733Y9606019D01*
X2049495Y9606019D01*
X1954257Y9653638D01*
X1906638Y9701257D01*
X1859019Y9796495D01*
X1811400Y9986971D01*
X1811400Y10225066D01*
X1859019Y10415542D01*
X1906638Y10510780D01*
X1954257Y10558400D01*
X2049495Y10606019D01*
X2811400Y9701257D02*
X2859019Y9653638D01*
X2811400Y9606019D01*
X2763780Y9653638D01*
X2811400Y9701257D01*
X2811400Y9606019D01*
X3763780Y10606019D02*
X3287590Y10606019D01*
X3239971Y10129828D01*
X3287590Y10177447D01*
X3382828Y10225066D01*
X3620923Y10225066D01*
X3716161Y10177447D01*
X3763780Y10129828D01*
X3811400Y10034590D01*
X3811400Y9796495D01*
X3763780Y9701257D01*
X3716161Y9653638D01*
X3620923Y9606019D01*
X3382828Y9606019D01*
X3287590Y9653638D01*
X3239971Y9701257D01*
X884419Y12120619D02*
X884419Y13120619D01*
X1265371Y13120619D01*
X1360609Y13073000D01*
X1408228Y13025380D01*
X1455847Y12930142D01*
X1455847Y12787285D01*
X1408228Y12692047D01*
X1360609Y12644428D01*
X1265371Y12596809D01*
X884419Y12596809D01*
X2074895Y13120619D02*
X2170133Y13120619D01*
X2265371Y13073000D01*
X2312990Y13025380D01*
X2360609Y12930142D01*
X2408228Y12739666D01*
X2408228Y12501571D01*
X2360609Y12311095D01*
X2312990Y12215857D01*
X2265371Y12168238D01*
X2170133Y12120619D01*
X2074895Y12120619D01*
X1979657Y12168238D01*
X1932038Y12215857D01*
X1884419Y12311095D01*
X1836800Y12501571D01*
X1836800Y12739666D01*
X1884419Y12930142D01*
X1932038Y13025380D01*
X1979657Y13073000D01*
X2074895Y13120619D01*
X2836800Y12215857D02*
X2884419Y12168238D01*
X2836800Y12120619D01*
X2789180Y12168238D01*
X2836800Y12215857D01*
X2836800Y12120619D01*
X3741561Y13120619D02*
X3551085Y13120619D01*
X3455847Y13073000D01*
X3408228Y13025380D01*
X3312990Y12882523D01*
X3265371Y12692047D01*
X3265371Y12311095D01*
X3312990Y12215857D01*
X3360609Y12168238D01*
X3455847Y12120619D01*
X3646323Y12120619D01*
X3741561Y12168238D01*
X3789180Y12215857D01*
X3836800Y12311095D01*
X3836800Y12549190D01*
X3789180Y12644428D01*
X3741561Y12692047D01*
X3646323Y12739666D01*
X3455847Y12739666D01*
X3360609Y12692047D01*
X3312990Y12644428D01*
X3265371Y12549190D01*
X833619Y14736819D02*
X833619Y15736819D01*
X1214571Y15736819D01*
X1309809Y15689200D01*
X1357428Y15641580D01*
X1405047Y15546342D01*
X1405047Y15403485D01*
X1357428Y15308247D01*
X1309809Y15260628D01*
X1214571Y15213009D01*
X833619Y15213009D01*
X2024095Y15736819D02*
X2119333Y15736819D01*
X2214571Y15689200D01*
X2262190Y15641580D01*
X2309809Y15546342D01*
X2357428Y15355866D01*
X2357428Y15117771D01*
X2309809Y14927295D01*
X2262190Y14832057D01*
X2214571Y14784438D01*
X2119333Y14736819D01*
X2024095Y14736819D01*
X1928857Y14784438D01*
X1881238Y14832057D01*
X1833619Y14927295D01*
X1786000Y15117771D01*
X1786000Y15355866D01*
X1833619Y15546342D01*
X1881238Y15641580D01*
X1928857Y15689200D01*
X2024095Y15736819D01*
X2786000Y14832057D02*
X2833619Y14784438D01*
X2786000Y14736819D01*
X2738380Y14784438D01*
X2786000Y14832057D01*
X2786000Y14736819D01*
X3166952Y15736819D02*
X3833619Y15736819D01*
X3405047Y14736819D01*
X960619Y17226019D02*
X960619Y18226019D01*
X1341571Y18226019D01*
X1436809Y18178400D01*
X1484428Y18130780D01*
X1532047Y18035542D01*
X1532047Y17892685D01*
X1484428Y17797447D01*
X1436809Y17749828D01*
X1341571Y17702209D01*
X960619Y17702209D01*
X2484428Y17226019D02*
X1913000Y17226019D01*
X2198714Y17226019D02*
X2198714Y18226019D01*
X2103476Y18083161D01*
X2008238Y17987923D01*
X1913000Y17940304D01*
X2913000Y17321257D02*
X2960619Y17273638D01*
X2913000Y17226019D01*
X2865380Y17273638D01*
X2913000Y17321257D01*
X2913000Y17226019D01*
X3579666Y18226019D02*
X3674904Y18226019D01*
X3770142Y18178400D01*
X3817761Y18130780D01*
X3865380Y18035542D01*
X3913000Y17845066D01*
X3913000Y17606971D01*
X3865380Y17416495D01*
X3817761Y17321257D01*
X3770142Y17273638D01*
X3674904Y17226019D01*
X3579666Y17226019D01*
X3484428Y17273638D01*
X3436809Y17321257D01*
X3389190Y17416495D01*
X3341571Y17606971D01*
X3341571Y17845066D01*
X3389190Y18035542D01*
X3436809Y18130780D01*
X3484428Y18178400D01*
X3579666Y18226019D01*
X1036819Y19842219D02*
X1036819Y20842219D01*
X1417771Y20842219D01*
X1513009Y20794600D01*
X1560628Y20746980D01*
X1608247Y20651742D01*
X1608247Y20508885D01*
X1560628Y20413647D01*
X1513009Y20366028D01*
X1417771Y20318409D01*
X1036819Y20318409D01*
X2560628Y19842219D02*
X1989200Y19842219D01*
X2274914Y19842219D02*
X2274914Y20842219D01*
X2179676Y20699361D01*
X2084438Y20604123D01*
X1989200Y20556504D01*
X2989200Y19937457D02*
X3036819Y19889838D01*
X2989200Y19842219D01*
X2941580Y19889838D01*
X2989200Y19937457D01*
X2989200Y19842219D01*
X3989200Y19842219D02*
X3417771Y19842219D01*
X3703485Y19842219D02*
X3703485Y20842219D01*
X3608247Y20699361D01*
X3513009Y20604123D01*
X3417771Y20556504D01*
X960619Y22407619D02*
X960619Y23407619D01*
X1341571Y23407619D01*
X1436809Y23360000D01*
X1484428Y23312380D01*
X1532047Y23217142D01*
X1532047Y23074285D01*
X1484428Y22979047D01*
X1436809Y22931428D01*
X1341571Y22883809D01*
X960619Y22883809D01*
X2484428Y22407619D02*
X1913000Y22407619D01*
X2198714Y22407619D02*
X2198714Y23407619D01*
X2103476Y23264761D01*
X2008238Y23169523D01*
X1913000Y23121904D01*
X2913000Y22502857D02*
X2960619Y22455238D01*
X2913000Y22407619D01*
X2865380Y22455238D01*
X2913000Y22502857D01*
X2913000Y22407619D01*
X3341571Y23312380D02*
X3389190Y23360000D01*
X3484428Y23407619D01*
X3722523Y23407619D01*
X3817761Y23360000D01*
X3865380Y23312380D01*
X3913000Y23217142D01*
X3913000Y23121904D01*
X3865380Y22979047D01*
X3293952Y22407619D01*
X3913000Y22407619D01*
X-3992380Y9707619D02*
X-3992380Y10707619D01*
X-3611428Y10707619D01*
X-3516190Y10660000D01*
X-3468571Y10612380D01*
X-3420952Y10517142D01*
X-3420952Y10374285D01*
X-3468571Y10279047D01*
X-3516190Y10231428D01*
X-3611428Y10183809D01*
X-3992380Y10183809D01*
X-3040000Y10612380D02*
X-2992380Y10660000D01*
X-2897142Y10707619D01*
X-2659047Y10707619D01*
X-2563809Y10660000D01*
X-2516190Y10612380D01*
X-2468571Y10517142D01*
X-2468571Y10421904D01*
X-2516190Y10279047D01*
X-3087619Y9707619D01*
X-2468571Y9707619D01*
X-2040000Y9802857D02*
X-1992380Y9755238D01*
X-2040000Y9707619D01*
X-2087619Y9755238D01*
X-2040000Y9802857D01*
X-2040000Y9707619D01*
X-1373333Y10707619D02*
X-1278095Y10707619D01*
X-1182857Y10660000D01*
X-1135238Y10612380D01*
X-1087619Y10517142D01*
X-1040000Y10326666D01*
X-1040000Y10088571D01*
X-1087619Y9898095D01*
X-1135238Y9802857D01*
X-1182857Y9755238D01*
X-1278095Y9707619D01*
X-1373333Y9707619D01*
X-1468571Y9755238D01*
X-1516190Y9802857D01*
X-1563809Y9898095D01*
X-1611428Y10088571D01*
X-1611428Y10326666D01*
X-1563809Y10517142D01*
X-1516190Y10612380D01*
X-1468571Y10660000D01*
X-1373333Y10707619D01*
X-3992380Y12323819D02*
X-3992380Y13323819D01*
X-3611428Y13323819D01*
X-3516190Y13276200D01*
X-3468571Y13228580D01*
X-3420952Y13133342D01*
X-3420952Y12990485D01*
X-3468571Y12895247D01*
X-3516190Y12847628D01*
X-3611428Y12800009D01*
X-3992380Y12800009D01*
X-2468571Y12323819D02*
X-3040000Y12323819D01*
X-2754285Y12323819D02*
X-2754285Y13323819D01*
X-2849523Y13180961D01*
X-2944761Y13085723D01*
X-3040000Y13038104D01*
X-2040000Y12419057D02*
X-1992380Y12371438D01*
X-2040000Y12323819D01*
X-2087619Y12371438D01*
X-2040000Y12419057D01*
X-2040000Y12323819D01*
X-1659047Y13323819D02*
X-992380Y13323819D01*
X-1420952Y12323819D01*
X-4017780Y14813019D02*
X-4017780Y15813019D01*
X-3636828Y15813019D01*
X-3541590Y15765400D01*
X-3493971Y15717780D01*
X-3446352Y15622542D01*
X-3446352Y15479685D01*
X-3493971Y15384447D01*
X-3541590Y15336828D01*
X-3636828Y15289209D01*
X-4017780Y15289209D01*
X-2493971Y14813019D02*
X-3065400Y14813019D01*
X-2779685Y14813019D02*
X-2779685Y15813019D01*
X-2874923Y15670161D01*
X-2970161Y15574923D01*
X-3065400Y15527304D01*
X-2065400Y14908257D02*
X-2017780Y14860638D01*
X-2065400Y14813019D01*
X-2113019Y14860638D01*
X-2065400Y14908257D01*
X-2065400Y14813019D01*
X-1160638Y15813019D02*
X-1351114Y15813019D01*
X-1446352Y15765400D01*
X-1493971Y15717780D01*
X-1589209Y15574923D01*
X-1636828Y15384447D01*
X-1636828Y15003495D01*
X-1589209Y14908257D01*
X-1541590Y14860638D01*
X-1446352Y14813019D01*
X-1255876Y14813019D01*
X-1160638Y14860638D01*
X-1113019Y14908257D01*
X-1065400Y15003495D01*
X-1065400Y15241590D01*
X-1113019Y15336828D01*
X-1160638Y15384447D01*
X-1255876Y15432066D01*
X-1446352Y15432066D01*
X-1541590Y15384447D01*
X-1589209Y15336828D01*
X-1636828Y15241590D01*
X-4043180Y17327619D02*
X-4043180Y18327619D01*
X-3662228Y18327619D01*
X-3566990Y18280000D01*
X-3519371Y18232380D01*
X-3471752Y18137142D01*
X-3471752Y17994285D01*
X-3519371Y17899047D01*
X-3566990Y17851428D01*
X-3662228Y17803809D01*
X-4043180Y17803809D01*
X-2519371Y17327619D02*
X-3090800Y17327619D01*
X-2805085Y17327619D02*
X-2805085Y18327619D01*
X-2900323Y18184761D01*
X-2995561Y18089523D01*
X-3090800Y18041904D01*
X-2090800Y17422857D02*
X-2043180Y17375238D01*
X-2090800Y17327619D01*
X-2138419Y17375238D01*
X-2090800Y17422857D01*
X-2090800Y17327619D01*
X-1138419Y18327619D02*
X-1614609Y18327619D01*
X-1662228Y17851428D01*
X-1614609Y17899047D01*
X-1519371Y17946666D01*
X-1281276Y17946666D01*
X-1186038Y17899047D01*
X-1138419Y17851428D01*
X-1090800Y17756190D01*
X-1090800Y17518095D01*
X-1138419Y17422857D01*
X-1186038Y17375238D01*
X-1281276Y17327619D01*
X-1519371Y17327619D01*
X-1614609Y17375238D01*
X-1662228Y17422857D01*
X-3992380Y19893019D02*
X-3992380Y20893019D01*
X-3611428Y20893019D01*
X-3516190Y20845400D01*
X-3468571Y20797780D01*
X-3420952Y20702542D01*
X-3420952Y20559685D01*
X-3468571Y20464447D01*
X-3516190Y20416828D01*
X-3611428Y20369209D01*
X-3992380Y20369209D01*
X-2468571Y19893019D02*
X-3040000Y19893019D01*
X-2754285Y19893019D02*
X-2754285Y20893019D01*
X-2849523Y20750161D01*
X-2944761Y20654923D01*
X-3040000Y20607304D01*
X-2040000Y19988257D02*
X-1992380Y19940638D01*
X-2040000Y19893019D01*
X-2087619Y19940638D01*
X-2040000Y19988257D01*
X-2040000Y19893019D01*
X-1135238Y20559685D02*
X-1135238Y19893019D01*
X-1373333Y20940638D02*
X-1611428Y20226352D01*
X-992380Y20226352D01*
X-4017780Y22483819D02*
X-4017780Y23483819D01*
X-3636828Y23483819D01*
X-3541590Y23436200D01*
X-3493971Y23388580D01*
X-3446352Y23293342D01*
X-3446352Y23150485D01*
X-3493971Y23055247D01*
X-3541590Y23007628D01*
X-3636828Y22960009D01*
X-4017780Y22960009D01*
X-2493971Y22483819D02*
X-3065400Y22483819D01*
X-2779685Y22483819D02*
X-2779685Y23483819D01*
X-2874923Y23340961D01*
X-2970161Y23245723D01*
X-3065400Y23198104D01*
X-2065400Y22579057D02*
X-2017780Y22531438D01*
X-2065400Y22483819D01*
X-2113019Y22531438D01*
X-2065400Y22579057D01*
X-2065400Y22483819D01*
X-1684447Y23483819D02*
X-1065400Y23483819D01*
X-1398733Y23102866D01*
X-1255876Y23102866D01*
X-1160638Y23055247D01*
X-1113019Y23007628D01*
X-1065400Y22912390D01*
X-1065400Y22674295D01*
X-1113019Y22579057D01*
X-1160638Y22531438D01*
X-1255876Y22483819D01*
X-1541590Y22483819D01*
X-1636828Y22531438D01*
X-1684447Y22579057D01*
D12*
X-6430000Y33367600D02*
X-10490000Y33367600D01*
X-6430000Y31097600D02*
X-6430000Y33367600D01*
X-10490000Y31097600D02*
X-6430000Y31097600D01*
X-9492064Y36402600D02*
X-8287936Y36402600D01*
X-9492064Y38222600D02*
X-8287936Y38222600D01*
X-4930000Y-6330000D02*
X-6260000Y-6330000D01*
X-4930000Y-5000000D02*
X-4930000Y-6330000D01*
X-4930000Y-3730000D02*
X-7590000Y-3730000D01*
X-7590000Y-3730000D02*
X-7590000Y24270000D01*
X-4930000Y-3730000D02*
X-4930000Y24270000D01*
X-4930000Y24270000D02*
X-7590000Y24270000D01*
X9154160Y-40279320D02*
X9136380Y-12255500D01*
X-9839960Y-40322500D02*
X9202420Y-40319960D01*
X-9817100Y-12283440D02*
X-9855200Y-40266620D01*
X9138920Y-12227560D02*
X-9814560Y-12247880D01*
X7590000Y-6330000D02*
X6260000Y-6330000D01*
X7590000Y-5000000D02*
X7590000Y-6330000D01*
X7590000Y-3730000D02*
X4930000Y-3730000D01*
X4930000Y-3730000D02*
X4930000Y24270000D01*
X7590000Y-3730000D02*
X7590000Y24270000D01*
X7590000Y24270000D02*
X4930000Y24270000D01*
X-2810000Y40235000D02*
X18050000Y40235000D01*
X18050000Y40235000D02*
X18050000Y30885000D01*
X18050000Y30885000D02*
X-2810000Y30885000D01*
X-2810000Y30885000D02*
X-2810000Y40235000D01*
X-3060000Y30635000D02*
X-520000Y30635000D01*
X-3060000Y30635000D02*
X-3060000Y33175000D01*
X-16570000Y31690000D02*
X-13910000Y31690000D01*
X-16570000Y36830000D02*
X-16570000Y31690000D01*
X-13910000Y36830000D02*
X-13910000Y31690000D01*
X-16570000Y36830000D02*
X-13910000Y36830000D01*
X-16570000Y38100000D02*
X-16570000Y39430000D01*
X-16570000Y39430000D02*
X-15240000Y39430000D01*
D10*
X-9628095Y29960219D02*
X-9628095Y30960219D01*
X-9390000Y30960219D01*
X-9247142Y30912600D01*
X-9151904Y30817361D01*
X-9104285Y30722123D01*
X-9056666Y30531647D01*
X-9056666Y30388790D01*
X-9104285Y30198314D01*
X-9151904Y30103076D01*
X-9247142Y30007838D01*
X-9390000Y29960219D01*
X-9628095Y29960219D01*
X-8104285Y29960219D02*
X-8675714Y29960219D01*
X-8390000Y29960219D02*
X-8390000Y30960219D01*
X-8485238Y30817361D01*
X-8580476Y30722123D01*
X-8675714Y30674504D01*
X-9056666Y38680219D02*
X-9390000Y39156409D01*
X-9628095Y38680219D02*
X-9628095Y39680219D01*
X-9247142Y39680219D01*
X-9151904Y39632600D01*
X-9104285Y39584980D01*
X-9056666Y39489742D01*
X-9056666Y39346885D01*
X-9104285Y39251647D01*
X-9151904Y39204028D01*
X-9247142Y39156409D01*
X-9628095Y39156409D01*
X-8104285Y38680219D02*
X-8675714Y38680219D01*
X-8390000Y38680219D02*
X-8390000Y39680219D01*
X-8485238Y39537361D01*
X-8580476Y39442123D01*
X-8675714Y39394504D01*
X-6593333Y-6782380D02*
X-6593333Y-7496666D01*
X-6640952Y-7639523D01*
X-6736190Y-7734761D01*
X-6879047Y-7782380D01*
X-6974285Y-7782380D01*
X-5593333Y-7782380D02*
X-6164761Y-7782380D01*
X-5879047Y-7782380D02*
X-5879047Y-6782380D01*
X-5974285Y-6925238D01*
X-6069523Y-7020476D01*
X-6164761Y-7068095D01*
X-711104Y-9129780D02*
X-711104Y-9939304D01*
X-663485Y-10034542D01*
X-615866Y-10082161D01*
X-520628Y-10129780D01*
X-330152Y-10129780D01*
X-234914Y-10082161D01*
X-187295Y-10034542D01*
X-139676Y-9939304D01*
X-139676Y-9129780D01*
X860323Y-10129780D02*
X288895Y-10129780D01*
X574609Y-10129780D02*
X574609Y-9129780D01*
X479371Y-9272638D01*
X384133Y-9367876D01*
X288895Y-9415495D01*
D11*
X-2660257Y-31188742D02*
X-2445971Y-31260171D01*
X-2088828Y-31260171D01*
X-1945971Y-31188742D01*
X-1874542Y-31117314D01*
X-1803114Y-30974457D01*
X-1803114Y-30831600D01*
X-1874542Y-30688742D01*
X-1945971Y-30617314D01*
X-2088828Y-30545885D01*
X-2374542Y-30474457D01*
X-2517399Y-30403028D01*
X-2588828Y-30331600D01*
X-2660257Y-30188742D01*
X-2660257Y-30045885D01*
X-2588828Y-29903028D01*
X-2517399Y-29831600D01*
X-2374542Y-29760171D01*
X-2017399Y-29760171D01*
X-1803114Y-29831600D01*
X-1303114Y-29760171D02*
X-303114Y-29760171D01*
X-1303114Y-31260171D01*
X-303114Y-31260171D01*
X1054028Y-31260171D02*
X196885Y-31260171D01*
X625457Y-31260171D02*
X625457Y-29760171D01*
X482600Y-29974457D01*
X339742Y-30117314D01*
X196885Y-30188742D01*
X1554028Y-30260171D02*
X1911171Y-31260171D01*
X2268314Y-30260171D01*
X3554028Y-29760171D02*
X2839742Y-29760171D01*
X2768314Y-30474457D01*
X2839742Y-30403028D01*
X2982600Y-30331600D01*
X3339742Y-30331600D01*
X3482600Y-30403028D01*
X3554028Y-30474457D01*
X3625457Y-30617314D01*
X3625457Y-30974457D01*
X3554028Y-31117314D01*
X3482600Y-31188742D01*
X3339742Y-31260171D01*
X2982600Y-31260171D01*
X2839742Y-31188742D01*
X2768314Y-31117314D01*
D10*
X5926666Y-6782380D02*
X5926666Y-7496666D01*
X5879047Y-7639523D01*
X5783809Y-7734761D01*
X5640952Y-7782380D01*
X5545714Y-7782380D01*
X6355238Y-6877619D02*
X6402857Y-6830000D01*
X6498095Y-6782380D01*
X6736190Y-6782380D01*
X6831428Y-6830000D01*
X6879047Y-6877619D01*
X6926666Y-6972857D01*
X6926666Y-7068095D01*
X6879047Y-7210952D01*
X6307619Y-7782380D01*
X6926666Y-7782380D01*
X7286666Y42457619D02*
X7286666Y41743333D01*
X7239047Y41600476D01*
X7143809Y41505238D01*
X7000952Y41457619D01*
X6905714Y41457619D01*
X7667619Y42457619D02*
X8286666Y42457619D01*
X7953333Y42076666D01*
X8096190Y42076666D01*
X8191428Y42029047D01*
X8239047Y41981428D01*
X8286666Y41886190D01*
X8286666Y41648095D01*
X8239047Y41552857D01*
X8191428Y41505238D01*
X8096190Y41457619D01*
X7810476Y41457619D01*
X7715238Y41505238D01*
X7667619Y41552857D01*
X-16073333Y40977619D02*
X-16073333Y40263333D01*
X-16120952Y40120476D01*
X-16216190Y40025238D01*
X-16359047Y39977619D01*
X-16454285Y39977619D01*
X-15597142Y39977619D02*
X-15597142Y40977619D01*
X-15216190Y40977619D01*
X-15120952Y40930000D01*
X-15073333Y40882380D01*
X-15025714Y40787142D01*
X-15025714Y40644285D01*
X-15073333Y40549047D01*
X-15120952Y40501428D01*
X-15216190Y40453809D01*
X-15597142Y40453809D01*
X-14073333Y39977619D02*
X-14644761Y39977619D01*
X-14359047Y39977619D02*
X-14359047Y40977619D01*
X-14454285Y40834761D01*
X-14549523Y40739523D01*
X-14644761Y40691904D01*
M02*
